<svg xmlns="http://www.w3.org/2000/svg" width="201" height="200" fill="none"><path fill="#C6C7F8" d="M141.64 27.326a4.259 4.259 0 0 1-.74-1.934c-.043-.454.236-.975-.233-1.358.329-.601-.028-1.102-.173-1.665a11.396 11.396 0 0 1-.079-1.919c-.032-.417.207-.891-.209-1.246.277-.34.376-.676-.021-1.002.487-.512.092-1.16.264-1.713.282-.614.525-1.245.725-1.89.067-.374.58-.5.722-.912.146-.422.547-.88.877-.9a2.378 2.378 0 0 1 1.454.512c.506.32.908.78 1.156 1.326.084.228.127.628.567.607.082-.004.259.181.243.241-.147.57.39.828.589 1.22.17.375.305.766.405 1.166.101.336.439.56.383.96a5.295 5.295 0 0 0 .147-1.75c.008-.254-.023-.467.36-.468.124 0 .261-.266.371-.425a1.579 1.579 0 0 1 2.366-.444c.362.283.931.206 1.13.819.148.454.8.629.928 1.195.036.158.297.166.389.009.105-.155.188-.322.248-.5a7.082 7.082 0 0 1 2.354-3.483 2.066 2.066 0 0 1 2.691-.213c.265.195.479.45.625.744.141.423.317.835.526 1.23.278.328.432.743.436 1.174a.399.399 0 0 0 .382.349.469.469 0 0 0 .315-.33 3.72 3.72 0 0 1 1.578-2.753 1.54 1.54 0 0 1 2.096.292c.342.524.726 1.02 1.147 1.483.249.224.692.524.302 1a1.061 1.061 0 0 1 .489 1.136.71.71 0 0 0 .182.532c.155.249.357.54.07.875a.564.564 0 0 0-.004.472 10.5 10.5 0 0 1 .236 3.425c.046.42-.334.776-.038 1.278.195.33.037.87.037 1.315v1.457c.028.445.022.89-.015 1.334-.053.36.305.53.274.875-.025.286-.361.419-.27.751.031.24.035.484.013.726.008.236-.057.597.066.684.316.224-.156.402.016.534.337.258-.413.575.098.87.376.218-.297.599.01 1.004.177.233.046.7.051 1.062.023.2.019.404-.011.604-.046.174-.36.317-.216.497.172.216.228.349.006.531.242.12.187.41.339.59a.988.988 0 0 1 .128 1.082c-.015.034.006.082-.003.12-.127.488.462.957.206 1.333-.325.477-.143.927-.193 1.383-.029.256-.114.552.168.782a.452.452 0 0 1 .051.442 2.184 2.184 0 0 0-.213 1.609c.026.536-.259 1.126.2 1.611-.411.797.496 1.7-.201 2.474.482.548.175 1.08-.007 1.631a.958.958 0 0 0 .174.843c-.428.264.185.392.095.685-.071.227-.304.361-.283.617.04.199.037.404-.009.602-.099.255.358.345.137.582-.168.182-.176.339.006.504.034.02.062.05.083.083a.273.273 0 0 1 .029.228.27.27 0 0 1-.061.1c-.548.59-.411 1.316-.424 2.013-.004.243 0 .486 0 .729-.334.06-.297.239-.152.458.057.087.102.18.152.272-.07.028-.201.061-.199.085-.024.859-.132 1.714-.323 2.552a19.578 19.578 0 0 1-1.001 4.555c-.103.288-.162.59-.176.895-.018.242.073.521-.02.721-.19.41-.585.75-.682 1.17-.103.44 0 .969-.302 1.331-.319.44-.489.97-.485 1.513-.036.34-.485.525-.558.965-.036.22-.041.308.095.437a3.472 3.472 0 0 0-.42.432 19.2 19.2 0 0 1-1.463 2.429c.114.959-.758 1.46-1.056 2.234-.131.343-.576.573-.259 1.026-.324.052-.066.495-.463.6a.979.979 0 0 0-.742 1.075 14.27 14.27 0 0 1-1.485 2.063c-.438.561-.822 1.162-1.146 1.796-.456.973-1.402 1.605-1.746 2.657-.071.22-.546.25-.708.534-.485.855-1.363 1.397-1.814 2.283-.059.118-.164.292-.369.263-.391.213-.766.438-.73.972-.376.36-.984.431-1.216.973a8.086 8.086 0 0 0-2.084 1.716c-.144.19-.327.346-.537.459-.511.173-.676.366-.173.744.156.118.125.283.116.437-.021.4.064.703.53.788a14.295 14.295 0 0 1 1.816 2.223c-.045.562.439.805.704 1.144a15.065 15.065 0 0 1 1.613 1.89c.144.263.519.243.65.443.105.24.186.489.244.744.234.613.784.881 1.167 1.321.052.06.309-.008.301.11-.057.775.637 1.031.973 1.533.251.374.765.392.892.815.14.467.536.57.906.708.549.204.462.789.613 1.172.122.314.192.5.501.628.496.212.897.596 1.129 1.082.337.52.728 1.004 1.165 1.442.202.237.496.403.427.801-.039.228.2.361.35.449.649.381 1.307.731 1.36 1.613.004.06.115.11.164.173.184.24.689.167.579.729-.056.289.569.43.462.887-.047.201.185.194.266.283.537.468 1.046.967 1.524 1.494.283.401.546.816.786 1.245.28.426.609.818.98 1.167.338.379.659.769.975 1.164.288.36.76.564.824 1.111.012.095.144.203.246.256a4.834 4.834 0 0 1 1.881 1.874c.145.235.37.539.598.578a.795.795 0 0 1 .626.706c.048.407.15.692.543.724.464.039.435.473.664.693.345.332 1.023.524.978 1.005-.056.603.473.781.59 1.241a2.18 2.18 0 0 0 .821 1.364c.258.174-.076.666.339.823-.02.707.464 1.189.788 1.738.247.658.257 1.381.029 2.046a14.142 14.142 0 0 1-1.217 1.673 1.814 1.814 0 0 1-1.153.658c-.636-.038-.983.42-1.488.568-.136.04-.189.242-.389.237a8.61 8.61 0 0 1-1.573-.03c-.445-.097-.813.341-1.275.047a.903.903 0 0 0-.821 0 2.167 2.167 0 0 1-1.494.211c-2.239-.019-4.459.425-6.702.254-1.09.164-2.189.259-3.291.285a14.846 14.846 0 0 1-3.795.17c-.965-.025-1.865.345-2.815.27-.303-.024-.648.144-.899-.181a.228.228 0 0 0-.212-.052c-.652.386-1.409.082-2.064.302a1.783 1.783 0 0 1-1.657-.042.516.516 0 0 0-.464-.01c-.499.424-1.078.144-1.61.231-.851.132-1.75-.273-2.568.229-.213-.275-.402-.303-.682-.038-.28.264-.427-.249-.725-.202-.316.05-.756-.12-.948.039-.376.313-.641-.213-.91-.02-.33.216-.731.299-1.12.232-1.68-.15-3.325.402-5.005.249a1.07 1.07 0 0 0-.352.029 2.86 2.86 0 0 1-2.133 0c-.188-.05-.426-.117-.563.034-.273.3-.602.166-.904.171-1.094.017-2.188.007-3.282.007-.405 0-.812-.024-1.215.007a4.272 4.272 0 0 0-1.045.103c-.272.087-.69-.13-1.064-.115-.485.02-.972.005-1.459.005-.444.033-.89.028-1.334-.017-.444-.081-.838.243-1.282.071-.165-.063-.269.285-.484.186a3.519 3.519 0 0 0-2.604-.025 3.948 3.948 0 0 1-1.69.009c-.625-.101-1.122.309-1.726.291-.293-.009-.521-.346-.918-.065-.271.19-.793.086-1.186.018-.239-.042-.3.393-.579.125-.344-.33-.637.031-.946.136a.346.346 0 0 0-.003-.12c-.014-.034-.054-.058-.082-.087a.814.814 0 0 1-.952.175c-.312-.244-.459.042-.673.026-.419-.031-.788.407-1.272.028-.334-.262-.697.236-1.096.228a6.064 6.064 0 0 0-1.97.211c-.618.192-1.343-.171-1.959.263-.037.026-.168-.018-.205-.067-.304-.403-.771.25-1.066-.17-.61.439-1.306.177-1.962.24-.277.027-.633-.077-.82.06-.453.334-.928.141-1.386.167-.169.009-.347-.335-.53.011a14.596 14.596 0 0 0-2.687.242c-.522.049-1.051.009-1.577.009-.404.027-.81.022-1.213-.015-.33-.053-.567.359-.738.237-.616-.441-1.305.391-1.877-.163-.593.37-1.304-.028-1.854.218-.607.27-1.19.034-1.79.161a9.314 9.314 0 0 1-2.784.029c-.971-.096-1.867.294-2.82.271-1.417-.033-2.837-.008-4.255-.008a1.676 1.676 0 0 0-.603.011 1.701 1.701 0 0 1-1.752-.006.287.287 0 0 0-.238-.001 7.635 7.635 0 0 1-3.063.229 6.75 6.75 0 0 0-2.688.312c-.352.737.128 1.344.137 2.003.009.689 0 1.378.005 2.067.015.074.041.144.079.209.163.337.293.689.389 1.051.044.403.048.81.013 1.213-.021.829.407 1.611.252 2.454-.01.054.115.127.113.19-.02.759.748 1.349.465 2.162.307.344-.055.874.196 1.12.354.347.11.754.277 1.118.128.298.182.623.159.946.034.597.2 1.178.486 1.703.036.184-.12.465.243.486-.003.265-.451.423-.088.815.206.315.333.675.366 1.05.072.808.215 1.608.425 2.391.164.258.264.552.29.857-.021.329-.193.726.15 1.014.082.067.065.097-.021.175-.57.514-1.007 1.224-1.904 1.242a.187.187 0 0 0-.158.069.188.188 0 0 0-.033.17c-.317-.127-.478.233-.749.241-.324.009-.648.001-.971.002a.873.873 0 0 0-.356.018c-1.02.516-2.179.596-3.21 1.047-.2.118-.432.166-.663.137-.472-.125-.776.424-1.238.258-.497-.178-.925.15-1.343.284-.325.111-.663.18-1.005.206a.188.188 0 0 0-.158.069.189.189 0 0 0-.035.17c-.716-.185-1.351.319-2.055.243-.114.493-.827.008-.837.429-.015.651.627.077.807.312.273.354.702.224 1.037.433.317.197.852.042 1.291.042.379-.115.606.317.993.255a7.076 7.076 0 0 1 1.09-.012c.484.028.97.023 1.453-.014a1.016 1.016 0 0 1 .989.543.754.754 0 0 1-.477 1.174c-.782.161-1.564.323-2.345.486-.774.042-1.544.14-2.303.293-.534.025-1.046.525-1.592.826.602.269 1.19.586 1.815.795a4.233 4.233 0 0 0 1.59.504c.6-.043 1.1.441 1.706.257.805 0 1.614.049 2.412-.026.287-.027.517-.255.732.121.134.233.45.334.515.671a1.672 1.672 0 0 1-1.12.894 1.972 1.972 0 0 0-.904.465c-.264.235-.74.138-.906.55-.069.029-.157.039-.203.089-.402.43-.398.429.106.67.069.033.106.133.175.165.387.181.885-.16 1.232.252.007.009.112-.098.164-.091.395.052.83.296 1.178.111a4.668 4.668 0 0 1 1.97-.223c.335-.078.67.212.944.122.754-.248 1.571.111 2.242-.162a8.047 8.047 0 0 1 2.225-.203c.386-.053.77.001 1.171-.089.35-.109.714-.164 1.08-.162.467.091.95.007 1.358-.236.54.496 1.09-.011 1.62.025 1.767.118 3.493-.366 5.251-.27.283.02.567.019.85-.003.39.03.783-.034 1.144-.186a1.408 1.408 0 0 1 1.268.04c.255.148.37.179.607-.011.264-.211.62-.052.935-.076.361-.027.79.107 1.075-.044.956-.505 2.054.113 2.979-.447.54.373 1.083-.031 1.62-.044.195-.004.472-.242.751-.195.426.009.848-.072 1.24-.239a.647.647 0 0 0 .451-.24.653.653 0 0 0 .133-.494 2.6 2.6 0 0 1 .032-1.197c.168-.323-.031-.632.174-.953a.721.721 0 0 0-.262-.955c-.243-.157-.293-.378-.033-.579a.255.255 0 0 0 .076-.322c-.314-.31-.468-.85-.325-1.073.358-.555-.33-.867-.16-1.332.104-.283-.354-.562-.013-.911.093-.094.028-.433-.047-.679-.164-.536-.761-1.051-.181-1.678.03-.033 0-.165-.042-.216-.418-.502-.088-1.088-.195-1.623.347-.217.068-.446-.006-.648a9.303 9.303 0 0 1-.236-3.062c.01-.466-.062-.93-.213-1.37a3.255 3.255 0 0 0-.493-1.013c.319-.32.202-.726.216-1.104.01-.284.105-.628-.018-.84a4.535 4.535 0 0 1-.42-1.882 6.82 6.82 0 0 1-.299-2.084.685.685 0 0 0-.1-.564c-.31-.44-.57-.901-.148-1.453.097-.128-.008-.397.019-.596.05-.378-.559-.686-.15-1.071.453-.427-.187-.661-.136-1.064.167-.739.1-1.511-.196-2.209a.532.532 0 0 1 .002-.472c.439-.511.203-.757-.315-.911-.215-.064-.184-.22-.183-.377.002-.283.02-.569-.003-.851a1.28 1.28 0 0 1 .976-1.45c.365 0 .73-.009 1.094.003.343.085.645.288.854.572.15.187.296.431.498.511.43.17-.176.563.195.704-.561.667.302 1.309.034 1.971.385.254.08.791.277.961.414.359-.254.534-.036.806.229.286.05.586.021.892-.015.345.045.689.177 1.008.306 1.036.48 2.106.517 3.186.055.676-.353 1.394.248 2.017.066.068.017.334-.066.437-.12.148-.191.24.003.353a.711.711 0 0 1 .312.84c-.09.464.331.92.007 1.379.365.229-.065.637.228.928.227.225-.292.508-.022.903.19.276.033.785.039 1.19-.015.157 0 .316.044.467a5.63 5.63 0 0 1 .443 2.614c-.069.389.015.79.234 1.119.157.201.063.524.148.706a.636.636 0 0 1-.106.849.227.227 0 0 0-.03.22c.23.299.383.565.09.94-.392.502.474.555.392.971-.062.316.38.671-.136.967-.472.271.389.742-.097 1.097-.11.079.041.288.174.395a.83.83 0 0 1 .175 1.159.83.83 0 0 0 .2 1.154c.2.151.144.348.175.54.056.339-.233.691-.12.939.11.38.145.777.107 1.17a.707.707 0 0 1-.1.566.924.924 0 0 0-.045.974c.447 0 .854-.026 1.256.007.38-.029.757-.104 1.12-.223a14.636 14.636 0 0 1 2.062-.028h1.579c.487 0 1.089.179 1.431-.043.464-.302.882-.023 1.319-.155.383-.115.888-.358 1.209-.248a2.442 2.442 0 0 0 1.998-.007c.073-.036.266.423.329-.033.023-.165.126-.423-.182-.484a.621.621 0 0 0-.243 0c-.265.053-.352-.327-.631-.254-.034.009-.107-.094-.148-.155a.131.131 0 0 1 0-.117.627.627 0 0 0 .077-.634c-.016-.063.261-.287.153-.392-.428-.413-.15-.917-.233-1.369v-1.216a1.49 1.49 0 0 1-.141-1.434c.104-.23-.041-.469.117-.725.132-.217-.22-.38-.378-.544-.175-.182.354-.358-.017-.531a.336.336 0 0 1-.035-.306c.332-.245.202-.587.206-.89a5.617 5.617 0 0 0-.218-2.09 4.37 4.37 0 0 1-.027-1.084c-.025-.306.081-.611-.107-.926-.159-.265.396-.618.035-.895-.506-.389.051-.659.121-.919.116-.435-.537-.657-.178-1.081.288-.341.091-.768.131-1.155a.781.781 0 0 0-.041-.463 1.935 1.935 0 0 1 .107-1.978c.036-.085.198-.07.115-.261a7.95 7.95 0 0 1-.162-2.838c-.025-.41-.154-.849.206-1.253a.878.878 0 0 0-.001-.815.75.75 0 0 1 .022-.784c.142-.346-.305-.506-.259-.871a6.85 6.85 0 0 0 .002-1.693 4.84 4.84 0 0 1-.019-1.505c.074-.419.262-.967-.208-1.349.215-.417.3-.889.243-1.355-.004-.119.041-.294-.021-.349-.5-.447-.029-1.078-.326-1.57-.307-.51-.077-1.093-.136-1.639-.018-.163 0-.332.24-.313.283 0 .567.012.849-.003.34-.019.495.195.608.457.266.618.083 1.407.724 1.892.058.044.002.232.008.354.033.379.095.755.188 1.124.174.458.246.948.211 1.436-.078.298-.203.471.072.684-.398.223-.061.514.034.625.253.292.017.632.194.945a.645.645 0 0 1-.197.86c.448.239-.254.591.129.968.266.262.171.886-.005 1.35a1.695 1.695 0 0 0-.097.706c.034.277.182.518-.043.775.444.737.149 1.552.249 2.326.083.653-.247 1.352.226 1.971a.487.487 0 0 1 .04.232.484.484 0 0 1-.071.225.882.882 0 0 0 .009 1.17c.105.136.001.277-.105.414a.507.507 0 0 0-.134.381.51.51 0 0 0 .185.36c.195.199.043.461.087.69-.326.002-.234.25-.24.426.016.473-.001.947-.052 1.418-.034.193-.349.368-.071.573.188.138-.011.526.363.502a4.53 4.53 0 0 1-.214 1.336c-.122.47.527.806.457 1.339a1.559 1.559 0 0 0 0 1.702c-.077.338.174.728-.17 1.024a.37.37 0 0 0-.06.443c.35.345.141.823.336 1.205a1.683 1.683 0 0 1 .009 1.469 1.537 1.537 0 0 0 .013 1.236 2.85 2.85 0 0 1 .325 1.732 3.423 3.423 0 0 1 1.704.187c.376.063.814-.166 1.118.235l1.159.074c.372-.011.734.123 1.009.374a.71.71 0 0 0 .463.042 4.667 4.667 0 0 1 2.077.284 4.795 4.795 0 0 0 1.611.201 8.248 8.248 0 0 0 2.102-.187 1.946 1.946 0 0 1 1.832.19c.377.305.629-.506 1.069-.13.369.315.852.067 1.279.126.055.008.13-.075.186-.127.244-.229.541-.053.806-.11.336-.073.543.403.866.234.3-.18.649-.261.998-.231.193.024.304-.269.367-.214.501.446 1.084.153 1.621.198.584.11 1.188.032 1.725-.222a.667.667 0 0 1 .36-.005 4.069 4.069 0 0 0 1.793-.176.79.79 0 0 1 .335-.066 36.232 36.232 0 0 0 4.76-.27c.464-.014.883.219 1.389.056a5.072 5.072 0 0 1 1.57-.031 13.901 13.901 0 0 1 2.451-.245c.394-.408.907-.258 1.356-.223.533.041.954-.387 1.481-.263a.318.318 0 0 0 .003.119c.013.034.064.088.079.082a4.692 4.692 0 0 1 1.824-.426c.86.042 1.626-.353 2.653-.3a6.262 6.262 0 0 0-1.893-.884c-.64-.132-1.286-.23-1.937-.293a.19.19 0 0 0-.105-.224.184.184 0 0 0-.087-.015 8.033 8.033 0 0 0-.85-.002.908.908 0 0 1-.875-.681.848.848 0 0 1-.033-.529.85.85 0 0 1 .289-.443c.352-.315.813-.387 1.303-.782-.565 0-1-.029-1.429.008a3.65 3.65 0 0 1-1.644-.245.79.79 0 0 1-.474-.849c.004-.395.059-.704.461-.859l1.255-.487a7.093 7.093 0 0 1 3.053-.489c.111.013.24.039.323-.089.351-.534 1.065-.362 1.559-.848a2.913 2.913 0 0 1-1.47-.335c-.456-.154-1.03.019-1.389-.419-.497.561-.986.036-1.482 0-.52-.038-1.044-.008-1.566-.008-.029-.07-.058-.199-.086-.199a3.357 3.357 0 0 1-1.22-.284 1.585 1.585 0 0 0-.812-.236 1.584 1.584 0 0 0-.818.212.614.614 0 0 1-.677-.068c-.405-.374-.92-.318-1.406-.426-.742-.164-1.488-.303-2.23-.462a1.765 1.765 0 0 1-1.529-1.899c-.051-.657.354-1.201.274-1.843a2.464 2.464 0 0 1 .194-1.125c.093-.269.451-.6.254-.834-.292-.347-.245-.547.067-.774.225-.162.146-.266-.002-.442a.472.472 0 0 1-.023-.455c.423-.497.126-1.08.24-1.605.07-.324-.219-.487-.25-.751-.044-.371.643-.149.509-.623-.026-.094.317-.143.104-.34-.258-.237-.102-.41.084-.587.141-.134.337-.25.272-.492-.103-.38.309-.724.026-1.149a.602.602 0 0 1 .155-.762c.263-.206.506-.447.097-.753.466-.426-.041-.834-.014-1.24.035-.524.229-1.037.309-1.561.086-.557.599-1.078.339-1.628a.815.815 0 0 1 .01-.944c.188-.317-.336-.676-.191-1.086.025-.07.028-.161.076-.209.286-.292.239-.71.38-1.057.097-.393.105-.803.023-1.2a1.766 1.766 0 0 1 .367-1.184c.3-.439.85-.325 1.16.148a3.1 3.1 0 0 1 .449 1.522c.089 1.005-.264 1.95-.266 2.934.114.278.437.58.216.849a1.854 1.854 0 0 0-.165 1.604c.023.259.009.52-.043.775-.043.373-.452.752-.008 1.129a9.422 9.422 0 0 0-.331 1.68c-.02.098-.173.147-.158.297.091.948-.411 1.851-.235 2.802.113.61-.387 1.107-.269 1.707-.502.102.268.522-.184.719-.143.062-.096.521.192.707a.615.615 0 0 0-.231.621c-.215-.016-.243.124-.243.29v.926c-.045.229.112.497-.089.69a.74.74 0 0 0-.113.889 1.375 1.375 0 0 1 .02 1.427.754.754 0 0 0 .019.765.749.749 0 0 0 .683.346 4.92 4.92 0 0 1 2.594.503c.843-.172 1.623.267 2.453.254.341-.005.753-.176 1.023.149.276.333.483-.349.783.01.22.264.715-.117.979.266.573.058 1.149.082 1.725.07.192-.008.428-.115.563.057.196.247.439.156.667.164.549.019 1.095-.07 1.53.465a.914.914 0 0 0 .846.284c.483-.109.845.317 1.233.512a1.07 1.07 0 0 1 .365.985 2.484 2.484 0 0 1-1.014 1.41 3.97 3.97 0 0 1-1.134.506c-.344.055-.657.23-.883.495-.151.188-.17.425.099.438.507.041.979.278 1.314.662.194.19.183.32.089.6-.142.421-.531.637-.665 1.068-.097.314-.595-.016-.869.181.301.491.945.304 1.311.666 1.056.02 1.366 1.007 1.995 1.572a.446.446 0 0 1-.108.637c-.646.398-1.09 1.062-1.924 1.236-.685.144-1.336.542-2.025.658-.684.162-1.38.267-2.082.314a6.195 6.195 0 0 0-1.824.55 13.435 13.435 0 0 1-3.141.667c-1.22.137-2.447.202-3.675.194.085.384.326.244.474.245 1.581.011 3.161.007 4.742.007.283.02.567.016.849-.012.205-.036.327.472.553.067.462.233.885-.151 1.359-.074a6.353 6.353 0 0 0 1.577.008c.497-.045 1.052.246 1.485-.221 1.027.522 2.12.148 3.179.216 1.093.06 2.189.058 3.281-.004.304-.015.534.325.917.052.242-.172.707-.032 1.071-.032h.973c.365 0 .731-.021 1.094.005.499.037 1.018-.146 1.495.219a.71.71 0 0 0 .681-.045c.409-.346.854-.141 1.272-.159.283-.012.62.444.849.202.378-.399.594.153.922.042.319-.048.643-.057.965-.025.265-.016.537.085.787-.173a.457.457 0 0 1 .64.058c.168.183.409.037.553.131.291.19.41-.417.699-.107.192.206.457.072.688.09.282.022.568-.007.851.009.227.013.485-.099.664.159.113.163.317.109.448.072 1.397-.403 2.79.25 4.177-.001.469-.086.791.281 1.239.272a1.945 1.945 0 0 1 1.266.171c.287.185.794-.005 1.183.071.27.052.401-.334.588-.168.258.228.531.147.794.14.264-.008.438.194.634.227.338.056.738-.161 1.05-.065.383.104.782.131 1.174.077.922-.085 1.77.387 2.7.282a.74.74 0 0 1 .701.671c-.003.194.023.685-.49.785-.467.091-.861.496-1.409.232-.228-.109-.529.226-.613.199-.443-.142-.8.273-1.284.07-.413-.174-.96-.002-1.443-.046-.458-.041-.927.155-1.389-.181-.214-.155-.716.078-.921-.081-.302-.234-.456.025-.671.02-.23-.006-.483.108-.693-.08-.088-.078-.156-.173-.301-.157-1.211.141-2.383-.359-3.588-.234-.921.095-1.768-.361-2.699-.27-.923.09-1.862.009-2.794.028a.64.64 0 0 1-.506-.247.513.513 0 0 1-.509.241c-.571-.102-1.176.185-1.738-.224-.186-.135-.553-.008-.836-.024-.454-.026-.894.218-1.353.065-.488.414-.9-.2-1.412-.093a9.74 9.74 0 0 1-1.939.031 1.422 1.422 0 0 0-.363.005c-.241.065-.681-.212-.697.197-.023.549.49.282.731.264.582-.043 1.184.219 1.762-.147.129-.083.436.172.713.183.462.019.882.449 1.395.002.254-.22.524.283.857.227.943.013 1.885.093 2.817.238.538-.017.885.406 1.349.567.241.084.084 1.134-.202 1.28a1.876 1.876 0 0 1-.951.356c-.972-.032-1.954.068-2.914-.042a3.832 3.832 0 0 0-1.505.032c-.479-.437-1.064-.204-1.602-.236-.565-.034-1.134-.008-1.701-.008h-1.703c-1.956.004-3.893-.413-5.857-.247a1.897 1.897 0 0 0-1.323.378 1.859 1.859 0 0 1-1.293.36 4.564 4.564 0 0 1-2.088-.248c-1.56.172-3.085-.344-4.641-.238-.34.023-.727-.152-1.011.215-.047.061-.248.062-.345.017a9.307 9.307 0 0 0-3.185-.238c-.379-.041-.775.124-1.131-.226-.189-.186-.351.246-.613.234a12.664 12.664 0 0 0-1.458 0 3.58 3.58 0 0 0-1.625.195 1.29 1.29 0 0 1-1.261-.089.574.574 0 0 0-.75.023c-.313.222-.747-.02-1.032.136-.223.123-.244.563-.546.696a3.73 3.73 0 0 1-1.865.513c-.404-.034-.876-.208-1.255.188-.112.116-.299.032-.406-.112a.35.35 0 0 0-.44-.086 5.24 5.24 0 0 1-2.46.222c-.808.045-1.622-.019-2.43.021-.455.023-.964-.209-1.368.224a.385.385 0 0 1-.352.001 2.104 2.104 0 0 0-1.996-.006c-.239.046-.484.05-.725.013-1.945 0-3.891-.011-5.836.007a2.663 2.663 0 0 0-1.614.217.717.717 0 0 1-.675-.062c-.224-.197-.453-.104-.669-.169-.505-.152-.94.408-1.346.22a2 2 0 0 0-1.366-.189c-.898.249-1.822.087-2.694.264a1.754 1.754 0 0 1-1.393-.037.416.416 0 0 0-.356-.001c-.746.432-1.557.169-2.335.233a2.59 2.59 0 0 1-.847-.011c-.295-.078-.498.322-.704.151-.321-.267-.405.27-.71.128a2.166 2.166 0 0 0-.841-.021h-.851a7.311 7.311 0 0 1-.85-.007c-.372-.043-.595.337-.999.271-.32-.052-.714-.16-1.011.191-.07.082-.312.056-.464.026a3.637 3.637 0 0 0-2.232.002c-.116.025-.248-.02-.363.007-.407.096-.737-.5-1.09-.204-.343.285-.681.148-1.02.199-.302.044-.635-.114-.899.201-.07.084-.303.025-.46.045-.42.052-.76-.545-1.29-.038-.281.268-.929-.138-1.356.205-.33-.231-.818-.062-1.09-.451a1.353 1.353 0 0 0-1.72-.345 2.474 2.474 0 0 1-.79.136c-1.216.011-2.432-.011-3.647.015a2.016 2.016 0 0 0-1.045.121c-.223.12-.6-.271-1.004.039-.233.179-.697.045-1.054.077a2.394 2.394 0 0 0-1.049.111c-.251.135-.504-.213-.82-.125a.711.711 0 0 1-.838-.317c-.045-.07-.09-.135-.258-.073-.98.184-1.981.237-2.976.158a15.261 15.261 0 0 0-3.928.201c-.449-.351-.99-.09-1.458-.222-.36-.1-.53.55-.836.18-.36-.436-.545.141-.812.078a1.976 1.976 0 0 0-1.38.005 6.619 6.619 0 0 0-2.818-.231c-.334-.022-.71-.145-1.014.207-.088.101-.417.087-.58.011-.392-.183-.752-.41-1.135-.007-.39-.525-.762-.041-1.145.015-.198.029-.412-.03-.605.013-.287.065-.562-.273-.707-.163-.24.14-.522.193-.796.15-.215.012-.433-.367-.65.005-.855-.454-1.791-.14-2.722-.273v-1.088a5.386 5.386 0 0 1 2.604-.341c1.216-.001 2.432.014 3.648-.009.377-.007.773.135 1.14-.205a.753.753 0 0 1 .79.055.617.617 0 0 0 .842-.011c.267-.198.624-.067.939-.068 2.999-.009 5.998-.006 8.997-.006h1.01c-.256-.363-.516-.228-.733-.236a9.012 9.012 0 0 0-1.699.013c-.514.08-1.003-.376-1.504-.02a3.145 3.145 0 0 0-1.845-.236.56.56 0 0 1-.595-.461c-.047-.292-.149-.684.22-.865a1.96 1.96 0 0 1 1.057-.391c.404.036.81.036 1.215 0 .418-.038.883.187 1.252-.212a.238.238 0 0 1 .32.047.84.84 0 0 0 1.01.142 5.723 5.723 0 0 1 2.102-.213c1.034.066 2.072.016 3.095-.15.18-.058.54.133.835.166.23.026.406-.463.678-.042a.49.49 0 0 0 .55-.047.55.55 0 0 1 .646-.138c.072.032.136.08.188.14a.564.564 0 0 0 .573.059c1.329-.26 2.688-.336 4.038-.226.545-.038 1.145.143 1.511-.464.34.199.655-.47 1.002-.03.257-.43.75-.126 1.086-.37-.569.059-1.07-.552-1.664-.116a.152.152 0 0 1-.119.001c-1.028-.437-2.047.192-3.086.026-.429-.068-.963-.22-1.36.213-.037.041-.157.009-.238.005-.383-.019-.668-.449-1.18-.077-.322.233-.933.07-1.415.077a5.452 5.452 0 0 0-1.332.019 15.677 15.677 0 0 1-3.917.217c-.474.01-.85.348-1.362.276-.396-.056-.886-.216-1.23.211-.476-.332-.948.067-1.424.009-1.52-.185-3.003.346-4.52.24-.436-.03-.777.321-1.238.26a1.867 1.867 0 0 0-1.13.195c-.427.214-.973-.047-1.488-.016-.597.037-1.123.316-1.72.305a2.648 2.648 0 0 0-1.73.22c-.109.076-.319.027-.479.008a13.72 13.72 0 0 0-3.176.305 13.075 13.075 0 0 0-4.123.67c-.904.039-1.805.134-2.697.285a5.542 5.542 0 0 0-2.247.401c-.393.169-.813.025-1.253.206-.456.187-1.125.077-1.546.357-.455.303-1.05-.016-1.401.454-.79-.311-1.36.335-2.035.45-.763.129-1.443.461-2.177.644-.14.057-.284.099-.433.124-.43-.054-.866.02-1.254.213a1.37 1.37 0 0 1-.933-.032.389.389 0 0 1-.116-.733 11.011 11.011 0 0 1 3.07-1.389c.151-.022.295-.078.422-.163a8.556 8.556 0 0 1 2.467-.778c.369-.098.706-.273 1.076-.356.1-.022.144-.212.292-.167.576.174 1.065-.192 1.592-.289.393-.073.906.004 1.195-.426 1.234.123 2.261-.645 3.453-.802a9.944 9.944 0 0 0 2.637-.641c.313-.084.642-.093.958-.025.337.036.519-.333.875-.258.957.202 1.868-.331 2.814-.218.319.038.46-.548.833-.153.237.25.4-.218.696-.128.321.033.644.042.966.028.451.062.773-.33 1.24-.274.362.044.812.201 1.12-.216.029-.038.164.019.235-.009.318-.124.519.519.945.086.187-.191.678-.084 1.13-.121-.148-.663.358-1.235.244-1.923-.014-.084.11-.192.172-.287.26-.402.193-.684-.205-.639-.367.041-.643-.233-1.047-.114-.249.073-.519-.551-.986-.403a2.176 2.176 0 0 0-1.622-.506c-.232.002-.678-.256-.665-.34.075-.491-.37-.375-.547-.489a1.102 1.102 0 0 1-.663-1.305c.046-.173.133-.332.255-.463a2.814 2.814 0 0 1 1.592-1.43c-.678-.035-1.055-.397-1.56-.329a.397.397 0 0 1-.401-.201c-.267-.412-.776-.268-1.136-.506-.222-.148-.678.095-.846-.271a5.236 5.236 0 0 1-.366-1.183 1.706 1.706 0 0 1 .801-1.243 9.425 9.425 0 0 1 3.003-.953 3.527 3.527 0 0 0 1.197-.348 8.908 8.908 0 0 1 2.42-.605 8.368 8.368 0 0 1 2.202-.316c.541.027 1.032-.405 1.617-.481.473-.118.927-.3 1.35-.542.1-.045.145-.195.297-.163.803.169 1.54-.246 2.323-.263a4.015 4.015 0 0 0-.329-2.699c-.115-.331.13-.729-.24-.997-.309-.224.405-.519-.032-.755a14.137 14.137 0 0 0-1-3.476c.16-.501-.29-.978-.015-1.509.194-.375-.408-.679-.229-1.107-.275-.188-.244-.468-.249-.751a.843.843 0 0 1 .23-.743c-.297-.125-.165-.508-.42-.686-.13-.09.021-.262.073-.407a1.75 1.75 0 0 0-.07-1.328c-.291-.729-.916-1.492-.344-2.374-.33-.537-.027-1.181-.231-1.686-.158-.391-.057-.823-.236-1.112-.231-.376.05-.613.035-.912-.034-.636-.273-1.243-.254-1.887.003-.119-.175-.243-.25-.16-.399.437-.772.029-1.145-.017-.605-.075-1.11.342-1.726.268a3.828 3.828 0 0 0-1.803.032 2.66 2.66 0 0 1-1.375.173c-.853-.109-1.622.306-2.455.272a10.476 10.476 0 0 0-2.427.018 44.33 44.33 0 0 1-6.835.21c-1.052.048-2.108-.012-3.161.014-1.032.026-2.013-.365-3.063-.269-1.005.092-2.025.016-3.038.024-.212.002-.367-.15-.528-.185-.561-.121-1.1-.47-1.7-.298-.471.135-.777-.391-1.24-.254-.47.139-.712-.429-1.015-.444a7.785 7.785 0 0 1-2.405-.979c-.566-.214-.776-.787-1.288-1.002-.483-.204-1-.337-1.46-.583-.572-.305-.647-.954-.75-1.498a3.452 3.452 0 0 1 .185-1.607c.241-.97.412-1.956.51-2.951.029-.211.039-.423.233-.508.369-.162-.004-.436.118-.605.14-.225.29-.441.454-.649.287-.306-.132-.411-.057-.567.227-.475.493-.931.744-1.395.892-.246 1.136-1.141 1.65-1.741a12.697 12.697 0 0 0 1.447-2.189c.185-.342.62-.228.646-.554.09-.579.406-1.099.877-1.447a14.612 14.612 0 0 0 2.415-3.715c.172-.22.358-.428.556-.624.267-.323.754-.515.657-1.066a.131.131 0 0 1 .034-.104 19.096 19.096 0 0 0 1.738-2.19c.518-.549.912-1.189 1.434-1.731.313-.325.213-.918.683-1.171-.042-.405.32-.545.542-.739.213-.187.088-.661.576-.63.098.006-.256-.402.104-.592.163-.086.48.015.503-.373.014-.239.258-.447.233-.753-.017-.21.21-.192.365-.176.251.025.391-.063.35-.329a.53.53 0 0 1 .233-.514c.436-.335.748-.806.886-1.339.038-.168.023-.599.478-.526.094.015.26-.192.336-.328.585-1.034 1.466-1.864 2.004-2.937.097-.193.125-.471.326-.592 1.283-.771 1.548-2.316 2.523-3.329.16-.167.228-.551.5-.545.41.009.101-.52.507-.528.388-.008.257-.274.094-.489-.13-.172-.38-.158-.487-.271-.18-.188-.445-.14-.606-.327a5.897 5.897 0 0 0-1.672-1.233 4.027 4.027 0 0 1-1.379-1.088.699.699 0 0 0-.258-.254 12.978 12.978 0 0 1-2.051-1.444 13.969 13.969 0 0 0-2.204-1.443 1.034 1.034 0 0 1-.459-.488 3.197 3.197 0 0 0-2.448-1.522c-.258-.032-.174-.13-.212-.234a3.549 3.549 0 0 0-1.476-1.535 6.45 6.45 0 0 1-.48-.628c-.217-.268-.583-.427-.535-.864a.663.663 0 0 0-.317-.069c-.248.037-.491-.153-.476-.27.072-.56-.674-.673-.608-1.199.026-.203-.148-.306-.266-.367-.277-.145-.613-.21-.463-.647-.712-.344-.396-1.373-1.134-1.7-.034-.015-.079-.057-.079-.086.001-1.074-.836-1.762-1.223-2.656-.03-.07-.148-.115-.154-.178-.102-1.122-.965-1.96-1.131-3.061-.067-.445-.526-.797-.25-1.341.115-.227-.24-.341-.381-.501-.164-.186-.356-.316-.037-.534.046-.031.064-.297-.073-.306-.492-.031-.446-.38-.394-.673.145-.808-.335-1.535-.26-2.334.026-.283-.553-.449-.397-.599.361-.346-.22-.419-.12-.712.06-.173.369-.359.174-.567a.702.702 0 0 1-.123-.676 4.532 4.532 0 0 0-.266-1.602c-.037-.23-.445-.412-.087-.69.218-.17-.357-.367.028-.518a4.272 4.272 0 0 0-.138-2.436c-.178-.316.323-.41.086-.692-.173-.206.337-.452-.021-.771-.27-.24-.073-.687-.096-1.04a6.088 6.088 0 0 1 .001-.972c.045-.463-.165-.96.17-1.388a.28.28 0 0 0 .047-.082c-.587-.484-.273-1.08-.232-1.655a8.61 8.61 0 0 0-.013-1.82c-.054-.38.44-.663.24-.848-.338-.314.039-.46.031-.677.058-.338.067-.682.028-1.023a1.608 1.608 0 0 1 .219-1.464c.243-.295.323-.493.007-.795a.595.595 0 0 1-.002-.58c.556-.67.368-1.54.654-2.287.113-.503.152-1.02.114-1.534.548-.208.303-.871.677-1.179a4.32 4.32 0 0 1 .512-1.978c.177-.479.051-1.231.86-1.324a5.1 5.1 0 0 1 .765-1.353c.028-.036-.247-.175-.128-.238.626-.333.57-1.095 1.02-1.536.391-.384.71-.844 1.114-1.212.405-.37.786-.851 1.45-.735.549-.146 1.199-.164 1.217-.972.572-.241 1.19-.42 1.459-1.073.693-.172 1.085-.798 1.683-1.11.129-.067.364.005.442-.083.924-1.032 2.143-.541 3.242-.648a.458.458 0 0 1 .432.348c-.004.276.287.376.281.62-.154-.028-.279.11-.232.185.227.502.307 1.058.231 1.604.004.154-.04.361.16.388.18.025.526.099.534-.099.018-.475.315-.355.575-.378.176-.015.431.093.434-.24.262-.045.428-.298.75-.26.386.042.776-.025 1.126-.194.622-.277 1.125.343 1.699.518.052.016.07.21.07.322-.023.466.054.93.225 1.364a1.606 1.606 0 0 1 .057 1.506c-.228.446.096 1.08-.265 1.588-.103.145.152.35.258.248.324-.31.821-.138 1.14-.513a1.285 1.285 0 0 1 1.138-.444c.175.022.281-.082.422-.16a6.034 6.034 0 0 1 2.311-.55 1.34 1.34 0 0 1 1.51 1.495c-.042.812-.263 1.618-.36 2.423-.115.963-.831 1.616-1.044 2.486a10.29 10.29 0 0 1-1.753 2.91c-.16.265-.24.57-.23.88-.392.144-.597.505-.882.77-.174.161-.154.325.092.45.702.249 1.374.574 2.005.968-.027.155.066.222.193.242.419.064.434.239.39.66-.028.265.258.614.26 1.01a6.587 6.587 0 0 1-.102 1.095 5.89 5.89 0 0 1-.108 1.296c-.11.262-.015.313.092.444-.62.237-.488 1.1-1.11 1.33-.07.027-.179-.017-.231.023a1.105 1.105 0 0 0-.34.342c-.148.295.273.848-.424.9-.414.03-.142.745-.668.692-.04-.004-.094.107-.14.165l-.021 1.63a6.693 6.693 0 0 1-.178 2.221c-.31.719.157 1.513.302 2.27.019.097.2.183.134.303-.47.867.235 1.485.53 2.135.148.476.24.967.277 1.463.143.638.486 1.182.686 1.79.237.599.558 1.16.955 1.666.271.39.731.665.936 1.077.207.416.401.739.87.837.004.41.51.407.6.697.106.344.392.493.597.724.25.302.599.505.985.573.471.172.88.483 1.17.891.468.402.986.74 1.542 1.007.43.38.937.66 1.488.822.3.078.571.237.785.46a.538.538 0 0 0 .96-.306c.073-.561.511-.846.735-1.282.19-.37.666-.594.51-1.13a.207.207 0 0 1 .085-.233.208.208 0 0 1 .082-.032c.797-.243 1.136-.992 1.483-1.588a23.324 23.324 0 0 1 2.353-3.52c.271-.318.065-1.002.763-.999.194-.406.41-.803.574-1.221.08-.205.247-.305.374-.452.331-.384.804-.656.943-1.191.125-.482.647-.73.674-1.315a1.454 1.454 0 0 1 .628-.93 8.007 8.007 0 0 0 1.753-2.188c.552-.764.988-1.613 1.473-2.425.038-.064.075-.196.099-.193.841.104.869-.705 1.032-1.12.14-.352.598-.264.609-.714.007-.284.405-.52.582-.835.202-.36.408-.723.618-1.082.152-.26.172-.61.466-.784-.197-.487.372-.335.523-.608.643-1.164 1.448-2.238 2.132-3.381.154-.225.328-.436.518-.631.264-.232.47-.522.603-.847a7.094 7.094 0 0 1 1.3-2.01 16.74 16.74 0 0 0 1.993-2.948c.113-.277.444-.46.65-.707a.39.39 0 0 0 .026-.32.218.218 0 0 0-.226-.119.219.219 0 0 0-.085.032 2.928 2.928 0 0 1-2.238.477c-.688.005-1.377.005-2.066 0a6.098 6.098 0 0 1-2.751-.41c-.435-.208-1.072-.124-1.56-.335-.5-.178-.98-.41-1.43-.692-.504-.36-1.083-.685-1.623-1.024-.205-.129-.658-.07-.643-.545.009-.262-.596-.04-.492-.511.019-.087-.202-.23-.317-.343a3.635 3.635 0 0 1-1.373-2.308c-.054-.174-.19-.309-.258-.502a2.867 2.867 0 0 1-.229-1.408c.045-.647.042-1.296-.01-1.943a5.462 5.462 0 0 1 .135-1.346c.075-.454.298-.87.635-1.183a.565.565 0 0 0 .23-.394c.025-.306-.172-.82.124-.876.48-.091.284-.376.362-.6.049-.14.186-.329.304-.346.44-.063.32-.422.456-.648.123-.204.063-.642.534-.653.388-.01-.148-.808.508-.713.157-.413.776-.098.798-.338.051-.557.587-.43.821-.736a2.943 2.943 0 0 1 1.81-.87c.112-.021.228.02.328-.093.713-.813 1.786-.8 2.705-1.087a8.226 8.226 0 0 1 2.197-.317c.998.118 1.986.307 2.956.565.43.047.822.543 1.21.862.266.284.581.52.93.695.343.126.703.25.791.742.04.22.351.45.592.565.53.268.988.658 1.336 1.138.271.275.575.517.903.72.57.448.43.46.779-.186.342-.635.257-1.433.86-1.967.277-.245-.096-.801.33-1.07-.136-.447.21-.653.459-.903.685-.69 1.372-1.379 2.062-2.065.172-.172.438-.315.5-.52.239-.794.943-.785 1.537-.97.576-.18 1.174-.257 1.75-.47a5.214 5.214 0 0 1 3.08-.059c.614.084 1.21.273 1.838.31a1.83 1.83 0 0 1 1.348.526c.15.176.345.162.513.244.706.331 1.341.798 1.866 1.375.271.257.556.5.853.726.256.233.12.792.658.799.142 1.026 1.272 1.688 1.047 2.849.537.524-.063 1.344.486 1.865-.522.703.436 1.545-.222 2.27a.822.822 0 0 0 .005.81c.218.25-.011.439.065.635a.72.72 0 0 0 .136.173c-.462.325-.356.878-.438 1.312a11.03 11.03 0 0 1-.697 1.541c-.204.49-.471.953-.794 1.375-.577.77-1.245 1.47-1.987 2.083-.338.24-.731.391-1.143.44a8.54 8.54 0 0 1-2.896.672 27.124 27.124 0 0 0-2.794-.023 2.852 2.852 0 0 1-1.608-.217c.464.355.82.832 1.028 1.378.035.148.317.218.452.322.542.329.976.81 1.248 1.382a1.023 1.023 0 0 0 .655.696c.206.066.375.307.516.502.175.243.458.277.679.425-.269.188-.199.35.028.517a21.557 21.557 0 0 1 2.821 2.293c.475-.061.276.486.568.63.196.096.595.064.508.485.708.25.893 1.11 1.601 1.371a.545.545 0 0 1 .31.346 1.24 1.24 0 0 0 .649.819 11.145 11.145 0 0 1 2.269 2.702c.135.192.29.37.462.53a39.227 39.227 0 0 1 3.154 3.45 4.684 4.684 0 0 1 1.241 1.782c.121.445.63.391.717.655.193.589.777.8 1.048 1.272.254.445.7.66 1.034 1.005.223.21.466.398.726.56.383.264.937.542.875 1.192-.014.144.093.172.206.232.559.295 1.314.41 1.261 1.31-.006.111.171.113.282.15.533.172.838.661 1.265.983.452.307.878.65 1.275 1.025.361.475.674.984.934 1.52.169-.898.934-1.058 1.351-1.582.376-.472.886-.82 1.231-1.342.21-.317.3-.75.674-.936a1.81 1.81 0 0 0 .687-.667c.273-.32.472-.695.585-1.1.612.018.507-.565.549-.836.069-.453.669-.378.641-.817-.029-.47.365-.506.642-.701.184-.13.163-.575.345-.676.412-.226-.112-.982.601-.964.185-.327.114-.786.515-1.002.277-1.266 1.361-2.093 1.772-3.278.068-.178.165-.344.289-.49.207-.273.798-.464.229-.932-.001-.002.041-.053.061-.083.716-1.07 1.068-2.317 1.683-3.442.319-.468.558-.986.707-1.534.117-.648.617-1.188.804-1.85.073-.259-.157-.59.264-.798.31-.153-.055-.647.191-.87.328-.297-.02-.755.26-.984.295-.242.018-.607.314-.865.233-.202.109-.623.062-.923-.057-.363.331-.524.269-.876-.014-.904.063-1.807.229-2.695.014-.621.631-1.243.009-1.866.479-.563.186-1.228.229-1.845.047-.687.047-1.377-.002-2.065-.026-.379.243-.748.119-1.06a2.936 2.936 0 0 1-.095-1.171c0-.476-.477-.884-.239-1.351.21-.414.002-.765-.015-1.144a3.46 3.46 0 0 1-.223-1.833 1.619 1.619 0 0 0-.263-1.574ZM52.143 41.43c-.057-.256.552-.404.144-.675-.158-.106-.537-.256-.63.189a1.817 1.817 0 0 0-1.316.39 2.57 2.57 0 0 1-1.565.617 1.667 1.667 0 0 0-1.19.562c-.503.72-1.435.868-1.895 1.592-.388-.036-.746.603-1.157.053-.822-.12-.628-.754-.666-1.286-.026-.36.08-.533.46-.47.135.024.262-.039.269-.16.037-.712.743-1.165.728-1.885a.708.708 0 0 1 .246-.511c.185-.216.61-.359.292-.77.509-.329-.105-.598-.056-.913.019-.127-.332-.176-.076-.45a.788.788 0 0 0-.014-.884.826.826 0 0 1-.743.232c-.054-.003-.105.13-.174.154-1.016.42-1.966.984-2.82 1.675-.423.307-1.035.478-1.254 1.014a1.195 1.195 0 0 1-.786.79c-.22.062-.205.202-.2.36.003.157.026.302-.181.381-.51.233-1.033.439-1.565.617-.239.063-.53-.136-.829-.155a.722.722 0 0 1-.497-1.147 9.326 9.326 0 0 0 1.293-1.509c1.093-.443 1.327-1.534 1.74-2.446.133-.292.47-.62.423-.764-.09-.32-.14-.65-.147-.983-.004-.062-.08-.119-.092-.136a9.056 9.056 0 0 0-1.939 1.201 9.736 9.736 0 0 0-2.912 2.589c-.2.356-.5.646-.861.835-.514.182.06 1.008-.662.947a11.7 11.7 0 0 1-.613 1.324c-.283.412-.59.806-.92 1.181.392.41-.139.62-.195.932-.06.34-.4.58-.315.967.046.21-.069.357-.197.527a2.476 2.476 0 0 0-.526 1.6c.007.349-.075.692-.237 1a4.404 4.404 0 0 0-.5 1.981c.004.278.08.64-.06.814-.178.22-.178.501-.38.717-.15.158.019.617-.131.773-.32.331.21.411.12.707-.085.286-.373.48-.3.866.07.368.19.843-.099 1.154-.42.452.365.648.15 1.084-.126.256.006.635-.337.833-.153.088-.271.32-.165.398.519.377-.05 1.048.417 1.417-.525.358.295.807-.126 1.297-.28.326.023 1.023-.216 1.523.183.898.235 1.818.155 2.73.02.23-.432.38-.2.605.329.319.216.687.185 1.016.013.386.102.765.262 1.116.01.037.257 1.25.24 1.278-.255.42.084.843-.003 1.257-.094.443.612.23.466.494-.218.392.07.69.025 1.028-.076.487-.036.984.117 1.452.183.328.298.688.34 1.06-.052.543.373.974.263 1.48-.135.62.48.853.625 1.33.068.179.105.367.11.558.033.3.103.596.208.88.053.307.203.59.428.805.268.275-.095.726.26.985-.068.627.494.995.655 1.56.206.68.525 1.32.944 1.895.377.57.707 1.17.989 1.794.242.471.478.988 1.094 1.107.038.452.456.622.684.933.18.248.79.148.58.71.285.24.591.46.85.724.664.675 1.72.906 2.124 1.872.52.15.981.333 1.022 1 .008.14.233.273.47.299.209.022.54.165.574.31.155.666.77.656 1.187.942.287.152.535.368.726.63.322.446.733.82 1.206 1.098.627.36 1.119.914 1.402 1.578a29.609 29.609 0 0 1 2.8 2.224c.38-.543.719-1.113 1.012-1.707.221-.668.797-1.055 1.185-1.585.132-.182.23-.386.293-.601.196-.428.512-.789.91-1.04a.765.765 0 0 0 .253-.258c.323-.774.934-1.372 1.274-2.146a4.39 4.39 0 0 1 .982-1.286c.205-.2.54-.202.484-.654-.03-.236.31-.357.577-.477.325-.146-.01-.601.185-.873a.533.533 0 0 1 .172-.17c.802-.408.984-1.277 1.435-1.943.097-.144.068-.541.096-.54.568.002.404-.782.985-.846.544-.06.266-.86.706-1.108.096-.054.25-.028.321-.097.166-.16-.272-.453.11-.61.032-.014.055-.277-.088-.306-.488-.1-.594-.665-1.114-.798a2.272 2.272 0 0 1-1.73-1.066c-.094-.197-.403-.168-.595-.325-.12-.1-.42-.107-.467-.286a.58.58 0 0 0-.765-.48c-.247.046-.344-.153-.496-.273a10.97 10.97 0 0 0-2.27-1.802 1.083 1.083 0 0 1-.429-.424c-.307-.445-.65-.864-1.024-1.254-.28-.322-.386-.767-.744-1.03.184-.74-.391-1.074-.805-1.488a.467.467 0 0 1-.17-.42c.04-.327.03-.593-.405-.693-.087-.02-.011-.53-.111-.772-.082-.198-.405-.126-.491-.512-.192-.864-.313-1.734-.446-2.604a1.327 1.327 0 0 0-.215-.77A1.63 1.63 0 0 1 48 65.869c.036-.32.138-.757-.021-.948-.347-.417-.136-.847-.219-1.26-.052-.26.395-.464.027-.796a.809.809 0 0 1 0-.801c.357-.332-.018-.546-.04-.795.02-.662.104-1.322.253-1.968a2.97 2.97 0 0 1 1.196-2.162c.185-.155.465-.325.493-.518.224-.77.617-1.48 1.15-2.08.075-.116.125-.24.08-.326a5.427 5.427 0 0 1-.266-1.964c-.024-.16-.34-.521-.54-.343-.442.395-.92.164-1.377.212a.784.784 0 0 0-.625.266c-.468.593-1.074.348-1.642.22-.136-.03-.24-.199-.358-.304.372-.276-.205-.578-.034-.733.363-.327.446-.83.824-1.13.403-.245.703-.63.841-1.081a.654.654 0 0 1 .355-.577.954.954 0 0 0 .633-.943c.006-.267.107-.355.358-.33.155.016.343.041.374-.177.044-.303.283-.52.295-.87.007-.187.594-.296.44-.751.282-.18.188-.612.5-.763.37-.18.081-.762.347-.803.66-.1.318-.556.346-.83.04-.23.15-.442.317-.606a1.658 1.658 0 0 0 .434-1.277Zm112.845.487c.05-.279.042-.564-.023-.84-.148-.293.48-.377.095-.702a.634.634 0 0 1-.024-.773c.393-.313-.094-.446-.07-.687.064-.642.022-1.294.022-1.942.443-.298.169-.594 0-.893-.168-.296-.448-.594 0-.892a13.051 13.051 0 0 0-.089-2.025c-.087-.336-.03-.807-.188-1.053-.294-.455.061-.791.088-1.153a7.713 7.713 0 0 0-.034-.775c-.006-.272-.206-.412-.26-.63-.064-.256.268-.345.253-.628-.04-.727.006-1.458-.023-2.186a1.636 1.636 0 0 0-.116-.927c-.115-.19.259-.53-.091-.864-.164-.156.374-.483.221-.846-.043-.104.005-.303-.053-.333-.341-.177.112-.4-.03-.52-.347-.292.052-.479.05-.686a3.666 3.666 0 0 0-.144-1.875 1.259 1.259 0 0 1-.064-.698 4.214 4.214 0 0 0-.493-2.636c0-.08.03-.179-.005-.239a3.492 3.492 0 0 1-.78-1.62c-.006-.14-.31-.16-.385.003-.279.61-.52 1.236-.776 1.856a3.32 3.32 0 0 1-.351 1.184 15.465 15.465 0 0 0-.862 3.742 1.118 1.118 0 0 1-1.496 1.148.547.547 0 0 1-.447-.481 1.74 1.74 0 0 1 .017-.834c.144-.293-.468-.39-.107-.703.072-.061-.084-.372.071-.603.215-.32-.264-.546-.223-.854.072-.543-.571-1.058-.165-1.545.277-.333-.19-.371-.085-.567-.124-.226-.046-.582-.138-.694a2.392 2.392 0 0 1-.381-.942c-.123-.404-.045-.997-.671-1.161-.092-.024.03-.558-.347-.169a9.482 9.482 0 0 0-1.868 2.722c.028.246-.435.391-.218.602.272.265.121.367-.057.527-.117.104-.31.268-.199.382.354.365-.184.68-.012 1.013-.395.162.068.529-.209.814a1.176 1.176 0 0 0-.004 1.036c.147.315.143.662.314.953.185.48.228 1.002.123 1.505-.006.334-.538.219-.671.535a.245.245 0 0 1-.283.173c-.02-.364-.301-.207-.486-.243-.149-.033-.438.073-.43-.084.034-.638-.351-1.209-.286-1.824a2.965 2.965 0 0 0-.5-1.74 6.951 6.951 0 0 0-2.096-3.792c-.072.34-.689.718-.106 1.225-.473.735-.116 1.553-.23 2.323.045.472-.135.972.089 1.413.206.466.228.991.062 1.472-.021.086-.103.107-.069.261.165.764.141.77-.536 1.078-.846.386-1.378.238-1.614-.625a16.112 16.112 0 0 0-.3-1.008 44.416 44.416 0 0 0-1.305-3.329c-.444-1.022-.332-2.322-1.429-3.04-.037-.025.018-.163-.009-.234a5.245 5.245 0 0 0-.969-1.824.552.552 0 0 0-.542-.48c-.065 0-.293.053-.104.186.37.262-.205.338-.083.537-.518.164-.1.626-.289.905a1.68 1.68 0 0 0-.443 1.032.565.565 0 0 1-.158.546c-.162.132.309.324-.022.53-.098.06.241.238.188.468-.077.333.133.716-.219 1.013a.459.459 0 0 0-.018.454c.442.453.204.997.218 1.491.094.916.282 1.82.56 2.698.087.373.456.695.428 1.155.068.956.279 1.896.624 2.79.209.742.326 1.507.348 2.278-.036.485-.03.972.017 1.456.042.37.063.742.063 1.114.014.283.135.876.184 1.178.041.254-.37.349-.147.582.244.253.1.419-.092.59.344.36.195.81.212 1.226.02.485-.15 1.05.045 1.438.232.464-.118.765-.072 1.16.047.398.231.885-.157 1.256.35.428.133.827-.048 1.238a.416.416 0 0 0 .002.354c.419.434.032.861-.036 1.26-.055.321-.364.567.008.919.113.107.051.477-.03.689-.08.208-.296.36-.434.55-.147.2.422.286.09.574-.119.103.168.38-.114.605a1.25 1.25 0 0 0-.225 1.155c.113.587-.533.992-.366 1.587-.742.813-.816.976-.851 1.697-.013.266.105.558-.162.785-.283.24.191.806-.29.902-.56.11-.048.714-.472.826-.077.487-.257.951-.528 1.362-.176.414-.683.69-.498 1.26.057.175-.169.249-.265.37-.147.184-.432.36-.434.54-.007.743-.649 1.195-.777 1.878-.125.666-.822 1.128-.712 1.896.008.053-.082.13-.14.18a5.914 5.914 0 0 0-1.324 1.758c-.223.351-.416.72-.577 1.104-.152.441-.177.996-.831 1.107-.235.04-.214.413-.361.558-.217.215-.119.446-.17.668-.055.238-.45.015-.498.385-.064.498-.753.623-.752 1.28 0 .488-.587.79-.914 1.173-.246.31-.518.6-.813.864-.349.288-.372.85-.771 1.01-.755.303-1.104 1.022-1.696 1.483a.31.31 0 0 0-.163.306.308.308 0 0 0 .226.263c.391.15.446.645.762.749.431.142.472.558.752.782.323.343.687.644 1.084.898.397.197.705.538.86.953.127.248.311.462.537.625.329.324.636.67.918 1.034.374.38.768.74 1.181 1.078.022.02.015.073.022.111.089.428.613.547.711.919a1.354 1.354 0 0 0 .747.879c.36.16.448.526.789.681a.996.996 0 0 1 .671 1.134.353.353 0 0 0 .217.39c.606.255.822.88 1.254 1.301.55.538.909 1.272 1.464 1.805.66.634.775 1.768 1.874 2.002.216.046.236.385.362.561.44.613.641 1.421 1.396 1.787.03.147-.093.37.083.435.627.231.939.031 1.133-.678.548-.27.852-.913 1.539-.986a.473.473 0 0 0 .341-.303c.038-.558.547-.597.863-.84a5.966 5.966 0 0 0 1.025-1.01c.351-.44.804-.798 1.186-1.216.282-.309.739-.508.662-1.072-.016-.117.235-.364.389-.388.233-.037.469-.192.463-.31-.034-.662.645-.88.808-1.374a2.3 2.3 0 0 1 .856-1.215c.449-.31.281-1.033.916-1.2.397-.105.04-.6.34-.827.288-.218.679-.474.742-.772.089-.427.678-.556.554-.981-.151-.52.719-.26.503-.754.367-.342.633-.779.767-1.262.155-.492.486-.91.931-1.172-.117-.64.619-.896.668-1.418.059-.637.689-.97.753-1.505.052-.44.474-.262.518-.503.025-.281.03-.565.016-.848.002-.069.064-.197.09-.195.634.055.22-.595.504-.747.416-.222.362-.674.491-1.014.213-.563.455-1.109.709-1.651.273-.582.05-1.327.599-1.817-.005-1.091.493-2.1.524-3.186.01-.343-.138-.734.24-.992-.039-.763.713-1.434.254-2.255a.472.472 0 0 1 .048-.446c.385-.27-.309-.526.018-.774.323-.246.116-.6.16-.903.034-.237-.064-.515.024-.72a6.917 6.917 0 0 0 .47-2.964c-.005-.203-.086-.495.015-.591.311-.297.08-.794.445-1.04-.319-.32-.21-.726-.215-1.104.034-.728.026-1.457-.022-2.184-.1-.776.378-1.453.262-2.21 0-.364.013-.728-.003-1.091-.016-.343.07-.68-.209-1.017-.119-.144.149-.53-.005-.876a3.4 3.4 0 0 1-.071-1.064c-.003-.033-.129-.058-.198-.086ZM59.682 88.856c-.458.579-.905 1.169-1.38 1.733a.553.553 0 0 0-.154.619c.076.299-.52.248-.714.505-.069.09-.13.187-.183.288-.261.503-.414 1.097-1.09 1.239-.037.007-.09.141-.075.157.398.406-.198.548-.225.85-.039.424-.44.627-.67.936-.385.516-.945.951-.863 1.71.026.237-.172.192-.319.24a1.21 1.21 0 0 0-.587.319c-.173.232-.175.62-.376.799-.242.215-.523.29-.704.67-.205.427-.503.838-.74 1.274-.224.411-.881.597-.887 1.081-.007.634-.667.741-.803 1.268-.053.205-.471.381-.606.694-.132.306-.163.697-.66.717a.567.567 0 0 0-.374.406c-.007.413-.593.457-.508.893.104.537-.55.344-.66.677-.012.035-.058.06-.067.094a5.327 5.327 0 0 1-1.159 1.704c-.407.553-.886 1.063-1.282 1.633-.613.879-1.516 1.558-1.704 2.709-.016.098-.157.177-.243.262a23.678 23.678 0 0 0-2.652 3.526c-.28.403-.758.646-.94 1.066-.444 1.029-1.263 1.812-1.735 2.808-.144.234-.32.447-.522.632-.254.242-.43.554-.504.897-.098.572-.727.965-.782 1.611-.566-.059-.387.59-.748.782-.33.235-.623.517-.87.838-.166.171-.425.334-.462.534a3.03 3.03 0 0 1-1.274 1.893c-.537.397-.548 1.268-1.343 1.395-.042.007-.093.219-.07.319a.811.811 0 0 1-.546.963.913.913 0 0 0-.627.714c-.123.814-1.099 1.138-1.066 2-.299.092-.564.27-.761.513-.3.307.232.501.087.809-.11.234-.323.347-.457.54-.222.322.315.442.198.732-.025.063-.105.155-.152.151-.408-.037-.31.251-.334.479-.023.233.133.548-.08.685-.468.3-.242.846-.45 1.153-.487.713.015 1.123.381 1.496.188.191.576.291.716.551.223.413.706.102.934.42.119.166.352.075.51.25.517.574 1.32.514 1.979.782.403.164.893.049 1.36.238.44.177.97.043 1.48.24a3.183 3.183 0 0 0 1.564.019c.584-.094 1.036.321 1.606.286.328-.02.65-.265.936-.134.377.122.778.157 1.171.102 1.46.018 2.919.032 4.377 0 1.43.103 2.868.029 4.28-.219.416-.112.98.141 1.312-.054.502-.295.86.083 1.28.038.08-.009.184.032.239-.006.617-.429 1.312-.187 1.97-.233a9.73 9.73 0 0 0 1.735-.199c.466-.117.948-.503 1.463-.282.454.117.93.117 1.384 0a9.558 9.558 0 0 0 2.939-.254c2.608.175 5.194-.381 7.802-.246.364.019.73.003 1.094.003h1.094a7.93 7.93 0 0 1 1.214.014c.347.055.633-.23.942-.127.285.095.636-.431.85.104.65-.59 1.568.112 2.24-.462.092-.079.356-.042.557.079a1.846 1.846 0 0 0 1.606.069 3.247 3.247 0 0 1 1.026-.158c1.626-.122 3.248.063 4.892-.197 1.634-.258 3.342.064 4.999-.292.41-.088.814.047 1.262-.198a1.346 1.346 0 0 1 1.363.124c.076.059.27.089.316.041.412-.419.92-.182 1.376-.201.969.066 1.941.043 2.905-.067.62-.036 1.236-.109 1.847-.218a6.18 6.18 0 0 1 1.855-.217c1.149.095 2.306.021 3.433-.219a3.796 3.796 0 0 1 1.208-.022c.388-.004.77-.461 1.097-.218.413.308.695-.042 1.033-.044a8.86 8.86 0 0 0 3.303-.223 35.482 35.482 0 0 0 5.006-.25c.304-.02.616.112.921-.131.209-.166.41.221.705.154.322-.041.647-.047.969-.016.201.032.405.028.604-.011a2.487 2.487 0 0 1 2.119-.002.628.628 0 0 0 .571-.04c.317-.327.685-.156 1.025-.183.405-.022.81-.024 1.215-.005.398.008.936-.123 1.165.083.47.423.697-.148 1.068-.11.808.068 1.62.073 2.428.015a9.878 9.878 0 0 0 2.468-.187 8.698 8.698 0 0 1 2.417-.047c.282-.001.665.108.827-.033a1.298 1.298 0 0 1 1.137-.189c.389.044.768-.016 1.137.004 2.288.128 4.545-.351 6.831-.289a8.703 8.703 0 0 0 3.547-.222c1.48.182 2.921-.299 4.398-.253 1.377.044 2.756.017 4.133.004.304-.003.624.112.911-.163a.631.631 0 0 1 .563-.06c.37.132.774.139 1.148.017a7.807 7.807 0 0 1 2.06-.018c.726.067 1.358-.325 2.09-.274 2.645.186 5.274-.4 7.923-.223a.996.996 0 0 0 .639-.23c.268-.171.408.346.744.238.183-.06.452.067.595-.025a1.16 1.16 0 0 1 1.398-.001c.128.083.353-.021.548-.106a6.272 6.272 0 0 0 1.017-.781c.279-.192.687-.211.658-.69a1.965 1.965 0 0 0-.224-1.006 9.125 9.125 0 0 0-1.086-1.971c-.53-.526-.403-1.501-1.263-1.773-.256-.712-.92-1.076-1.376-1.618a1.189 1.189 0 0 0-1.231-.552c-.596.137-.964-.436-1.5-.486.01-.523-.495-.739-.683-1.15-.351-.768-1.159-1.244-1.369-2.108-1.11-1.04-1.939-2.338-3.087-3.348a5.485 5.485 0 0 1-1.058-1.24 6.798 6.798 0 0 0-1.425-1.963c-.147-.117-.215-.374-.312-.461-.505-.451-.493-1.285-1.196-1.565-.145-.649-.88-.86-1.086-1.498a1.163 1.163 0 0 0-.815-.621c-.482-.14-.107-.773-.516-.998-.136-.075-.217-.297-.35-.324-.398-.081-.494-.374-.699-.667-.375-.538-.932-.939-.939-1.695-.001-.112-.238-.275-.431-.371a8.926 8.926 0 0 1-1.681-1.52c.035-.655-.494-.948-.86-1.347-.078-.085-.197-.149-.162-.297.128-.543-.24-.506-.571-.467-.35.04-.629-.206-.615-.424.028-.453-.279-.63-.495-.905a16.627 16.627 0 0 1-1.53-2.043c-.436-.774-1.295-1.238-1.502-2.175-.044-.2-.32-.488-.498-.494-.607-.02-.693-.569-.801-.885a2.928 2.928 0 0 0-.548-.996c-.842-1.005-1.639-2.048-2.438-3.086-.25-.324-.099-.69-.388-.952a3.3 3.3 0 0 1-1.148-1.59 1.086 1.086 0 0 0-.603-.548 2.434 2.434 0 0 1-1.226-1.345 2.061 2.061 0 0 0-.775-1.004 1.73 1.73 0 0 1-.624-.827c-.119-.288-.571-.24-.688-.67a1.936 1.936 0 0 0-.879-1.242c-.639-.3-.632-.933-.97-1.371-.074-.096-.161-.235-.258-.25-.723-.114-.814-.97-1.43-1.198-.123-.66-.841-.851-1.099-1.37a6.128 6.128 0 0 0-1.138-1.35 2.66 2.66 0 0 1-.495-.892c-.237-.61-.566-1.325-1.418-1.38-.238-.014-.179-.19-.25-.316a1.108 1.108 0 0 0-.477-.519 1.53 1.53 0 0 1-.961-1.054c-.054-.153-.032-.29-.26-.31-.354-.032-.246-.564-.701-.627a1.09 1.09 0 0 1-.712-.75c-.068-.522-.591-.282-.772-.64a2.9 2.9 0 0 0-.729-1.05c-.32-.251-.895-.365-.781-.987.002-.012-.136-.041-.202-.075a3.937 3.937 0 0 1-1.945-2.028 1.362 1.362 0 0 0-.572-.604c-.562-.31-1.033-.586-1.161-1.343-.071-.416-.545-.816-.92-1.12a6.339 6.339 0 0 1-2.201-2.783.563.563 0 0 0-.241-.26c-.459-.189-.565-.61-.775-.998a6.583 6.583 0 0 0-1.356-1.874 33.875 33.875 0 0 0-3.855-3.61c-.257-.71-.946-1.056-1.368-1.624a6 6 0 0 0-1.451-1.446c-.087-.06-.194-.196-.181-.28.07-.445-.269-.64-.512-.887a6.527 6.527 0 0 0-1.617-1.378c.026-.566-.635-.561-.809-.981-.209-.505-.772-.668-1.184-.864-.308-.146-.125-.542-.483-.544-.368-.003-.483-.388-.727-.58a2.204 2.204 0 0 1-.593-.604 2.726 2.726 0 0 0-.795-.999c-.386-.261-.443-.798-.91-.975-.447-.17-.413-.725-.777-.997a3.497 3.497 0 0 1-1.014-1.034c-.206-.38-.342-.63-.828-.66-.437-.027-.543-.748-1.035-.692-.489.055-.546-.602-1.017-.508a1.092 1.092 0 0 1-.762-.216c-.267-.147-.51.223-.857.252a7.939 7.939 0 0 0-3.37 1.813.71.71 0 0 0-.247.381c-.145.384-.574.7-.453 1.137.163.592-.701.7-.51 1.264.034.101.007.222-.17.186-.158-.031-.045.028-.052-.097-.03-.5-.229-.315-.369-.093-.178.283-.268.623-.446.906-.186.297-.545.452-.665.821-.117.357-.476.527-.703.803.371.337.01.609-.128.837-.419.685-.937 1.31-1.336 2.005-.205.356-.688.512-.724.906-.043.47-.185.74-.662.812-.12.018-.106.095-.008.168.494.364-.235.589-.109.914-.479.418-.686 1.054-1.195 1.458-.2.159-.491.3-.481.645.017.625-.434.975-.817 1.363-.285.288-.573.573-.86.86.187.74-.472.95-.85 1.325a.663.663 0 0 0-.146.55c-.004.239.05.458-.34.486-.186.014-.43.278-.505.48-.094.256-.538.496-.136.838-.247.211-.569.247-.757.636a6.705 6.705 0 0 1-1.191 1.584 13.113 13.113 0 0 0-1.697 2.328 20.52 20.52 0 0 1-2.062 3.176 3.27 3.27 0 0 0-1.186 2.057.984.984 0 0 1-.228.501c-.417.416-.798.866-1.14 1.346-.318.474-.404 1.16-1.077 1.372-.07.023-.145.203-.13.296.046.289-.18.415-.293.616-.391.699-.966 1.264-1.323 2.001a6.646 6.646 0 0 1-1.778 2.309c-.113.091-.283.17-.265.373.05.578-.584.8-.682 1.297-.175.503-.438.97-.776 1.382-.173.035-.48-.111-.471.187a1.114 1.114 0 0 1-.425.983c-.404.155-.426.567-.66.7-.509.292-.255.89-.649 1.213-.287.235-.728.44-.703.9.03.561-.654.362-.736.763-.014.12-.015.24-.004.36Zm13.795-52.424c.132.706-.046 1.153.166 1.572a6.986 6.986 0 0 0 1.884 2.87c.305.266.595.55.868.848.202.175.42.33.65.465a9.525 9.525 0 0 0 4.374 1.183c.525.033 1.053.034 1.578.001.259-.01.428.428.613.234.475-.497 1.074-.062 1.586-.304.457-.286.99-.43 1.53-.41.203-.381.85-.078.889-.388.082-.648.683-.605 1.008-.885.227-.26.486-.491.772-.686.37-.188.226-.67.416-.995.074-.21.163-.416.266-.615a1.716 1.716 0 0 0 .22-1.468 1.086 1.086 0 0 1 .263-1.17c.074-.078.364-.14.147-.332-.188-.166-.113-.443-.333-.6-.307-.22.165-.365.092-.674a10.959 10.959 0 0 0-.826-1.974c-.228-.51-.2-1.162-.76-1.508-.015-.547-.6-.512-.862-.83a5.112 5.112 0 0 0-1.687-1.471c-.646-.306-1.21-.743-1.878-1.038a4.22 4.22 0 0 0-2.004-.447c-.242.014-.485.002-.728.002a11.29 11.29 0 0 0-2.18.034 5.538 5.538 0 0 0-1.599.813.974.974 0 0 1-.435.132c-.108.01-.302.078-.3.115.02.547-.49.537-.773.758-.316.247-.237.89-.844.845.028.484-.671.6-.578 1.092.085.445-.222.641-.446.916-.193.236-.566.344-.538.748.041.59-.36 1.104-.255 1.724.099.579-.421 1.107-.296 1.443Zm29.346 4.024c.729 0 1.457-.07 2.173-.211a5.063 5.063 0 0 0 2.827-1.77c.393-.315.652-.767.727-1.266.004-.491.72-.836.265-1.405-.019-.023.069-.187.098-.185.473.043.374-.294.381-.56a7.105 7.105 0 0 1 .048-1.32 3.125 3.125 0 0 0-.017-2.136c-.056-.228-.126-.59-.01-.696.305-.28-.009-.454-.018-.671-.011-.283.092-.617-.025-.84a8.39 8.39 0 0 1-1.021-2.254c-.068-.345-.678-.16-.698-.673-.007-.167-.592-.158-.618-.433-.046-.48-.496-.56-.712-.611a1.293 1.293 0 0 1-.814-.403c-.212-.267-.58-.062-.858-.313-.172-.154-.474-.256-.638-.466-.263-.338-.528.395-.765-.024-.681-.019-1.363-.029-2.044-.06-.298-.012-.551.248-.538.38.061.615-.286.68-.717.588-.54-.113-.982.226-1.481.248a1.786 1.786 0 0 0-1.673 1.372c-.108.37-.304.707-.573.983a2.88 2.88 0 0 0-.937 2.044.694.694 0 0 1-.081.455c-.11.164-.62.23-.207.613a.764.764 0 0 1-.274.546c-.43.18.363.504-.106.622a12.356 12.356 0 0 0-.543 4.394c.008.114-.005.278.062.333.412.334.43 1.01.795 1.218.356.205.575.65 1.06.665.184.04.356.124.5.247a6.54 6.54 0 0 0 2.195.864c.073.012.139.058.21.078 1.302.419 2.66.637 4.027.647Zm58.642 140.784a18.614 18.614 0 0 0-2.52.12l.011.086a.991.991 0 0 0 .799.048c.352-.134.484.613.819.166.208-.276.548-.009.891-.42Zm-5.437.073.003.202c.393 0 .787.014 1.179-.004.392-.019.804.081 1.165-.198h-2.347ZM92.79 39.893a.664.664 0 0 0 .573.068c.22-.029.667.213.591-.283-.06-.396-.458-.157-.698-.18-.24-.023-.37.186-.466.395Zm60.612 141.513c.678.267.976-.105 1.403-.254-.535-.328-.836.103-1.403.254Z"/><path fill="#C6C7F8" d="M107.592 140.657c.309-.105.602-.466.945-.136.28.268.341-.167.579-.125.394.068.916.172 1.187-.018.397-.281.625.056.917.065.605.018 1.102-.392 1.727-.291a3.948 3.948 0 0 0 1.69-.009 3.519 3.519 0 0 1 2.604.025c.215.099.319-.249.484-.186.444.172.837-.152 1.282-.071.444.045.89.05 1.334.017.486 0 .973.015 1.459-.005.374-.015.792.202 1.064.115a4.272 4.272 0 0 1 1.045-.103c.402-.031.81-.007 1.215-.007 1.094 0 2.188.01 3.282-.007.302-.005.631.129.904-.171.137-.151.375-.084.563-.034a2.86 2.86 0 0 0 2.133 0 1.07 1.07 0 0 1 .352-.029c1.68.153 3.324-.399 5.005-.249.389.067.789-.016 1.12-.232.269-.193.534.333.91.02.192-.159.631.011.948-.039.298-.047.445.466.725.202.28-.265.469-.237.682.038.818-.502 1.717-.097 2.568-.229.324.325.923.465.756 1.122.392.325-.32.708.092 1.108.27.264.166.682-.085 1.069-.145.223-.215.519-.486.578a.954.954 0 0 0-.551.423 9.824 9.824 0 0 1-2.163 1.532c-.052.039-.158.005-.239.005.002-.984.355-1.929.266-2.934a3.104 3.104 0 0 0-.449-1.522c-.31-.472-.86-.587-1.16-.148a1.766 1.766 0 0 0-.367 1.184c.082.397.074.807-.023 1.2-.141.347-.094.765-.38 1.057-.048.048-.051.139-.076.21-.144.41.379.768.191 1.085a.814.814 0 0 0-.01.945c.26.549-.253 1.07-.339 1.627-.08.525-.274 1.037-.309 1.562-.027.405.48.813.014 1.239.409.307.166.547-.097.753a.601.601 0 0 0-.155.762c.283.425-.129.769-.026 1.149.065.242-.131.358-.271.492-.187.177-.343.35-.085.587.214.198-.13.247-.104.341.134.473-.553.252-.509.622.031.264.32.427.25.751-.114.525.183 1.108-.24 1.605a.473.473 0 0 0 .023.455c.148.176.227.28.002.443-.312.226-.359.426-.067.773.197.234-.161.565-.254.834-.152.355-.218.74-.194 1.125.08.643-.325 1.187-.274 1.843a1.765 1.765 0 0 0 1.529 1.899c.742.16 1.488.298 2.23.462.486.108 1.001.053 1.406.426a.606.606 0 0 0 .677.068 1.594 1.594 0 0 1 1.63.024c.385.171.799.267 1.22.285.028-.001.057.129.086.198-.03.197.139.283.251.362a1.752 1.752 0 0 1 .721 1.827l-1.255.486c-.402.155-.456.465-.461.859a.79.79 0 0 0 .474.85c.522.206 1.085.29 1.644.244.429-.037.864-.007 1.429-.007-.49.394-.951.466-1.302.781a.845.845 0 0 0-.257.972.91.91 0 0 0 .875.682c.283-.015.567-.015.85.001a.184.184 0 0 1 .158.069.19.19 0 0 1 .034.17l-.729 1.702c-.527-.124-.948.304-1.481.263-.449-.035-.962-.185-1.356.224-.823.008-1.643.09-2.451.245a5.005 5.005 0 0 0-1.569.031c-.507.163-.926-.07-1.39-.057a36.06 36.06 0 0 1-4.76.27.79.79 0 0 0-.335.066 4.069 4.069 0 0 1-1.793.176.667.667 0 0 0-.36.006 2.823 2.823 0 0 1-1.725.222c-.537-.046-1.12.248-1.621-.198-.063-.056-.174.238-.367.213a1.658 1.658 0 0 0-.998.232c-.324.168-.53-.307-.866-.235-.265.057-.562-.119-.806.11-.055.052-.131.135-.186.128-.427-.06-.91.188-1.279-.127-.44-.376-.692.435-1.069.13a1.94 1.94 0 0 0-1.832-.189 8.293 8.293 0 0 1-2.102.186 4.797 4.797 0 0 1-1.611-.2 4.654 4.654 0 0 0-2.077-.285.703.703 0 0 1-.463-.042 1.438 1.438 0 0 0-1.009-.374l-1.159-.074c-.305-.401-.742-.172-1.117-.235a3.44 3.44 0 0 0-1.705-.187 2.839 2.839 0 0 0-.325-1.731 1.528 1.528 0 0 1-.013-1.237c.11-.229.166-.481.164-.735a1.666 1.666 0 0 0-.173-.733c-.195-.382.014-.861-.336-1.206a.366.366 0 0 1 .06-.442c.344-.297.093-.687.17-1.024.218.016.312-.181.232-.284-.344-.441-.199-.941-.232-1.419.04 0 .113.01.116-.001a3.37 3.37 0 0 0-.359-2.674c-.008-.245.231-.308.346-.462.071-.095.208-.198.134-.301-.458-.647-.109-1.392-.28-2.068-.011-.043-.131-.059-.2-.087-.044-.229.108-.492-.087-.691a.515.515 0 0 1-.185-.359.51.51 0 0 1 .134-.381c.107-.138.21-.279.105-.415a.881.881 0 0 1-.009-1.17.484.484 0 0 0 .071-.224.485.485 0 0 0-.04-.232c-.473-.62-.143-1.318-.226-1.972-.1-.773.195-1.588-.249-2.326.225-.256.077-.498.043-.775-.018-.239.015-.48.097-.706.176-.464.271-1.087.005-1.349-.383-.377.319-.73-.129-.969a.642.642 0 0 0 .197-.86c-.177-.313.059-.652-.193-.945-.096-.11-.433-.402-.035-.625-.275-.213-.15-.386-.072-.684a3.359 3.359 0 0 0-.211-1.435 7.16 7.16 0 0 1-.188-1.125c-.006-.121.05-.31-.008-.354-.641-.485-.458-1.273-.724-1.892-.113-.262-.268-.475-.608-.457-.282.015-.566.003-.849.003a.192.192 0 0 1-.004-.086.178.178 0 0 1 .035-.078.186.186 0 0 1 .149-.075.591.591 0 0 0 .549-.491ZM16.391 76.35c.133.306-.467.46-.203.726.36.362-.243.573-.06.925.15.288-.135.725.247.989-.228.33.384.564.097.92-.157.193.117.238.197.331.163.193.346.358.081.591-.126.112-.088.197.035.235.108.033.323 0 .306.108-.128.789.5 1.267.796 1.86.165.33.527.521.475 1.012-.031.305.529.541.297.94-.11.19.037.202.092.261.248.267.512.517.767.777a.747.747 0 0 1 .29.49c.08.95.476 1.37 1.41 2.186.65.568.918 1.424 1.496 2.05.233.252.072.758.634.83.38.048.268.65.606.815.284.138.59.203.48.646-.022.092.152.286.278.353a6.861 6.861 0 0 1 1.928 1.843c.318.382.713.691 1.161.907.55.35 1.067.747 1.548 1.187.199.18.358.397.47.64a.957.957 0 0 1 .066 1.088 1.103 1.103 0 0 1-1.303.361c-.34-.242-.524.164-.677.064a6.06 6.06 0 0 0-.765-.509c-.234-.109-.364-.362-.674-.434-.466-.107-.255-.966-.925-.931-.207-.413-.776-.4-.97-.897-.105-.269-.513-.447-.817-.603-.302-.156-.253-.512-.527-.71-.356-.335-.692-.69-1.004-1.066-.35-.329-.703-.645-1.03-1.003-.234-.257-.07-.552-.243-.757-.125-.148-.388-.05-.47-.403-.06-.264-.732-.254-.681-.779.043-.454-.542-.542-.557-.995-.005-.134-.198-.312-.177-.524.011-.12.052-.311-.006-.354-.668-.49-.677-1.38-1.18-1.936a3.626 3.626 0 0 1-.666-1.191c-.127-.324-.087-.76-.577-.842-.015-.003.026-.178-.014-.225-.472-.55-.247-1.375-.697-1.892-.456-.525-.258-1.282-.75-1.76.162-.763-.362-1.44-.26-2.209.08-.427.015-.869-.184-1.255-.13-.24.188-.695.245-1.084.091-.287.16-.58.205-.877.002-.153.61-.544.775-.526.197.021.44.372.435.627ZM171.787 11.834c.938-.309 1.384.29 1.69.86a16.881 16.881 0 0 0 1.676 2.598c.466.682.794 1.448.967 2.256.154.548.877.917.541 1.607.251.465.427.966.525 1.485.291.714.445 1.475.454 2.246.001.5-.138 1.034.235 1.482.02.024-.013.087.005.118.189.334-.505.508-.168.837.249.244.146.521.161.787.018.323.004.648.004.973 0 .364-.017.73.005 1.094.021.353-.153.76.095 1.047.256.296-.454.646.102.857-.434.389.035 1.01-.352 1.397-.192.191.343.338-.017.533-.222.12.057.476-.179.645-.204.147-.132.36-.138.551-.008.243-.013.487.001.73-.017.19-.082.373-.189.531a3.97 3.97 0 0 0-.528 1.72.93.93 0 0 1-.28.614c-.282.403-.5.847-.647 1.316a1.87 1.87 0 0 1-1.136 1.078c-.538.27-.871-.005-1.13-.606a1.181 1.181 0 0 1 .017-1.142c.094-.164.287-.263.247-.509a.846.846 0 0 1 .572-1.088c.204-.073.233-.309.041-.487-.097-.09-.101-.14-.013-.263a5.23 5.23 0 0 0 .9-2.68 3.744 3.744 0 0 0-.039-2.116.402.402 0 0 1 .001-.354c.403-.453.23-.992.221-1.488-.01-.617.195-1.273-.224-1.848a.287.287 0 0 1-.001-.238 12.33 12.33 0 0 0 .324-2.42l-.085-1.049a6.813 6.813 0 0 1-.509-2.472c-.046-.832-.469-1.617-.465-2.474-.62-.526-.671-1.345-1.02-2.01-.557-1.062-1.03-2.168-1.568-3.24-.14-.28-.043-.547-.096-.878ZM22.088 105.393c-.343.077-.569-.103-.824-.335a5.787 5.787 0 0 0-1.213-.868c-.552-.286-1.119-.513-1.311-1.185-.02-.068-.103-.125-.168-.171-.317-.224-.954-.024-.953-.652.001-.496-.423-.641-.646-.95-.252-.35-.72-.521-.825-.993-1.007-.68-1.162-2.033-2.158-2.728a1.12 1.12 0 0 1-.482-.871c.044-.527-.309-.772-.506-1.144a5.494 5.494 0 0 1-.986-2.5c-.001-.246-.21-.334-.347-.46a.453.453 0 0 1-.127-.543c.396-.589.169-1.234.225-1.85.025-.28-.028-.57.012-.847a.444.444 0 0 1 .773-.249c.131.145.524.25.327.49-.232.283.157.327.1.455-.362.805.303 1.483.264 2.25a.93.93 0 0 0 .234.501 9.864 9.864 0 0 1 1.184 2.18c.126.319.522.18.49.37-.078.475.44.269.504.51.058.218-.029.44.179.66.981 1.034 1.57 2.432 2.91 3.135.046.766.82.926 1.198 1.42.333.434.959.592 1.164 1.178.103.297.472.374.67.4.622.081.921.549 1.348.877a.94.94 0 0 1 .292 1.079 1.218 1.218 0 0 1-1.328.841ZM106.161 21.003c-.566 0-1.136.042-1.698-.01a60.613 60.613 0 0 1-3.685-.468c-.19-.03-.244-.187-.383-.253a25.176 25.176 0 0 1-3.344-1.615 2.938 2.938 0 0 1-.972-.815 7.882 7.882 0 0 0-1.227-1.43 1.415 1.415 0 0 1-.15-1.8 1.12 1.12 0 0 1 1.274.01c.556.531 1.102 1.073 1.632 1.63a10.404 10.404 0 0 0 2.276 1.557c.711.337 1.459.592 2.228.762.337-.263.618.411 1.031.02.296-.281.643.355.966.208.924-.417 1.907-.041 2.812-.26a9.589 9.589 0 0 1 2.213-.21c.273-.024.547.044.777.195.174.12.535.22.536.376.002.41.343.697.309 1.098a.595.595 0 0 1-.429.51 6.217 6.217 0 0 1-1.981.488c-.727.027-1.456.007-2.185.007ZM86.499 14.436a1.488 1.488 0 0 1 1.26.475 1.463 1.463 0 0 1-.026 1.736c-.557.601-.897 1.4-1.479 1.922-.914.817-1.526 1.961-2.686 2.512a1.16 1.16 0 0 0-.345.338c-.364.46-.864.793-1.43.95-.525.213-1.017.5-1.46.852a11.25 11.25 0 0 1-3.912 1.402c-.343.068-.581.37-.991.294a1.107 1.107 0 0 0-1.017.168c-.28.239-.533-.189-.802-.289-.142-.052-.167-.554.055-.6.493-.103.824-.514 1.368-.54a4.057 4.057 0 0 0 2.429-.857c.866.023 1.203-.872 1.971-1.115a6.507 6.507 0 0 0 1.883-1.297c.322-.334.621-.69.893-1.066a22.539 22.539 0 0 0 2.052-2.559c.283-.319.458-.72.5-1.145.024-.484 1.165-1.167 1.737-1.181ZM180.039 38.934c.134-.664.662-.973 1.043-1.403a5.586 5.586 0 0 0 1.191-1.645c.215-.566.524-1.09.915-1.552a2.38 2.38 0 0 0 .652-1.19c.17-.616.39-1.217.659-1.797.209-.83.34-1.677.391-2.53a4.845 4.845 0 0 1 .383-1.956 1.355 1.355 0 0 1 .65 1.273 6.56 6.56 0 0 0 .194 2.455 3.678 3.678 0 0 1-.332 2.27c-.107.337-.066.674-.195 1.006a10.218 10.218 0 0 1-1.248 2.383 11.516 11.516 0 0 1-1.412 1.737 3.087 3.087 0 0 1-2.891.949ZM52.386 51.16a10.258 10.258 0 0 0-2.006-.97c-.246-.124-.266-.288-.092-.45.286-.264.49-.625.882-.77.109.372.437.565.693.803.659.612.671.598.523 1.386ZM44.117 35.351c-.003.334-.259.226-.435.241-.26.023-.556-.097-.575.378-.007.198-.354.124-.534.1-.2-.028-.156-.235-.16-.389a2.924 2.924 0 0 0-.23-1.604c-.047-.075.078-.212.231-.185.2.455.483.87.834 1.221.268.296.564.223.869.238ZM141.64 27.326a1.616 1.616 0 0 1 .264 1.572 3.46 3.46 0 0 0 .223 1.832.55.55 0 0 1-.474-.456 4.556 4.556 0 0 1-.004-1.088c.037-.34-.32-.515-.268-.872a1.77 1.77 0 0 1 .259-.988ZM34.875 35.838c-.018.808-.668.826-1.216.972.223-.553.734-.744 1.216-.972Z"/><path fill="#C6C7F8" d="M140.181 159.141v-.926c0-.166.028-.306.243-.29.466.077.205.435.231.659.038.313-.191.476-.474.557ZM149.909 91.044c.232-.541.84-.612 1.216-.972v.243c-.22.551-.716.643-1.216.73Z"/><path fill="#C6C7F8" d="M151.125 90.315v-.244c-.037-.534.339-.759.73-.972 0 .075.03.172-.005.223-.234.337-.482.663-.725.993ZM167.176 57.483c-.05-.091-.094-.185-.151-.272-.145-.22-.183-.399.151-.458.334.245.334.485 0 .73ZM143.586 15.165c.44.539.77 1.159.969 1.825.027.07-.029.209.008.233 1.098.719.986 2.019 1.429 3.041.473 1.09.92 2.199 1.306 3.33.115.338.207.668.3 1.007.236.863.768 1.011 1.614.625.677-.309.701-.314.535-1.078-.033-.154.049-.175.069-.261a2.01 2.01 0 0 0-.061-1.472c-.224-.441-.045-.941-.089-1.413.914-.229.913-.226 2.077.238.117.023.237.024.355.006.344.513.519 1.122.5 1.74-.065.615.32 1.186.286 1.824-.008.157.281.051.43.084.058.331-.139.703.149.997.072.073.182.189.245.173.14-.036.126-.269.086-.292-.39-.228.007-.427.006-.635a.246.246 0 0 0 .283-.173c.133-.316.665-.2.671-.534a2.666 2.666 0 0 0-.123-1.505c-.171-.292-.167-.639-.315-.954a1.178 1.178 0 0 1 .005-1.036c.277-.285-.187-.651.209-.814-.172-.334.366-.648.012-1.013-.111-.114.082-.277.199-.382.178-.16.329-.262.057-.527-.217-.21.246-.356.218-.601.466-.02.932-.029 1.397-.064a3.143 3.143 0 0 1 1.039.069c.281.2.628.286.969.238-.105.196.362.234.085.567-.406.487.237 1.002.165 1.545-.042.308.438.534.223.854-.155.23.001.542-.071.604-.361.312.251.41.107.703a1.74 1.74 0 0 0-.017.833.542.542 0 0 0 .447.48 1.115 1.115 0 0 0 1.405-.599c.076-.172.108-.36.091-.547.131-1.279.42-2.536.862-3.743.19-.369.309-.77.351-1.183a.81.81 0 0 0 .626-.229c.274-.198.393.353.727.24a1.93 1.93 0 0 1 .593-.011 4.22 4.22 0 0 1 .493 2.636c-.045.233-.023.475.064.697.21.602.26 1.248.143 1.875.002.208-.396.395-.049.686.142.12-.312.343.03.52.058.03.009.23.053.333.152.364-.385.69-.222.846.35.334-.023.674.092.865.128.29.168.613.116.926.029.728-.017 1.46.023 2.187.015.282-.318.372-.253.628.054.217.253.358.259.629.025.257.036.516.034.775-.026.362-.382.698-.088 1.153.159.246.102.717.188 1.053.083.672.113 1.35.089 2.026-.447.297-.167.595.001.892.169.298.443.595-.001.892 0 .648.043 1.3-.021 1.942-.024.241.462.374.069.688a.64.64 0 0 0 .025.772c.385.325-.243.41-.095.703.065.275.073.56.022.839a4.78 4.78 0 0 1-.36 1.659c-.069.253-.164.395.054.592a1.798 1.798 0 0 1 .552 1.575c-.014.163.006.327.241.308.115.758-.362 1.434-.263 2.21.049.727.056 1.456.023 2.184.005.378-.104.785.214 1.104-.364.246-.134.744-.445 1.04-.101.097-.02.389-.015.591a6.916 6.916 0 0 1-.469 2.965c-.088.205.01.482-.025.72-.043.302.164.657-.16.903-.326.247.367.504-.018.774a.47.47 0 0 0-.047.445c.458.822-.294 1.492-.254 2.255-.379.258-.23.65-.24.993-.032 1.086-.529 2.094-.525 3.185-.548.49-.325 1.235-.598 1.817a22.63 22.63 0 0 0-.709 1.651c-.129.34-.075.792-.492 1.015-.283.151.131.802-.504.747-.025-.002-.087.126-.09.195.015.283.009.566-.016.848-.044.24-.466.062-.518.502-.064.535-.693.868-.753 1.505-.048.523-.784.778-.667 1.418-.445.262-.777.68-.931 1.173-.135.483-.4.92-.767 1.261.215.495-.654.235-.503.754.123.425-.465.554-.555.981-.062.299-.454.555-.742.773-.299.226.057.722-.339.826-.635.168-.467.89-.917 1.2-.412.3-.713.727-.855 1.216-.163.494-.842.712-.808 1.374.006.118-.23.272-.463.309-.154.024-.406.272-.39.388.078.565-.379.764-.661 1.072-.383.418-.835.776-1.187 1.216a5.895 5.895 0 0 1-1.025 1.01c-.315.244-.824.283-.862.84a.483.483 0 0 1-.341.303c-.687.073-.992.716-1.539.986-.447-.124-.787.284-1.216.243-.756-.365-.957-1.173-1.397-1.786-.126-.176-.146-.516-.362-.562-1.098-.233-1.213-1.368-1.874-2.002-.554-.532-.913-1.267-1.464-1.804-.431-.421-.648-1.047-1.254-1.301a.35.35 0 0 1-.216-.39 1 1 0 0 0-.671-1.135c-.342-.155-.429-.521-.79-.68a1.355 1.355 0 0 1-.747-.88c-.098-.371-.622-.49-.71-.919-.008-.037 0-.09-.022-.11a14.835 14.835 0 0 1-1.182-1.078c-.282-.365-.588-.711-.917-1.035a1.745 1.745 0 0 1-.537-.624 1.745 1.745 0 0 0-.861-.953 5.78 5.78 0 0 1-1.083-.899c-.281-.223-.322-.64-.753-.781-.316-.105-.37-.6-.761-.75a.31.31 0 0 1-.226-.263.306.306 0 0 1 .163-.306c.591-.46.94-1.18 1.695-1.482.399-.16.422-.723.772-1.01.295-.265.567-.554.812-.864.328-.384.915-.685.914-1.173-.001-.657.689-.782.753-1.28.048-.37.442-.148.497-.385.052-.222-.047-.453.171-.669.147-.145.126-.517.36-.557.654-.112.679-.666.831-1.108.161-.383.354-.752.577-1.103a5.917 5.917 0 0 1 1.325-1.758c.058-.05.147-.128.14-.18-.11-.768.586-1.23.711-1.896.129-.683.771-1.135.778-1.878.001-.181.287-.357.434-.541.096-.12.322-.194.265-.37-.186-.57.322-.846.498-1.26.271-.41.451-.874.528-1.361.424-.112-.089-.716.471-.827.481-.095.007-.66.29-.902.267-.226.15-.518.163-.784.035-.722.109-.884.851-1.698-.167-.594.479-1 .366-1.587a1.254 1.254 0 0 1 .225-1.154c.282-.226-.005-.502.114-.605.332-.289-.238-.374-.091-.575.139-.19.355-.342.435-.55.081-.211.143-.582.03-.689-.373-.352-.063-.597-.009-.918.068-.4.455-.826.036-1.26a.415.415 0 0 1-.001-.355c.181-.41.398-.81.047-1.238.388-.37.204-.857.158-1.255-.046-.396.304-.696.071-1.16-.195-.389-.024-.953-.045-1.439-.017-.415.133-.865-.211-1.225.191-.172.335-.337.092-.59-.224-.234.188-.328.147-.582-.049-.302-.17-.895-.184-1.178a10.118 10.118 0 0 0-.064-1.114 8.635 8.635 0 0 1-.017-1.456 9.298 9.298 0 0 0-.348-2.279 9.686 9.686 0 0 1-.624-2.79c.028-.46-.34-.782-.428-1.155a13.5 13.5 0 0 1-.56-2.697c-.013-.494.224-1.038-.218-1.492a.457.457 0 0 1 .018-.454c.352-.297.142-.68.219-1.013.053-.229-.286-.407-.188-.468.331-.206-.139-.397.022-.53a.568.568 0 0 0 .158-.546c.025-.384.182-.749.443-1.032.189-.279-.229-.74.289-.905.24-.093.616.225.73-.244Zm12.638 6.194c-.408-.292-.183-.722-.232-1.09-.053-.394-.384-.273-.54-.222-.447.144.084.229.049.359-.111.422.214.703.341 1.046.013.034.146.046.214.03.062-.014.112-.08.168-.123ZM52.142 41.431a1.656 1.656 0 0 1-.435 1.277 1.122 1.122 0 0 0-.317.607c-.028.273.315.73-.346.83-.265.04.024.622-.347.802-.311.152-.218.584-.5.763.154.456-.433.565-.44.752-.012.35-.251.566-.294.87-.031.218-.22.193-.374.177-.252-.025-.352.063-.359.33a.953.953 0 0 1-.633.943.655.655 0 0 0-.354.576 1.93 1.93 0 0 1-.842 1.082c-.378.3-.46.803-.823 1.13-.172.154.405.457.033.733.119.105.223.274.358.305.568.126 1.175.372 1.642-.222a.783.783 0 0 1 .626-.266c.455-.047.935.184 1.377-.211.2-.178.516.182.54.342a5.43 5.43 0 0 0 .264 1.964c.047.086-.004.21-.078.327-.533.6-.926 1.31-1.15 2.08-.029.193-.309.362-.493.518A2.97 2.97 0 0 0 48 59.302c-.15.646-.234 1.305-.253 1.968.022.248.396.462.04.795a.809.809 0 0 0 0 .8c.368.333-.08.536-.028.798.083.411-.127.842.22 1.258.159.192.056.63.02.95a1.63 1.63 0 0 0 .283 1.215c.15.229.225.498.216.77.132.87.253 1.74.445 2.604.086.386.41.314.491.512.1.243.024.752.111.772.434.1.446.367.405.694a.467.467 0 0 0 .17.42c.414.413.989.748.805 1.487.358.264.464.709.744 1.03.375.39.717.81 1.025 1.255.1.179.248.326.427.424a10.966 10.966 0 0 1 2.271 1.802c.152.12.25.319.497.273a.58.58 0 0 1 .764.48c.047.179.346.186.467.285.192.158.501.128.596.325a2.27 2.27 0 0 0 1.73 1.067c.519.133.625.698 1.114.798.143.029.12.292.088.305-.382.158.056.45-.11.61-.072.07-.226.043-.321.097-.44.249-.163 1.049-.706 1.109-.581.064-.418.847-.986.845-.028 0 .002.397-.096.54-.451.666-.632 1.536-1.435 1.943a.533.533 0 0 0-.172.17c-.194.273.14.727-.185.874-.266.12-.606.24-.577.476.056.452-.279.454-.483.654-.405.365-.738.8-.982 1.287-.34.774-.951 1.371-1.274 2.146a.765.765 0 0 1-.254.258c-.398.25-.714.612-.91 1.04a1.966 1.966 0 0 1-.292.6c-.389.53-.964.918-1.185 1.586a13.041 13.041 0 0 1-1.013 1.706 29.609 29.609 0 0 0-2.8-2.223 3.325 3.325 0 0 0-1.401-1.579 3.966 3.966 0 0 1-1.207-1.097 2.124 2.124 0 0 0-.725-.63c-.418-.286-1.033-.277-1.187-.942-.034-.146-.366-.288-.574-.31-.238-.026-.462-.16-.47-.298-.042-.668-.504-.852-1.022-1.001-.405-.966-1.46-1.197-2.124-1.872-.26-.265-.566-.484-.851-.723.21-.563-.399-.463-.58-.71-.227-.312-.646-.483-.684-.934-.616-.12-.851-.636-1.094-1.107a12.825 12.825 0 0 0-.989-1.794 6.336 6.336 0 0 1-.944-1.896c-.16-.564-.722-.932-.654-1.56-.355-.258.007-.71-.26-.984a1.45 1.45 0 0 1-.428-.806 3.672 3.672 0 0 1-.208-.88 1.672 1.672 0 0 0-.111-.557c-.146-.478-.76-.711-.625-1.33.11-.506-.315-.937-.262-1.48a2.838 2.838 0 0 0-.34-1.06 3.108 3.108 0 0 1-.117-1.452c.044-.338-.244-.636-.026-1.029.147-.263-.56-.05-.466-.494.087-.413-.251-.836.004-1.257.016-.027-.23-1.24-.241-1.277a2.942 2.942 0 0 1-.262-1.117c.032-.329.144-.696-.185-1.015-.232-.225.22-.375.2-.605a9.505 9.505 0 0 0-.155-2.73c.24-.5-.063-1.197.216-1.523.422-.49-.398-.94.126-1.297-.466-.37.102-1.04-.417-1.418-.106-.077.012-.309.165-.397.344-.198.212-.577.337-.833.215-.436-.57-.632-.15-1.085.289-.31.169-.786.1-1.153-.074-.386.214-.58.3-.867.089-.295-.44-.375-.12-.707.149-.155-.02-.615.13-.773.202-.215.202-.496.38-.716.14-.175.064-.536.061-.814a4.4 4.4 0 0 1 .5-1.982c.162-.307.244-.65.237-.998a2.476 2.476 0 0 1 .525-1.601c.129-.17.244-.317.197-.528-.085-.387.255-.627.316-.966.055-.312.587-.523.195-.932.33-.375.636-.77.92-1.181.23-.428.436-.87.612-1.324.722.06.149-.765.662-.947.362-.19.661-.48.861-.835a9.738 9.738 0 0 1 2.912-2.589 9.056 9.056 0 0 1 1.94-1.2c.012.016.087.073.091.134.008.333.057.663.147.983.048.146-.29.473-.422.764-.414.913-.648 2.004-1.741 2.447a9.316 9.316 0 0 1-1.293 1.509.723.723 0 0 0 .497 1.147c.3.018.59.217.83.154a16.012 16.012 0 0 0 1.564-.616c.207-.079.185-.224.18-.38-.003-.16-.019-.299.202-.362a1.196 1.196 0 0 0 .785-.79c.22-.535.83-.706 1.254-1.013a11.438 11.438 0 0 1 2.82-1.675c.069-.024.12-.157.175-.154a.826.826 0 0 0 .743-.233.787.787 0 0 1 .013.884c-.255.275.095.324.076.451-.049.315.565.584.056.913.318.411-.107.553-.291.77a.71.71 0 0 0-.246.51c.014.72-.691 1.174-.73 1.886-.005.121-.132.184-.268.16-.38-.063-.486.11-.46.47.039.532-.155 1.165.666 1.285.411.551.77-.088 1.157-.052.46-.724 1.393-.871 1.895-1.592a1.665 1.665 0 0 1 1.19-.562 2.571 2.571 0 0 0 1.565-.617c.37-.297.843-.437 1.316-.39-.074.397.088.56.486.485ZM90.568 142.846a1.282 1.282 0 0 0-.977 1.45c.023.282.006.568.004.851-.001.157-.032.313.183.377.518.154.754.4.315.911a.532.532 0 0 0-.002.472c.295.698.363 1.47.195 2.209-.05.403.59.637.137 1.064-.409.385.2.693.15 1.071-.027.199.078.468-.02.596-.42.552-.162 1.013.15 1.453a.687.687 0 0 1 .1.564 6.824 6.824 0 0 0 .298 2.084c.003.65.147 1.292.42 1.882.123.212.028.556.018.84-.014.378.102.784-.216 1.104.222.306.389.649.493 1.013.151.44.223.904.213 1.37a9.303 9.303 0 0 0 .236 3.062c.074.202.353.431.005.648.108.535-.222 1.121.195 1.623.043.051.073.183.043.216-.58.627.017 1.142.181 1.678.075.246.14.585.047.679-.341.349.117.628.013.911-.17.465.518.777.16 1.332-.143.223.011.763.325 1.073a.253.253 0 0 1-.076.322c-.26.201-.21.422.033.579a.723.723 0 0 1 .262.955c-.205.321-.006.63-.174.953a2.6 2.6 0 0 0-.032 1.197.646.646 0 0 1-.584.734 2.998 2.998 0 0 1-1.24.239c-.28-.047-.557.191-.75.195-.538.013-1.08.417-1.622.044-.924.56-2.022-.058-2.978.447-.285.151-.714.017-1.075.044-.314.024-.67-.135-.935.076-.238.19-.352.159-.607.011a1.414 1.414 0 0 0-1.268-.04 2.46 2.46 0 0 1-1.144.186 5.747 5.747 0 0 1-.85.003c-1.758-.096-3.484.388-5.25.27-.53-.036-1.08.471-1.62-.025a1.93 1.93 0 0 1-1.358.236 3.566 3.566 0 0 0-1.08.162c-.402.09-.785.036-1.172.089a8.047 8.047 0 0 0-2.225.203c-.67.273-1.488-.086-2.242.161-.275.091-.609-.199-.945-.121-.028-.069-.052-.195-.084-.197a8.643 8.643 0 0 0-1.307-.035c-.448.042-.771-.403-1.225-.254l-1.764-.487h-.24c.165-.412.64-.315.905-.55.256-.232.567-.392.904-.465a1.66 1.66 0 0 0 .661-.321c.194-.154.351-.35.46-.573-.066-.337-.382-.438-.516-.671-.214-.376-.445-.148-.732-.121-.797.075-1.607.026-2.412.026-.07-.411-.7-.46-.685-.619.04-.462-.451-.753-.29-1.209.117-.332-.114-.578-.241-.847l2.345-.486a.757.757 0 0 0 .608-.826.754.754 0 0 0-.131-.348 1.013 1.013 0 0 0-.989-.543c-.484.037-.97.042-1.453.014a7.076 7.076 0 0 0-1.09.012c-.387.062-.614-.37-.993-.255-.358-.44-.224-.963-.243-1.459a.188.188 0 0 1 .105-.224.202.202 0 0 1 .088-.016c.342-.025.68-.094 1.005-.205.418-.134.846-.462 1.343-.284.462.166.766-.383 1.238-.258.23.029.464-.019.664-.137 1.03-.451 2.19-.531 3.209-1.047a.872.872 0 0 1 .356-.018c.324-.001.647.007.971-.002.27-.008.432-.368.75-.241.363 0 .811.131 1.068-.034.276-.14.58-.215.889-.218.342-.06.707.262.928.116.336-.225.733.08 1.04-.262-.349-.045-.175-.468-.38-.531-.259-.08-.425-.12-.389-.443.077-.669-.385-1.277-.239-1.959.04-.185-.083-.293-.203-.4a.873.873 0 0 1-.152-1.162c.213-.473.07-.439-.254-.997-.233-.402-.715-.707-.63-1.322.055-.394-.273-.621-.706-.571-.364-.021-.206-.302-.243-.486a1.05 1.05 0 0 0 .194-.08 2.706 2.706 0 0 0-.68-1.623 2.025 2.025 0 0 0-.16-.946c-.165-.364.078-.771-.276-1.118-.25-.246.111-.776-.195-1.12.282-.813-.486-1.403-.465-2.162.002-.063-.123-.136-.114-.19.156-.843-.273-1.625-.251-2.454.034-.404.03-.81-.014-1.213a5.807 5.807 0 0 0-.389-1.051.675.675 0 0 1-.078-.209c-.006-.689.003-1.378-.006-2.067-.008-.659-.489-1.267-.137-2.003a6.732 6.732 0 0 1 2.688-.312 7.635 7.635 0 0 0 3.063-.229.287.287 0 0 1 .238.001 1.698 1.698 0 0 0 1.752.006c.199-.04.403-.044.603-.011 1.419 0 2.838-.025 4.255.008.954.023 1.85-.367 2.82-.271.924.13 1.863.12 2.784-.029.6-.127 1.183.109 1.79-.161.55-.246 1.261.152 1.854-.218.572.554 1.261-.279 1.877.163.17.122.408-.29.738-.237.403.037.809.042 1.213.015-.017.223.18.177.289.256.316.228.82.223.927.717Zm-13.04 24.331c0 .335-.35.498-.348.84a.516.516 0 0 0 .272.49c.258.138.44-.141.657-.219.13-.046.065-.266-.064-.394-.19-.19-.167-.52-.516-.717Zm-2.946-16.909a.74.74 0 0 0 .041-.905 3.05 3.05 0 0 1-.182-1.01c-.636.769.12 1.222.141 1.915ZM63.33 83.748a1.367 1.367 0 0 1-.138 1.962c.045.616-.722.923-.597 1.57-.52.429-.05 1.074-.33 1.606a3.217 3.217 0 0 0-2.584-.03c-.01-.12-.009-.242.004-.362.082-.4.767-.2.737-.763-.025-.46.415-.664.703-.9.394-.322.14-.92.65-1.212.232-.133.254-.545.659-.7a1.114 1.114 0 0 0 .425-.983c-.01-.299.298-.153.47-.188ZM107.592 174.219a.827.827 0 0 1-.262-.608.834.834 0 0 1 .262-.608v1.216ZM87.893 55.78a3.388 3.388 0 0 1 2.562-.958c.471.069.765-.368 1.242-.276.429.084.899-.046 1.33.03 1.095.117 2.163.41 3.164.867.251.097.482.24.679.424a5.622 5.622 0 0 0 1.718 1.125c.746.425 1.417.97 1.988 1.612.258.31.569.576.854.864.383.387.833.741.807 1.365-.01.248.182.34.312.48.346.373.822.665.681 1.308-.021.1.168.245.262.368.255.287.416.646.462 1.027.055.722.36 1.43.413 2.114.052.68.408 1.359.106 2.12a1.597 1.597 0 0 0 .143 1.492.755.755 0 0 1-.081.882c-.071.083-.072.106-.048.178.22.55.253 1.158.095 1.73l.07 1.102c.007.078.049.178.016.23-.402.627.082 1.242.032 1.87-.029.368-.391.615-.267.99.086.263.47.505.033.787.334.269-.16.535-.022.748.182.283-.457.386-.089.698a.451.451 0 0 1 .071.5.446.446 0 0 1-.108.14c-.247.243-.074.536-.132.799-.107.488-.442.993-.212 1.464.144.295-.03.455-.009.662.02.21-.457.282-.094.57.272.215-.129.386-.162.59a.635.635 0 0 0 .192.652c.124.104.006.267-.085.41-.128.2-.324.568-.254.645.312.338-.336.432-.129.694-.322.167-.099.563-.272.73-.269.26.075.547-.152.85-.158.213-.05.684-.287.96a1.16 1.16 0 0 0-.226.996c.063.387-.302.598-.286.997.018.482-.29.947-.224 1.48a1.218 1.218 0 0 1-.472 1.012.61.61 0 0 0-.253.507 4.248 4.248 0 0 1-.286 1.5c-.132.291-.584.522-.206.928-.188.223-.551.351-.313.788.051.095-.383.257-.403.537a1.114 1.114 0 0 0-.487.972c-.406.693-1.02 1.295-.972 2.189-.49.64-.472.743-1.296.89-.594.106-.973.545-1.553.671-.57.124-1.04.302-1.492-.185-.027-.03-.057-.083-.085-.082a1.255 1.255 0 0 1-1.251-.751c-.257-.507-.903-.596-1.265-1.024-.213-.251-.472-.46-.35-.824.132-.393-.288-.647-.236-.988.01-.309-.079-.614-.255-.868a.34.34 0 0 0-.254-.358.563.563 0 0 1-.475-.745c.03-.173-.13-.286-.155-.409a5.735 5.735 0 0 0-1.548-2.623 3.193 3.193 0 0 0-.479-2.35c-.06-.067-.015-.23.1-.313.104-.075.16-.187.01-.247a1.03 1.03 0 0 0-.36-.008c.099-.582-.023-1.18-.342-1.677-.305-.38.029-.95-.388-1.294.022-1.132-.527-2.172-.517-3.315.003-.335-.281-.673.03-1.01-.007-.181.025-.352-.136-.516-.205-.209.265-.302.138-.532-.056-.102-.106-.195-.245-.168a.605.605 0 0 1 .232-.62c-.396-.351-.328-.928-.612-1.31a.762.762 0 0 1-.152-.733 2.694 2.694 0 0 0-.297-1.42c-.145-.332-.375-.826-.25-.976.395-.477-.452-.693-.137-1.076a12.78 12.78 0 0 1-.225-3.762c.008-.297-.318-.574-.117-.8.316-.356-.14-.47-.144-.71-.002-.08.032-.182-.005-.237-.259-.382.502-.593.166-.953-.3-.32-.093-.685-.161-1.022a.699.699 0 0 0 0-.973v-.243a1.433 1.433 0 0 1 .061-.44.998.998 0 0 0-.061-1.263c-.12-.31.208-.47.243-.73.049-.374-.154-.802.23-1.108-.568-.468.04-.645.224-.933.037-.059.058-.197.027-.221-.398-.308.157-.602.005-.9-.118-.75.43-1.429.243-2.188.539-.136.506-.558.487-.973.035-.258.362-.42.243-.73a6.849 6.849 0 0 0 1.703-1.702Zm7.644 44.03c.268-.18.068-.458.182-.672.252-.46.478-.934.678-1.42.15-.375.193-.802.687-.913.296-.52.556-1.06.778-1.617a1.04 1.04 0 0 1 .42-1.046 1.749 1.749 0 0 0 .566-1.468c-.005-.337-.165-.734.211-1.001-.074-.722.494-1.31.477-1.977-.018-.739.685-1.361.281-2.132-.015-.03.096-.115.127-.184.193-.328.321-.69.374-1.067a9.21 9.21 0 0 1 .258-1.23c.106-.528-.054-1.087.318-1.611a4.86 4.86 0 0 0 .383-2.43 3.067 3.067 0 0 1 .075-.69c.145-.808.186-1.635.267-2.455-.358-.256.225-.5.045-.659-.33-.29.088-.391.122-.568.057-.292-.271-.407-.167-.71a2.173 2.173 0 0 0-.063-1.809 1.068 1.068 0 0 1 .041-1.031.997.997 0 0 0 .155-.67c.007-1.175.004-2.35.003-3.524 0-.196.038-.39-.158-.546-.175-.138.237-.268-.003-.536-.217-.242-.533-.686-.09-1.096a.352.352 0 0 0 0-.348c-.442-.446-.039-1.055-.264-1.471a8.158 8.158 0 0 1-.425-1.526c-.099-.308-.12-.5-.448-.675-.174-.093-.251-.573-.271-.818a1.054 1.054 0 0 0-.618-.946c-.592-.213-.788-.703-1.088-1.136-.082-.119.007-.342-.18-.396a3.862 3.862 0 0 1-1.387-.99c-.822-.707-1.901-.971-2.714-1.675-.55.032-1.057-.503-1.584-.235-.404.127-.82.207-1.242.239a3.758 3.758 0 0 0-2.036 1.212c-.245.315-.197.818-.615 1.08-.63.393.022.83-.01 1.248-.002.04.017.092-.002.12a2.943 2.943 0 0 0-.535 1.602c-.617.371-.456.984-.422 1.52.039.614-.248 1.278.223 1.84-.489.608-.152 1.314-.223 1.97-.037.346.181.746.078 1.052-.054.308-.085.62-.092.932-.052.264.132.572-.135.794-.43.358.24.494.151.832-.221.846.292 1.68.107 2.549-.046.244-.011.497.1.72.146.3-.143.743.177 1.013.328.278-.36.513.018.772.317.218-.374.516.033.754-.044.67.435 1.264.28 1.95a.507.507 0 0 0 .233.51.572.572 0 0 1 .077.918c-.124.139-.081.272.035.415.289.354.303.874.692 1.17.152.115.194.203.018.35a.448.448 0 0 0-.06.549.922.922 0 0 1 .197 1.009c-.083.413.274.633.279.997.007.498-.198 1.058.235 1.475.462.444.034 1.086.387 1.544.268.347-.025.77.165 1.147.438.872.425 1.922 1.044 2.724a.495.495 0 0 1 .094.444c-.097.386.243.63.289.99.04.32.18.645.222.995.045.375.545.501.65.818.095.284.371.485.32.849a1.275 1.275 0 0 0 .574 1.205c.31.23.31.632.592.856-.375.42-.219.65.272.758-.13.715.561.904.842 1.357ZM107.565 118.526c.258.632-.29 1.166-.235 1.82.089 1.066.093 1.107-.247 1.623-.183.278-.026.547-.172.83-.111.277-.207.56-.288.847a3.558 3.558 0 0 1-2.021 2.433c-.896.516-1.913.666-2.826 1.092-.292.135-.288-.146-.462-.14-.566.018-1.133.025-1.699.003a10.687 10.687 0 0 1-3.69-.757 5.087 5.087 0 0 0-2.017-.713c-.119.002-.25-.177-.358-.29-.678-.709-1.573-1.143-2.284-1.806-.215-.201-.275.349-.425.058-.066-.128.03-.341-.038-.467a8.23 8.23 0 0 0-1.211-1.612c-.045-.05-.198-.074-.195-.086.21-.941-.995-1.411-.782-2.357.051-.229-.21-.326-.347-.455a.49.49 0 0 1-.12-.551c.245-.889.398-1.8.457-2.72.054-.292.114-.403.402-.441.074-.01.104-.264.176-.394.17-.424.39-.827.653-1.201.327-.375.636-.782.97-1.164a6 6 0 0 1 1.104-.856c.346-.248.78-.387 1.013-.772.16-.264.5-.169.691-.415.18-.23.343.302.568.127a1.559 1.559 0 0 1 1.271-.118c.396.052.692-.286 1.156-.07.495.231 1.146-.08 1.71.269.478.296 1.137.119 1.611.499.997-.296 1.592.697 2.473.771.169.706.95.644 1.369 1.076.426.44.971.78 1.426 1.218.549.529.742 1.413 1.609 1.623.1.362.239.72.371 1.061.31.631.443 1.334.387 2.035Zm-3.378 4.378c0-.122-.052-.297.009-.356.203-.239.352-.519.435-.822.083-.303.098-.62.043-.929a1.136 1.136 0 0 1 .009-.482c.311-.796.315-1.68.012-2.48-.094-.371-.091-.707-.555-.768-.229-.031-.267-.278-.185-.349.602-.528-.031-.547-.27-.782-.339-.333-.831-.432-1.119-.843a3.585 3.585 0 0 0-2.022-1.255 7.89 7.89 0 0 1-1.505-.583.534.534 0 0 1-.086-.073c-.301.397-.59-.146-.896-.009-.347.156-.507-.328-.873-.256a5.095 5.095 0 0 1-1.09.014 3.772 3.772 0 0 1-.829-.053 2.77 2.77 0 0 0-2.647.559c-.117.101-.332.175-.373.238-.355.558-.977.976-.952 1.745a2.065 2.065 0 0 1-.167.778c-.073.455-.067.92.019 1.373.11.66.258 1.313.447 1.955.073.517.211 1.254.966 1.431.129.031.171.099.207.235a1.465 1.465 0 0 0 .826.982.829.829 0 0 1 .368.445c.057.163.069.291.28.287.28-.039.562-.027.836.036.193.073.165.396.496.515.435.1.85.273 1.226.512.553.505 1.245.356 1.819.637.703-.339 1.38.628 2.088.043.768.559 1.372-.03 2.024-.286.584.233.859-.361 1.303-.514.318-.108.1-.545.155-.829a.563.563 0 0 0 .001-.116Z"/><path fill="#C6C7F8" d="M88.38 93.233a5.734 5.734 0 0 1 1.547 2.624c.025.122.185.235.155.408a.562.562 0 0 0 .475.745.34.34 0 0 1 .254.358 1.69 1.69 0 0 1-.238-.002c-.228-.033-.5.111-.676-.08-.144-.155-.317-.41-.282-.581.138-.685-.35-.994-.726-1.38a3.768 3.768 0 0 0-.51-.5c-.28-.194-.091-.312-.026-.527a3.79 3.79 0 0 0 .026-1.065ZM87.65 90.315a1.03 1.03 0 0 1 .36.008c.15.06.094.172-.01.247-.115.083-.16.246-.1.313.46.691.631 1.534.48 2.35a.596.596 0 0 1-.479-.453 2.581 2.581 0 0 1-.01-.479c-.036-.363-.538-.644-.376-.955.19-.363.068-.695.135-1.031ZM85.218 61.374c.151.297-.404.59-.006.899.031.024.01.162-.027.221-.183.288-.792.465-.225.933-.383.306-.18.733-.229 1.108-.069-.028-.196-.054-.197-.084-.023-.836-.06-1.674-.035-2.51a.569.569 0 0 1 .719-.567ZM87.893 55.78a6.847 6.847 0 0 1-1.703 1.703c.073-.338-.2-.784.178-1.006.479-.28.847-.844 1.525-.697ZM98.594 100.529c-.047-.894.566-1.496.972-2.189h.244a2.535 2.535 0 0 1-1.216 2.189ZM84.488 65.265a.998.998 0 0 1 .061 1.263c-.043.142-.064.29-.061.44a.612.612 0 0 1-.127-.937c.186-.267.081-.514.127-.766Z"/><path fill="#C6C7F8" d="M99.81 98.34h-.244a1.117 1.117 0 0 1 .487-.972c.147-.028.271.099.231.176-.141.273-.093.668-.475.796ZM86.19 81.803c.14-.028.19.066.245.167.127.23-.342.324-.138.533.16.164.13.335.137.516-.283-.081-.512-.244-.475-.557.027-.224-.234-.582.231-.66ZM84.488 67.21a.699.699 0 0 1 0 .974c-.147-.03-.331.08-.43-.085-.024-.037.092-.165.152-.244.148-.192-.18-.588.278-.644ZM85.947 58.212c.02.415.052.837-.486.973-.02-.415-.052-.837.486-.973ZM88.125 34.467l-.603-.565c-.127.08-.163.275-.108.31.385.244.077.8.479 1.021-.325.51.053 1.18-.448 1.68a7.883 7.883 0 0 1-3.74 2.112 7.273 7.273 0 0 1-2.208.203 6.161 6.161 0 0 1-1.567-.303 2.62 2.62 0 0 1-1.507-1.769c-.149-.383-.47-.77-.041-1.27.247-.286-.309-.677-.22-1.089.033-.154-.332-.177-.108-.455.317-.392-.094-.968.198-1.362.194-.352.504-.627.877-.776.363-.087.444-.597.878-.52.361-.67 1.126-.58 1.653-.644.544-.066 1.145-.496 1.741-.084.047.032.179-.212.372-.233a4.253 4.253 0 0 1 2.841 1.047c.125.084.313.268.288.35-.16.53.33.529.562.724.109.092.314.085.397.187.077.095-.257.11-.141.337.26.308.402.697.405 1.099ZM106.112 32.14a1.996 1.996 0 0 1-.72 1.896c-.35.337-.503.81-.97 1.114a5.494 5.494 0 0 0-.992 1.09c-.428.509-1.121.453-1.612.814-.577-.51-1.357-.06-2.003-.46a4.223 4.223 0 0 1-1.46-1.115c-.236-.246-.582-.047-.844-.327a7.717 7.717 0 0 1-1.421-1.732 3.016 3.016 0 0 1-.27-1.475 3.443 3.443 0 0 1 1.795-2.456c.878-.34 1.778-.62 2.694-.839.69.279 1.458-.045 2.121.239.252.102.523.147.794.132.532.04 1.051.189 1.524.437a1.345 1.345 0 0 1 .936 1.063c.119.54.579 1.002.428 1.618Z"/><path fill="#FF4747" d="M95.537 99.811c-.28-.453-.972-.642-.842-1.356-.491-.11-.648-.339-.272-.759-.282-.223-.282-.626-.593-.856a1.275 1.275 0 0 1-.574-1.205c.052-.364-.225-.565-.32-.85-.105-.316-.605-.442-.649-.817-.041-.35-.182-.675-.223-.995-.045-.36-.385-.604-.288-.99a.494.494 0 0 0-.094-.445c-.62-.8-.606-1.851-1.045-2.723-.19-.378.103-.8-.164-1.147-.353-.458.074-1.1-.387-1.544-.433-.417-.228-.977-.236-1.475-.005-.364-.361-.584-.278-.997a.922.922 0 0 0-.198-1.01.448.448 0 0 1 .06-.548c.177-.147.134-.235-.017-.35-.39-.296-.403-.816-.692-1.17-.116-.143-.16-.276-.035-.415a.573.573 0 0 0-.077-.917.508.508 0 0 1-.234-.511c.155-.686-.323-1.28-.28-1.95-.407-.238.285-.536-.032-.754-.378-.26.31-.494-.019-.772-.32-.27-.03-.713-.176-1.013a1.131 1.131 0 0 1-.1-.72c.185-.87-.329-1.703-.107-2.55.088-.337-.582-.473-.152-.83.268-.223.084-.53.136-.795a6.17 6.17 0 0 1 .092-.931c.103-.307-.115-.707-.078-1.053.07-.656-.266-1.362.222-1.97-.471-.562-.184-1.226-.223-1.84-.033-.536-.195-1.149.423-1.52a2.944 2.944 0 0 1 .535-1.602c.018-.028 0-.08.002-.12.032-.418-.62-.855.01-1.248.417-.262.37-.765.615-1.08a3.758 3.758 0 0 1 2.035-1.212 5.531 5.531 0 0 0 1.243-.239c.526-.267 1.033.267 1.583.235.813.704 1.893.968 2.715 1.675.382.43.856.767 1.386.99.187.054.098.277.18.396.3.433.497.923 1.089 1.136a1.055 1.055 0 0 1 .618.946c.02.245.097.726.271.818.328.174.348.367.448.675a8.16 8.16 0 0 0 .425 1.526c.225.416-.178 1.025.263 1.471a.353.353 0 0 1 0 .347c-.442.41-.126.855.09 1.097.24.268-.171.398.004.537.195.154.157.35.157.545.001 1.175.005 2.35-.002 3.524.029.234-.026.472-.155.67a1.06 1.06 0 0 0-.153.51c-.008.18.031.36.112.521a2.187 2.187 0 0 1 .063 1.809c-.104.303.224.418.167.71-.034.177-.453.277-.122.568.179.159-.404.403-.045.66-.081.82-.123 1.646-.268 2.455-.05.226-.075.457-.075.688a4.838 4.838 0 0 1-.383 2.431c-.372.524-.211 1.083-.317 1.61-.114.404-.2.815-.258 1.23-.054.378-.181.74-.374 1.069-.032.068-.143.153-.127.183.403.77-.3 1.394-.281 2.133.017.666-.552 1.254-.477 1.976-.376.267-.217.664-.212 1.001a1.748 1.748 0 0 1-.566 1.468 1.04 1.04 0 0 0-.42 1.046 12.977 12.977 0 0 1-.778 1.617c-.493.111-.537.538-.687.913-.2.486-.426.96-.677 1.42-.114.214.086.493-.182.673ZM102.728 124.363c-.652.256-1.256.845-2.024.286-.708.585-1.385-.382-2.088-.043-.574-.281-1.266-.132-1.819-.637a3.936 3.936 0 0 0-1.226-.512c-.33-.119-.303-.442-.496-.516a2.323 2.323 0 0 0-.835-.035c-.212.004-.224-.124-.281-.287a.828.828 0 0 0-.368-.445 1.46 1.46 0 0 1-.825-.982c-.037-.136-.08-.204-.208-.235-.755-.177-.893-.914-.966-1.431a16.463 16.463 0 0 1-.447-1.955 3.98 3.98 0 0 1-.019-1.374c.106-.245.162-.509.167-.777-.025-.769.597-1.187.952-1.745.04-.063.256-.137.373-.238a2.768 2.768 0 0 1 2.647-.56c.274.049.552.067.83.053.362.035.728.03 1.09-.013.365-.072.525.412.872.256.305-.137.595.406.896.008a.536.536 0 0 0 .086.074c.48.245.985.44 1.505.583.797.176 1.51.618 2.022 1.255.288.411.78.509 1.119.843.24.235.872.254.27.782-.082.071-.044.318.185.348.464.062.462.398.555.769.303.8.299 1.683-.012 2.48-.037.158-.04.323-.008.482a2.128 2.128 0 0 1-.479 1.751c-.061.059-.009.234-.009.355a5.013 5.013 0 0 0-1.459 1.46Z"/></svg>