<svg xmlns="http://www.w3.org/2000/svg" width="201" height="200" fill="none"><path fill="#1C1C1C" d="M141.64 27.326a4.247 4.247 0 0 1-.74-1.934c-.044-.454.236-.975-.233-1.358.329-.601-.029-1.102-.173-1.665a11.397 11.397 0 0 1-.08-1.919c-.032-.417.207-.891-.208-1.246.277-.34.376-.676-.022-1.002.487-.512.092-1.16.264-1.713.283-.614.525-1.245.726-1.89.067-.374.58-.5.722-.912.145-.422.546-.88.876-.9.528.005 1.04.185 1.454.512.507.32.909.78 1.157 1.326.084.228.126.628.566.607.082-.004.259.181.244.241-.147.57.389.828.589 1.22.17.376.305.766.404 1.166.102.336.44.56.384.96.146-.571.195-1.163.146-1.75.009-.254-.022-.467.36-.467.125 0 .262-.267.371-.427a1.582 1.582 0 0 1 2.367-.443c.361.283.93.206 1.129.819.148.454.8.629.929 1.195.036.158.296.166.389.009.104-.155.188-.322.247-.5a7.077 7.077 0 0 1 2.355-3.483 2.067 2.067 0 0 1 2.691-.213c.264.195.479.45.625.744.141.423.317.835.526 1.23.278.328.432.743.436 1.174a.4.4 0 0 0 .381.349.461.461 0 0 0 .316-.33 3.72 3.72 0 0 1 1.577-2.753 1.54 1.54 0 0 1 2.096.292c.343.524.726 1.02 1.148 1.483.249.224.691.524.302 1a1.069 1.069 0 0 1 .488 1.135.727.727 0 0 0 .182.533c.155.249.357.54.071.875a.535.535 0 0 0-.055.235.536.536 0 0 0 .051.237c.266 1.121.345 2.278.235 3.425.047.42-.333.776-.037 1.278.195.33.037.87.037 1.315v1.457c.027.445.022.89-.016 1.334-.053.36.305.53.275.875-.026.286-.362.419-.271.751.031.241.036.484.014.726.008.236-.057.597.065.684.317.224-.155.402.017.534.336.258-.414.575.098.87.375.218-.298.599.01 1.004.176.233.045.7.051 1.062.023.2.019.404-.011.604-.047.174-.36.317-.217.497.173.216.228.349.006.531.242.12.187.41.339.59a.982.982 0 0 1 .128 1.082c-.014.034.007.082-.003.12-.127.488.463.958.207 1.333-.325.477-.143.927-.194 1.383-.028.256-.113.552.169.782a.451.451 0 0 1 .05.442 2.189 2.189 0 0 0-.212 1.609c.026.536-.259 1.126.199 1.611-.41.797.497 1.7-.201 2.474.482.548.175 1.08-.006 1.631a.953.953 0 0 0 .174.843c-.429.264.184.392.094.685-.07.227-.303.361-.282.617.039.2.036.404-.01.602-.098.255.358.345.138.582-.168.182-.177.339.006.504a.271.271 0 0 1 .111.31.267.267 0 0 1-.06.102c-.549.588-.411 1.315-.424 2.012-.005.243-.001.486-.001.729-.334.06-.296.239-.151.458.057.087.101.18.151.272-.069.028-.2.061-.198.085-.025.859-.133 1.714-.323 2.552a19.629 19.629 0 0 1-1.001 4.555c-.103.288-.163.59-.177.895-.018.242.073.521-.019.721-.19.41-.585.751-.683 1.17-.102.44 0 .969-.302 1.331-.319.44-.489.97-.485 1.514-.036.339-.485.524-.557.965-.036.22-.042.307.094.436a3.457 3.457 0 0 0-.419.432 19.438 19.438 0 0 1-1.463 2.429c.114.959-.758 1.46-1.056 2.234-.132.343-.576.573-.259 1.026-.324.052-.067.495-.464.6a.979.979 0 0 0-.741 1.075c-.433.73-.93 1.42-1.485 2.063a11.22 11.22 0 0 0-1.147 1.796c-.456.973-1.402 1.605-1.745 2.658-.072.219-.547.249-.708.533-.486.855-1.363 1.397-1.814 2.283-.06.118-.165.292-.37.263-.39.213-.766.438-.729.972-.377.36-.985.431-1.216.973a8.072 8.072 0 0 0-2.084 1.716c-.145.19-.328.346-.537.459-.512.173-.676.366-.174.744.157.118.125.283.117.437-.022.4.064.703.529.788a14.234 14.234 0 0 1 1.816 2.223c-.045.562.439.805.705 1.144a15.063 15.063 0 0 1 1.612 1.89c.145.263.519.243.651.444.104.239.186.488.243.743.235.613.785.881 1.168 1.321.052.06.309-.008.3.11-.057.775.637 1.031.974 1.533.251.374.764.392.892.816.139.466.535.569.906.707.548.204.462.789.612 1.172.123.314.192.5.502.628.495.212.896.596 1.129 1.082a8.83 8.83 0 0 0 1.165 1.442c.202.237.495.403.427.801-.04.228.199.361.35.449.649.381 1.307.731 1.36 1.613.003.061.114.11.163.173.184.24.69.167.58.729-.057.289.569.43.461.887-.047.201.185.194.267.283.536.468 1.045.967 1.523 1.494.284.401.547.816.786 1.245.28.426.609.818.981 1.167.338.379.659.77.974 1.164.289.36.761.564.825 1.111.011.095.144.203.246.256a4.84 4.84 0 0 1 1.881 1.874c.145.235.369.539.597.578a.788.788 0 0 1 .626.706c.048.407.151.692.543.725.464.038.436.472.665.692.345.332 1.023.524.978 1.005-.056.603.473.781.59 1.241.091.542.384 1.029.82 1.364.258.174-.075.666.339.823-.019.707.464 1.189.788 1.738.247.658.258 1.381.03 2.046a14.264 14.264 0 0 1-1.218 1.673 1.814 1.814 0 0 1-1.152.658c-.637-.038-.983.42-1.488.568-.137.04-.189.242-.389.237a8.623 8.623 0 0 1-1.574-.03c-.445-.097-.813.341-1.275.047a.902.902 0 0 0-.82 0 2.17 2.17 0 0 1-1.495.211c-2.238-.019-4.458.425-6.702.254a26.252 26.252 0 0 1-3.29.285 14.854 14.854 0 0 1-3.796.17c-.964-.024-1.865.345-2.814.27-.303-.024-.649.144-.899-.181a.226.226 0 0 0-.212-.052c-.653.386-1.41.082-2.064.302a1.783 1.783 0 0 1-1.658-.042.516.516 0 0 0-.464-.01c-.498.424-1.077.144-1.61.231-.851.132-1.75-.273-2.567.229-.213-.275-.402-.303-.683-.038-.28.264-.427-.249-.725-.202-.316.05-.755-.12-.947.039-.376.313-.642-.213-.91-.02a1.564 1.564 0 0 1-1.12.232c-1.681-.15-3.325.402-5.006.249-.118-.01-.237 0-.351.029a2.863 2.863 0 0 1-2.134 0c-.187-.05-.426-.117-.563.034-.272.3-.602.166-.904.171-1.093.017-2.188.007-3.282.007-.405 0-.812-.024-1.215.007a4.259 4.259 0 0 0-1.044.103c-.272.087-.691-.13-1.065-.115-.485.02-.972.005-1.458.005a7.62 7.62 0 0 1-1.334-.017c-.445-.081-.838.243-1.283.071-.164-.063-.269.285-.483.186a3.519 3.519 0 0 0-2.604-.025 3.952 3.952 0 0 1-1.691.009c-.624-.101-1.122.309-1.726.291-.293-.009-.52-.345-.917-.065-.271.191-.794.086-1.187.018-.239-.042-.3.393-.579.125-.344-.329-.637.031-.945.136a.346.346 0 0 0-.003-.12c-.015-.034-.054-.058-.083-.087a.81.81 0 0 1-.951.175c-.312-.244-.46.042-.673.026-.42-.031-.788.407-1.272.028-.334-.262-.697.236-1.096.228a6.07 6.07 0 0 0-1.971.211c-.617.192-1.343-.171-1.958.263-.037.026-.168-.018-.205-.067-.305-.403-.772.25-1.066-.17-.61.439-1.307.177-1.963.241-.277.026-.633-.078-.819.059-.454.335-.929.141-1.387.167-.168.009-.347-.335-.529.011a14.596 14.596 0 0 0-2.688.242c-.521.049-1.05.009-1.576.009-.405.027-.81.022-1.214-.015-.33-.053-.567.359-.737.237-.617-.441-1.306.391-1.878-.163-.592.37-1.303-.028-1.854.218-.607.27-1.189.034-1.79.161a9.314 9.314 0 0 1-2.784.029c-.97-.096-1.866.294-2.82.272-1.417-.034-2.836-.009-4.255-.009a1.7 1.7 0 0 0-.603.011 1.701 1.701 0 0 1-1.752-.006.287.287 0 0 0-.238-.001 7.635 7.635 0 0 1-3.063.229 6.767 6.767 0 0 0-2.688.312c-.352.737.129 1.344.137 2.003.01.689 0 1.378.006 2.067.014.074.04.144.078.209a5.8 5.8 0 0 1 .39 1.051c.043.403.048.81.013 1.213-.022.829.407 1.611.252 2.454-.01.054.115.127.113.19-.02.76.747 1.349.465 2.162.306.344-.055.874.196 1.12.354.347.11.754.276 1.118.128.298.183.623.159.946.034.597.2 1.178.486 1.703.037.184-.12.465.244.486-.003.265-.452.423-.089.815.207.315.333.675.367 1.05.072.808.214 1.608.424 2.391.165.258.264.552.291.857-.022.329-.194.726.15 1.014.082.067.065.097-.022.175-.57.515-1.007 1.224-1.904 1.242a.187.187 0 0 0-.157.069.188.188 0 0 0-.033.17c-.317-.127-.479.233-.75.241-.323.009-.647.001-.97.002a.89.89 0 0 0-.357.018c-1.019.516-2.178.596-3.209 1.047-.2.118-.433.166-.663.137-.472-.125-.776.424-1.239.258-.496-.177-.924.151-1.343.284a4.06 4.06 0 0 1-1.005.206.188.188 0 0 0-.158.069.189.189 0 0 0-.034.17c-.717-.185-1.352.319-2.055.243-.114.493-.827.008-.837.429-.015.651.627.077.807.312.272.355.702.224 1.037.433.316.197.852.042 1.29.042.38-.115.607.317.994.255a7.076 7.076 0 0 1 1.089-.012c.484.028.97.023 1.453-.014a1.016 1.016 0 0 1 .99.543.754.754 0 0 1-.477 1.174l-2.346.486c-.773.042-1.543.14-2.303.293-.534.025-1.045.525-1.591.826.601.269 1.19.586 1.815.795a4.234 4.234 0 0 0 1.59.504c.6-.043 1.1.441 1.705.257.805 0 1.615.049 2.413-.026.286-.027.517-.255.732.121.133.234.449.334.515.671a1.674 1.674 0 0 1-1.12.894 1.982 1.982 0 0 0-.904.465c-.265.235-.741.138-.906.55-.07.029-.158.039-.204.089-.401.43-.397.429.107.67.068.033.105.133.174.165.387.181.885-.16 1.232.252.007.009.113-.097.164-.091.396.052.83.296 1.178.111a4.684 4.684 0 0 1 1.97-.223c.336-.077.67.212.944.122.754-.248 1.572.111 2.242-.162a8.085 8.085 0 0 1 2.225-.203c.387-.052.77.001 1.172-.089.35-.109.714-.164 1.08-.162.466.091.95.007 1.358-.236.54.496 1.09-.011 1.62.025 1.766.118 3.493-.366 5.25-.27.284.02.568.019.851-.003.39.03.782-.034 1.143-.186a1.408 1.408 0 0 1 1.269.04c.255.148.369.179.607-.011.264-.211.62-.052.935-.076.36-.027.79.107 1.075-.044.956-.505 2.053.113 2.978-.447.54.373 1.083-.031 1.621-.044.194-.004.471-.242.75-.195.426.009.849-.072 1.24-.239a.647.647 0 0 0 .451-.24.645.645 0 0 0 .134-.494 2.6 2.6 0 0 1 .032-1.197c.167-.323-.032-.632.174-.953a.721.721 0 0 0-.262-.955c-.244-.157-.293-.378-.033-.579a.256.256 0 0 0 .076-.322c-.314-.31-.469-.85-.325-1.073.358-.555-.331-.866-.16-1.332.103-.283-.354-.562-.013-.911.092-.094.027-.433-.047-.679-.164-.536-.762-1.051-.182-1.678.03-.033.001-.165-.042-.216-.418-.501-.087-1.088-.195-1.623.347-.217.068-.446-.006-.648a9.3 9.3 0 0 1-.236-3.062c.011-.466-.061-.93-.213-1.37a3.253 3.253 0 0 0-.492-1.013c.318-.32.202-.726.215-1.104.01-.284.106-.628-.017-.84a4.53 4.53 0 0 1-.42-1.882 6.824 6.824 0 0 1-.3-2.084.685.685 0 0 0-.099-.564c-.311-.44-.57-.901-.149-1.453.098-.128-.007-.397.02-.596.05-.378-.56-.686-.15-1.071.453-.427-.188-.661-.137-1.064.168-.739.1-1.511-.195-2.209a.532.532 0 0 1 .002-.472c.438-.511.203-.757-.316-.911-.214-.064-.184-.22-.183-.377.002-.283.02-.569-.003-.85a1.281 1.281 0 0 1 .977-1.451c.364 0 .73-.009 1.093.003.343.085.645.288.855.572.15.187.295.431.497.511.43.17-.176.563.195.704-.56.667.302 1.309.035 1.971.384.254.08.791.276.961.415.359-.253.534-.036.806.23.287.051.586.021.892a2.37 2.37 0 0 0 .178 1.008c.306 1.036.48 2.106.517 3.186.054.676-.353 1.394.248 2.017.066.068.017.335-.067.437-.12.148-.19.24.004.353a.711.711 0 0 1 .311.84c-.09.464.332.92.007 1.38.365.228-.065.636.229.927.226.225-.293.508-.022.903.189.276.033.785.038 1.19-.014.158 0 .316.045.467a5.63 5.63 0 0 1 .442 2.614c-.068.389.016.79.235 1.119.157.202.062.524.147.706a.635.635 0 0 1-.105.849.23.23 0 0 0-.03.22c.23.299.383.565.09.94-.392.502.473.555.391.972-.062.315.38.67-.136.966-.472.271.39.742-.097 1.097-.109.079.042.288.174.395a.83.83 0 0 1 .175 1.159.83.83 0 0 0 .201 1.154c.2.151.143.348.175.54.056.34-.233.691-.12.939.109.38.145.777.106 1.17a.707.707 0 0 1-.099.566.924.924 0 0 0-.046.974c.447 0 .854-.026 1.257.007.38-.029.756-.104 1.119-.223a14.63 14.63 0 0 1 2.062-.028h1.58c.486 0 1.088.179 1.43-.043.464-.302.882-.023 1.32-.155.383-.115.887-.358 1.209-.248a2.438 2.438 0 0 0 1.997-.007c.073-.036.267.423.329-.033.023-.165.126-.423-.182-.484a.616.616 0 0 0-.242 0c-.265.053-.352-.327-.631-.254-.035.009-.107-.094-.148-.155a.12.12 0 0 1 0-.117.626.626 0 0 0 .077-.634c-.017-.063.26-.287.152-.392-.428-.413-.149-.917-.232-1.369v-1.216a1.481 1.481 0 0 1-.142-1.434c.105-.23-.04-.468.117-.725.133-.217-.22-.38-.377-.544-.175-.182.353-.357-.018-.531a.347.347 0 0 1-.035-.306c.332-.245.203-.587.206-.89a5.616 5.616 0 0 0-.217-2.09 4.276 4.276 0 0 1-.027-1.084c-.025-.306.081-.611-.108-.926-.159-.265.396-.618.035-.895-.505-.389.052-.659.121-.919.117-.435-.536-.657-.178-1.081.289-.341.092-.768.132-1.155a.79.79 0 0 0-.042-.463 1.935 1.935 0 0 1 .107-1.978c.036-.085.198-.07.115-.261a7.973 7.973 0 0 1-.161-2.838c-.026-.41-.154-.849.206-1.253a.89.89 0 0 0-.001-.815.748.748 0 0 1 .022-.784c.142-.346-.305-.506-.26-.871a6.802 6.802 0 0 0 .002-1.693 4.87 4.87 0 0 1-.018-1.505c.073-.419.261-.967-.209-1.349.216-.417.3-.889.243-1.355-.004-.119.041-.294-.021-.349-.499-.447-.029-1.078-.325-1.57-.308-.51-.078-1.093-.137-1.639-.017-.163 0-.332.24-.313.283 0 .567.012.849-.003.34-.019.496.195.608.457.266.619.084 1.407.724 1.892.059.044.003.233.009.354.032.379.095.755.187 1.124.174.458.246.948.211 1.436-.078.298-.203.471.073.684-.399.223-.061.514.034.625.252.292.017.632.194.945a.65.65 0 0 1-.197.86c.448.239-.254.591.128.968.266.262.171.886-.005 1.35a1.695 1.695 0 0 0-.097.706c.035.277.183.518-.043.775.445.737.15 1.553.249 2.326.084.654-.246 1.352.226 1.971a.5.5 0 0 1-.03.457.874.874 0 0 0 .009 1.17c.104.136.001.277-.105.414a.51.51 0 0 0 .05.741c.195.199.043.461.088.69-.326.002-.235.25-.241.426.017.473 0 .947-.051 1.418-.035.193-.349.368-.071.573.187.138-.012.527.363.502a4.596 4.596 0 0 1-.214 1.336c-.122.47.527.806.457 1.339a1.551 1.551 0 0 0 0 1.702c-.077.338.173.728-.17 1.024a.364.364 0 0 0-.105.211.375.375 0 0 0 .044.232c.351.345.142.823.337 1.205a1.684 1.684 0 0 1 .008 1.469 1.536 1.536 0 0 0 .013 1.236c.289.529.403 1.135.326 1.732a3.423 3.423 0 0 1 1.704.187c.376.063.813-.166 1.118.235l1.159.074c.372-.011.733.123 1.009.374a.71.71 0 0 0 .463.042 4.663 4.663 0 0 1 2.076.284 4.801 4.801 0 0 0 1.611.201 8.248 8.248 0 0 0 2.102-.187 1.948 1.948 0 0 1 1.832.19c.377.305.629-.506 1.07-.13.369.315.851.067 1.279.126.055.008.13-.075.185-.127.245-.229.541-.053.806-.11.336-.073.543.403.867.234.3-.18.649-.261.998-.231.193.025.303-.269.366-.213.502.446 1.084.152 1.621.197.584.11 1.188.033 1.725-.222a.677.677 0 0 1 .36-.005 4.072 4.072 0 0 0 1.794-.176.783.783 0 0 1 .335-.066c1.59.015 3.18-.076 4.759-.27.464-.013.883.22 1.39.057a5.036 5.036 0 0 1 1.569-.032 13.91 13.91 0 0 1 2.451-.245c.394-.408.907-.258 1.357-.223.533.041.953-.387 1.48-.263a.34.34 0 0 0 .003.119c.014.034.064.088.079.082a4.697 4.697 0 0 1 1.825-.426c.859.042 1.625-.353 2.653-.3a6.279 6.279 0 0 0-1.894-.884 18.304 18.304 0 0 0-1.936-.293.192.192 0 0 0-.105-.224.19.19 0 0 0-.088-.015 8.015 8.015 0 0 0-.849-.002.91.91 0 0 1-.876-.681.845.845 0 0 1 .257-.972c.352-.315.813-.387 1.303-.782-.566 0-1.001-.029-1.43.008a3.645 3.645 0 0 1-1.643-.245.785.785 0 0 1-.474-.849c.004-.395.059-.704.461-.859l1.255-.487a7.088 7.088 0 0 1 3.052-.489c.111.013.24.039.324-.089.35-.534 1.065-.362 1.558-.848a2.902 2.902 0 0 1-1.47-.335c-.455-.154-1.029.019-1.388-.419-.498.561-.987.036-1.483 0-.519-.038-1.044-.008-1.566-.008-.028-.069-.057-.199-.085-.199a3.357 3.357 0 0 1-1.22-.284 1.6 1.6 0 0 0-1.631-.024.612.612 0 0 1-.677-.068c-.404-.374-.919-.318-1.406-.426-.741-.164-1.488-.303-2.23-.462a1.767 1.767 0 0 1-1.528-1.899c-.051-.656.353-1.201.273-1.843a2.478 2.478 0 0 1 .194-1.125c.094-.269.451-.6.255-.834-.293-.347-.245-.547.067-.773.224-.163.146-.267-.002-.443a.472.472 0 0 1-.024-.455c.424-.497.126-1.08.24-1.605.071-.324-.219-.487-.25-.751-.043-.371.644-.149.51-.622-.027-.095.317-.144.103-.341-.257-.237-.102-.41.085-.587.14-.134.337-.25.271-.492-.102-.38.31-.724.026-1.149a.608.608 0 0 1 .156-.762c.263-.206.505-.446.096-.753.467-.426-.04-.834-.014-1.239.035-.525.229-1.038.31-1.562.086-.557.599-1.078.339-1.627a.82.82 0 0 1 .009-.945c.189-.317-.335-.676-.19-1.086.025-.07.028-.161.075-.209.287-.292.24-.71.38-1.057a2.7 2.7 0 0 0 .024-1.2 1.76 1.76 0 0 1 .367-1.184c.3-.439.849-.324 1.159.148.28.46.435.984.45 1.522.088 1.005-.264 1.95-.266 2.934.113.278.436.581.216.849a1.845 1.845 0 0 0-.166 1.604c.024.259.009.52-.043.775-.043.373-.452.752-.007 1.129a9.422 9.422 0 0 0-.331 1.68c-.02.098-.173.147-.159.297.092.949-.41 1.851-.234 2.802.113.61-.388 1.107-.27 1.707-.502.102.268.522-.183.719-.144.062-.097.521.192.707a.615.615 0 0 0-.231.621c-.216-.016-.244.125-.244.29l.001.926c-.046.229.112.497-.09.69a.739.739 0 0 0-.113.889 1.366 1.366 0 0 1 .02 1.427.744.744 0 0 0 .02.765.746.746 0 0 0 .682.346 4.924 4.924 0 0 1 2.595.503c.843-.172 1.622.267 2.453.255.341-.006.752-.177 1.022.148.277.333.483-.349.783.01.221.264.716-.117.98.266.572.058 1.148.082 1.724.07.192-.008.428-.115.564.057.195.247.438.156.666.164.55.019 1.095-.069 1.531.465a.914.914 0 0 0 .845.284c.484-.109.845.317 1.233.512a1.07 1.07 0 0 1 .366.985 2.493 2.493 0 0 1-1.014 1.41 3.97 3.97 0 0 1-1.134.506c-.344.055-.657.23-.883.495-.152.188-.171.426.098.438a1.95 1.95 0 0 1 1.314.662c.194.19.183.32.09.6-.142.421-.532.637-.665 1.068-.098.314-.596-.016-.87.181.301.491.946.304 1.312.666 1.056.02 1.365 1.007 1.995 1.572a.454.454 0 0 1 .082.342.444.444 0 0 1-.19.295c-.646.399-1.09 1.062-1.925 1.236-.685.144-1.336.542-2.024.659-.684.161-1.381.266-2.083.313a6.198 6.198 0 0 0-1.823.55 13.334 13.334 0 0 1-3.141.667c-1.22.137-2.447.202-3.675.194.085.384.326.244.473.245 1.581.011 3.162.007 4.742.007.283.02.567.016.85-.012.205-.035.327.472.552.067.463.233.886-.151 1.36-.074a6.353 6.353 0 0 0 1.577.008c.496-.045 1.051.246 1.485-.221 1.027.522 2.119.148 3.179.217 1.093.059 2.188.058 3.281-.005.304-.014.533.325.916.052.243-.172.707-.032 1.072-.032h.973c.364 0 .731-.021 1.094.005.498.037 1.018-.146 1.495.219a.71.71 0 0 0 .68-.045c.409-.346.855-.141 1.272-.159.283-.012.62.444.849.202.379-.399.594.153.922.042.32-.048.644-.057.966-.025.264-.016.536.085.786-.173a.455.455 0 0 1 .64.058c.168.183.409.038.553.131.291.19.41-.417.699-.107.193.206.458.072.689.09.282.022.567-.007.85.009.228.013.485-.099.665.159.113.163.317.109.448.072 1.396-.403 2.79.25 4.177-.001.468-.086.79.281 1.239.272a1.946 1.946 0 0 1 1.266.171c.286.185.793-.005 1.182.071.271.053.401-.334.588-.168.258.228.532.148.795.14.263-.008.437.194.633.227.339.056.738-.161 1.051-.065.382.105.781.131 1.174.077.921-.085 1.77.387 2.7.282a.74.74 0 0 1 .701.671c-.003.194.022.685-.49.785-.468.091-.862.496-1.41.233-.227-.11-.528.225-.613.198-.442-.142-.799.273-1.283.07-.414-.174-.961-.002-1.443-.046-.459-.041-.928.155-1.389-.181-.214-.155-.717.078-.921-.081-.302-.234-.456.025-.672.02-.23-.006-.483.108-.693-.079-.087-.079-.155-.174-.301-.158-1.21.141-2.382-.359-3.588-.234-.921.095-1.767-.36-2.698-.27-.924.091-1.863.009-2.795.028a.636.636 0 0 1-.505-.247.525.525 0 0 1-.51.241c-.571-.102-1.175.185-1.738-.224-.185-.135-.553-.008-.835-.024-.455-.026-.895.218-1.354.065-.488.414-.899-.199-1.411-.093a9.75 9.75 0 0 1-1.94.031 1.424 1.424 0 0 0-.363.005c-.241.065-.68-.212-.697.197-.022.549.491.282.732.264.581-.043 1.183.219 1.761-.147.13-.082.437.172.713.183.462.019.883.449 1.396.002.254-.22.523.283.856.227.944.013 1.885.093 2.817.238.539-.017.885.407 1.349.567.242.084.084 1.134-.202 1.28a1.873 1.873 0 0 1-.95.356c-.972-.032-1.955.068-2.915-.042a3.827 3.827 0 0 0-1.504.032c-.48-.437-1.064-.204-1.602-.236-.565-.034-1.134-.008-1.702-.008-.567 0-1.135-.001-1.702.001-1.956.003-3.894-.414-5.858-.248a1.896 1.896 0 0 0-1.322.378 1.863 1.863 0 0 1-1.294.36 4.572 4.572 0 0 1-2.087-.247c-1.561.171-3.086-.345-4.641-.239-.341.023-.727-.152-1.011.215-.047.061-.249.062-.345.017a9.31 9.31 0 0 0-3.185-.238c-.379-.041-.776.124-1.131-.226-.19-.186-.352.246-.614.234a12.664 12.664 0 0 0-1.458 0 3.575 3.575 0 0 0-1.624.195 1.29 1.29 0 0 1-1.261-.089.576.576 0 0 0-.751.023c-.313.222-.746-.02-1.032.136-.223.123-.243.563-.546.696a3.73 3.73 0 0 1-1.865.513c-.404-.034-.876-.208-1.254.188-.112.116-.299.032-.406-.112a.353.353 0 0 0-.441-.086 5.236 5.236 0 0 1-2.459.222c-.808.045-1.622-.019-2.431.021-.455.023-.964-.209-1.368.224a.38.38 0 0 1-.351.001 2.108 2.108 0 0 0-1.997-.006c-.239.046-.484.05-.724.013-1.946 0-3.891-.01-5.837.007a2.664 2.664 0 0 0-1.614.217.715.715 0 0 1-.674-.062c-.225-.197-.454-.104-.669-.169-.506-.152-.94.408-1.347.22a1.998 1.998 0 0 0-1.366-.189c-.898.249-1.821.088-2.693.264a1.75 1.75 0 0 1-1.393-.037.42.42 0 0 0-.356-.001c-.747.432-1.557.169-2.336.233a2.59 2.59 0 0 1-.847-.011c-.294-.078-.497.322-.704.151-.32-.267-.404.27-.71.128a2.166 2.166 0 0 0-.84-.021h-.852a7.311 7.311 0 0 1-.85-.007c-.372-.043-.594.337-.998.271-.321-.052-.714-.16-1.012.191-.07.082-.311.056-.464.026a3.637 3.637 0 0 0-2.232.002c-.116.026-.248-.02-.363.007-.406.096-.736-.5-1.09-.204-.342.285-.68.149-1.02.199-.301.044-.635-.114-.898.201-.07.084-.303.025-.46.045-.42.052-.76-.545-1.29-.038-.282.268-.93-.138-1.357.205-.33-.231-.818-.062-1.09-.451a1.353 1.353 0 0 0-1.719-.345 2.447 2.447 0 0 1-.79.136c-1.216.011-2.433-.011-3.648.015a2.015 2.015 0 0 0-1.045.121c-.222.12-.6-.271-1.004.039-.233.179-.696.045-1.053.077a2.394 2.394 0 0 0-1.05.111c-.25.135-.503-.213-.819-.125a.711.711 0 0 1-.838-.317c-.046-.07-.091-.135-.259-.073-.98.184-1.98.237-2.975.158a15.262 15.262 0 0 0-3.929.201c-.448-.351-.99-.09-1.457-.222-.36-.1-.531.55-.837.18-.359-.436-.545.141-.811.078a1.981 1.981 0 0 0-1.38.005 6.619 6.619 0 0 0-2.819-.231c-.333-.022-.71-.145-1.014.207-.088.101-.416.088-.58.011-.392-.183-.751-.41-1.134-.007-.391-.525-.762-.041-1.145.015-.199.029-.413-.03-.606.013-.287.065-.561-.273-.707-.163-.24.14-.521.193-.796.15-.215.012-.432-.367-.649.005-.856-.454-1.792-.14-2.723-.273v-1.088a5.386 5.386 0 0 1 2.605-.341c1.216-.001 2.432.014 3.648-.009.377-.007.773.135 1.14-.205a.755.755 0 0 1 .79.055.617.617 0 0 0 .842-.011c.266-.198.624-.067.938-.068 3-.009 5.999-.005 8.998-.005h1.01c-.256-.364-.516-.229-.733-.237a9.013 9.013 0 0 0-1.7.013c-.514.08-1.003-.376-1.503-.02a3.145 3.145 0 0 0-1.845-.236.56.56 0 0 1-.595-.461c-.047-.292-.15-.684.22-.865a1.959 1.959 0 0 1 1.057-.391c.404.036.81.036 1.214 0 .418-.038.884.187 1.252-.212a.238.238 0 0 1 .321.047.84.84 0 0 0 1.009.142 5.723 5.723 0 0 1 2.102-.213c1.034.066 2.073.016 3.096-.15.18-.058.54.133.835.166.23.026.406-.463.677-.042a.49.49 0 0 0 .551-.047.563.563 0 0 1 .417-.188.547.547 0 0 1 .416.19.564.564 0 0 0 .573.059c1.33-.26 2.688-.336 4.038-.226.545-.038 1.146.143 1.512-.464.34.199.655-.47 1.002-.03.257-.43.749-.126 1.085-.37-.568.059-1.07-.552-1.663-.116a.152.152 0 0 1-.119.001c-1.028-.436-2.047.192-3.086.026-.43-.068-.963-.22-1.36.213-.038.041-.157.009-.238.005-.384-.019-.669-.448-1.181-.077-.321.233-.933.07-1.414.077a5.452 5.452 0 0 0-1.333.019 15.677 15.677 0 0 1-3.917.217c-.473.01-.849.348-1.361.276-.396-.056-.886-.216-1.23.212-.477-.333-.949.066-1.425.008-1.52-.185-3.003.346-4.52.24-.436-.03-.777.321-1.238.26a1.867 1.867 0 0 0-1.13.195c-.427.214-.972-.047-1.487-.016-.597.037-1.124.316-1.72.306a2.642 2.642 0 0 0-1.731.219c-.108.076-.318.027-.478.008a13.775 13.775 0 0 0-3.176.305 13.075 13.075 0 0 0-4.124.67c-.904.039-1.804.134-2.696.285a5.526 5.526 0 0 0-2.248.402c-.393.168-.813.025-1.252.205-.457.187-1.125.077-1.546.357-.456.303-1.05-.016-1.401.454-.79-.311-1.36.335-2.036.45-.763.129-1.443.461-2.176.644-.14.057-.285.099-.433.124a2.21 2.21 0 0 0-1.255.213 1.37 1.37 0 0 1-.932-.032.387.387 0 0 1-.116-.733 10.98 10.98 0 0 1 3.07-1.388c.15-.023.295-.079.422-.164a8.556 8.556 0 0 1 2.467-.778c.368-.098.706-.273 1.075-.356.101-.022.145-.212.293-.167.576.174 1.065-.191 1.592-.289.393-.073.905.004 1.195-.426 1.233.123 2.26-.645 3.453-.801a9.985 9.985 0 0 0 2.637-.642c.313-.084.641-.093.958-.025.337.036.518-.333.874-.258.958.202 1.869-.331 2.814-.218.32.038.46-.548.834-.153.236.25.4-.218.696-.128.32.033.643.042.966.028.45.062.772-.33 1.24-.273.362.043.812.2 1.12-.217.028-.038.164.019.234-.009.318-.124.52.519.945.086.188-.191.678-.084 1.13-.121-.147-.662.358-1.235.245-1.923-.014-.084.11-.192.172-.287.26-.402.193-.684-.206-.639-.366.041-.642-.233-1.047-.114-.248.073-.518-.551-.985-.403a2.176 2.176 0 0 0-1.623-.506c-.232.002-.677-.256-.665-.34.075-.491-.369-.375-.547-.489a1.092 1.092 0 0 1-.671-.776 1.1 1.1 0 0 1 .263-.992 2.814 2.814 0 0 1 1.593-1.43c-.678-.035-1.056-.397-1.56-.329a.39.39 0 0 1-.402-.201c-.266-.412-.776-.268-1.136-.506-.222-.148-.677.095-.845-.271a5.231 5.231 0 0 1-.367-1.183 1.706 1.706 0 0 1 .802-1.243 9.425 9.425 0 0 1 3.003-.953 3.526 3.526 0 0 0 1.196-.348 8.908 8.908 0 0 1 2.42-.605 8.368 8.368 0 0 1 2.202-.316c.542.027 1.033-.405 1.618-.481.472-.118.926-.3 1.349-.542.1-.045.146-.195.297-.163.803.169 1.54-.246 2.323-.263a4.015 4.015 0 0 0-.328-2.699c-.115-.331.129-.729-.24-.997-.31-.224.405-.519-.032-.755a14.133 14.133 0 0 0-1-3.476c.16-.501-.291-.978-.016-1.509.194-.375-.407-.679-.228-1.107-.275-.188-.244-.468-.25-.751a.842.842 0 0 1 .231-.743c-.297-.125-.166-.508-.42-.686-.13-.09.02-.262.072-.407a1.75 1.75 0 0 0-.07-1.328c-.29-.729-.915-1.492-.343-2.374-.33-.537-.027-1.181-.232-1.686-.158-.391-.057-.823-.235-1.112-.232-.376.05-.613.034-.912-.033-.636-.272-1.242-.254-1.887.004-.118-.175-.243-.25-.16-.398.437-.771.029-1.144-.017-.605-.075-1.111.342-1.727.268a3.828 3.828 0 0 0-1.802.032 2.66 2.66 0 0 1-1.375.173c-.853-.109-1.622.306-2.456.272a10.476 10.476 0 0 0-2.426.018 44.33 44.33 0 0 1-6.836.21c-1.051.049-2.108-.012-3.16.014-1.032.026-2.014-.364-3.063-.268-1.005.092-2.025.015-3.038.023-.213.002-.368-.15-.529-.185-.561-.121-1.1-.47-1.7-.298-.471.135-.777-.391-1.24-.254-.47.139-.71-.429-1.015-.444a7.785 7.785 0 0 1-2.404-.979c-.567-.214-.777-.787-1.288-1.002-.483-.204-1-.337-1.46-.582-.573-.306-.648-.954-.751-1.499a3.452 3.452 0 0 1 .186-1.607c.24-.97.411-1.956.509-2.951.03-.211.04-.423.233-.508.37-.162-.004-.436.118-.605.14-.225.291-.441.454-.649.288-.306-.132-.411-.057-.567.227-.475.494-.931.745-1.395.892-.246 1.135-1.141 1.649-1.741a12.697 12.697 0 0 0 1.447-2.189c.186-.342.62-.228.647-.554.09-.579.405-1.099.877-1.447a14.611 14.611 0 0 0 2.415-3.715c.172-.22.357-.428.555-.623.267-.324.754-.516.657-1.066a.13.13 0 0 1 .035-.105 19.096 19.096 0 0 0 1.737-2.19c.519-.549.913-1.189 1.434-1.731.313-.325.213-.918.683-1.171-.041-.405.321-.545.542-.739.214-.187.089-.661.576-.63.098.006-.255-.402.104-.592.163-.085.48.015.503-.373.014-.239.259-.447.234-.753-.017-.21.21-.192.365-.176.25.026.39-.062.349-.329a.53.53 0 0 1 .233-.514c.437-.335.749-.806.886-1.339.039-.168.024-.599.479-.526.094.015.259-.192.336-.328.584-1.034 1.465-1.864 2.003-2.937.097-.193.126-.471.326-.592 1.284-.771 1.549-2.316 2.523-3.329.16-.167.229-.551.5-.545.411.009.102-.52.508-.528.388-.008.257-.274.094-.489-.131-.172-.38-.158-.488-.271-.179-.188-.445-.14-.605-.327a5.901 5.901 0 0 0-1.672-1.233 4.027 4.027 0 0 1-1.38-1.088.7.7 0 0 0-.258-.254 12.96 12.96 0 0 1-2.05-1.444 13.97 13.97 0 0 0-2.205-1.443 1.034 1.034 0 0 1-.458-.488 3.196 3.196 0 0 0-2.448-1.522c-.258-.032-.175-.13-.213-.234a3.548 3.548 0 0 0-1.475-1.534 6.45 6.45 0 0 1-.48-.63c-.217-.267-.583-.426-.535-.863a.663.663 0 0 0-.318-.069c-.248.037-.49-.153-.476-.27.072-.56-.673-.673-.607-1.199.025-.203-.148-.306-.266-.367-.277-.145-.613-.21-.464-.647-.711-.344-.396-1.373-1.133-1.7-.034-.015-.08-.057-.08-.086.002-1.074-.835-1.762-1.222-2.656-.03-.07-.149-.115-.155-.178-.101-1.122-.964-1.96-1.13-3.061-.068-.445-.526-.797-.25-1.341.114-.227-.24-.341-.382-.501-.164-.186-.355-.316-.036-.534.046-.031.064-.297-.073-.306-.493-.031-.447-.38-.394-.673.145-.808-.336-1.535-.26-2.334.026-.283-.553-.449-.397-.599.36-.346-.22-.419-.12-.712.059-.173.369-.359.173-.566a.701.701 0 0 1-.123-.677 4.532 4.532 0 0 0-.265-1.602c-.037-.23-.446-.412-.088-.69.219-.17-.356-.367.028-.518a4.272 4.272 0 0 0-.137-2.436c-.178-.316.322-.41.085-.692-.173-.206.337-.452-.02-.77-.27-.24-.074-.688-.097-1.041a6.076 6.076 0 0 1 .002-.972c.045-.463-.166-.96.17-1.387a.28.28 0 0 0 .046-.083c-.586-.483-.273-1.08-.232-1.655a8.603 8.603 0 0 0-.013-1.82c-.054-.38.44-.663.241-.848-.338-.314.038-.46.03-.677.058-.338.068-.682.029-1.023a1.608 1.608 0 0 1 .218-1.464c.243-.295.323-.492.007-.795a.595.595 0 0 1-.001-.58c.556-.67.367-1.54.654-2.287.113-.503.151-1.02.113-1.534.549-.208.304-.871.678-1.179.01-.69.185-1.369.511-1.978.178-.479.052-1.231.86-1.324.185-.487.443-.944.766-1.353.027-.036-.248-.175-.128-.238.625-.333.57-1.095 1.02-1.536.39-.384.71-.844 1.113-1.212.406-.37.787-.851 1.451-.734.548-.147 1.198-.165 1.216-.973.572-.241 1.191-.42 1.46-1.073.692-.172 1.085-.797 1.682-1.11.13-.067.364.005.443-.083.923-1.032 2.142-.541 3.242-.647a.458.458 0 0 1 .431.347c-.003.276.288.376.282.62-.154-.028-.28.11-.233.185.227.502.307 1.058.232 1.604.003.154-.041.361.159.389.18.024.527.098.534-.1.019-.475.316-.355.575-.377.177-.016.432.093.435-.242.261-.044.428-.297.75-.259.386.042.776-.025 1.125-.194.622-.277 1.125.343 1.7.518.052.016.069.21.07.322-.024.466.053.931.225 1.364a1.606 1.606 0 0 1 .057 1.506c-.228.446.096 1.08-.266 1.588-.102.145.152.35.258.248.325-.31.822-.138 1.141-.513a1.286 1.286 0 0 1 1.138-.444c.175.022.28-.082.421-.16a6.032 6.032 0 0 1 2.312-.55 1.338 1.338 0 0 1 1.51 1.495c-.042.812-.264 1.618-.36 2.423-.115.963-.832 1.616-1.045 2.486a10.297 10.297 0 0 1-1.752 2.91c-.16.265-.24.57-.231.88-.391.144-.596.505-.882.77-.174.161-.154.325.093.45.701.249 1.373.574 2.005.969-.028.154.065.221.193.24.418.065.433.24.39.66-.028.266.257.615.26 1.012a6.588 6.588 0 0 1-.103 1.094c.012.435-.024.87-.107 1.296-.111.262-.016.313.092.445-.62.236-.488 1.098-1.11 1.33-.07.026-.18-.018-.232.022a1.106 1.106 0 0 0-.34.342c-.148.295.273.848-.423.9-.415.03-.142.745-.668.692-.041-.004-.094.107-.141.165l-.02 1.63a6.696 6.696 0 0 1-.178 2.221c-.31.719.156 1.514.302 2.27.018.097.199.183.134.303-.47.867.234 1.485.53 2.135.148.476.24.967.276 1.463.144.638.487 1.182.686 1.79.237.599.559 1.16.955 1.666.272.39.732.665.937 1.077.206.416.401.74.869.837.005.41.511.407.6.697.106.344.392.493.597.724.25.302.6.505.985.573.472.172.88.483 1.171.891.468.402.986.74 1.542 1.007.429.38.937.66 1.487.822.3.078.572.237.786.46a.538.538 0 0 0 .96-.306c.073-.561.51-.846.735-1.282.19-.37.665-.594.51-1.13a.207.207 0 0 1 .085-.233.208.208 0 0 1 .082-.032c.796-.243 1.135-.992 1.483-1.588a23.329 23.329 0 0 1 2.352-3.52c.272-.318.066-1.002.764-.999.194-.406.41-.803.574-1.22.08-.206.247-.306.373-.453.332-.384.804-.656.944-1.191.125-.482.647-.73.674-1.315a1.454 1.454 0 0 1 .628-.93 8.006 8.006 0 0 0 1.753-2.188c.552-.764.987-1.613 1.473-2.425.038-.064.074-.196.098-.193.842.104.87-.705 1.033-1.12.139-.352.598-.264.608-.714.007-.284.405-.52.582-.835.202-.36.409-.723.619-1.082.151-.259.171-.61.465-.783-.197-.488.373-.336.523-.609.644-1.164 1.449-2.238 2.132-3.381.155-.225.328-.436.519-.631.263-.232.47-.522.603-.847a7.093 7.093 0 0 1 1.3-2.01 16.739 16.739 0 0 0 1.993-2.948c.113-.277.443-.46.649-.707a.39.39 0 0 0 .027-.32.218.218 0 0 0-.311-.087 2.933 2.933 0 0 1-2.238.477c-.689.005-1.378.005-2.067 0a6.097 6.097 0 0 1-2.75-.41c-.435-.208-1.072-.123-1.56-.335-.501-.178-.98-.41-1.43-.692-.504-.36-1.084-.684-1.623-1.024-.205-.129-.659-.07-.643-.545.008-.262-.596-.04-.493-.51.02-.088-.201-.232-.317-.344a3.635 3.635 0 0 1-1.373-2.308c-.053-.174-.19-.309-.258-.502a2.867 2.867 0 0 1-.228-1.408 13.09 13.09 0 0 0-.01-1.943 5.456 5.456 0 0 1 .134-1.346c.075-.454.299-.87.636-1.183a.563.563 0 0 0 .229-.394c.025-.306-.172-.82.125-.876.48-.091.283-.376.362-.6.048-.14.185-.329.304-.346.44-.063.319-.422.456-.648.123-.204.063-.642.534-.653.387-.01-.149-.808.507-.713.157-.413.777-.098.799-.338.05-.557.587-.43.82-.735a2.941 2.941 0 0 1 1.81-.87c.113-.022.229.02.329-.094.713-.812 1.785-.8 2.705-1.087a8.23 8.23 0 0 1 2.197-.317c.997.118 1.985.307 2.956.565.43.047.821.543 1.209.862.267.284.582.52.93.695.344.127.704.25.791.742.04.22.352.45.593.565.53.268.987.658 1.336 1.138.27.275.574.517.903.72.569.448.43.46.778-.186.342-.635.258-1.433.861-1.967.277-.245-.096-.801.33-1.07-.137-.447.21-.653.459-.903a401.41 401.41 0 0 1 2.062-2.065c.172-.172.437-.315.5-.52.238-.794.942-.785 1.537-.97.576-.18 1.173-.257 1.749-.47a5.217 5.217 0 0 1 3.081-.059c.613.084 1.209.273 1.837.31a1.836 1.836 0 0 1 1.348.526c.15.176.345.162.513.244a5.92 5.92 0 0 1 1.867 1.375c.271.257.555.5.852.726.257.233.121.792.658.799.142 1.026 1.272 1.688 1.047 2.849.538.524-.063 1.344.487 1.865-.523.703.436 1.545-.223 2.27a.833.833 0 0 0 .006.81c.217.25-.011.44.064.635a.75.75 0 0 0 .137.173c-.463.325-.356.878-.438 1.312-.193.53-.426 1.046-.697 1.541-.204.49-.471.953-.794 1.375-.578.77-1.245 1.47-1.988 2.083-.338.24-.731.391-1.143.44a8.529 8.529 0 0 1-2.896.672 27.094 27.094 0 0 0-2.794-.023 2.853 2.853 0 0 1-1.608-.216c.464.354.82.831 1.029 1.377.035.148.317.218.451.322.542.329.976.81 1.249 1.382a1.022 1.022 0 0 0 .655.696c.205.066.375.307.515.502.175.243.458.277.679.425-.269.188-.199.35.029.517a21.548 21.548 0 0 1 2.82 2.293c.475-.06.276.486.568.63.197.096.596.064.509.486.708.248.893 1.108 1.6 1.37a.545.545 0 0 1 .31.346 1.24 1.24 0 0 0 .65.819c.894.774 1.66 1.687 2.268 2.702.136.192.291.37.463.53a39.076 39.076 0 0 1 3.153 3.45 4.671 4.671 0 0 1 1.241 1.782c.122.445.631.391.717.655.194.589.778.8 1.048 1.272.255.445.701.66 1.034 1.005.223.21.467.398.727.56.382.264.937.542.874 1.192-.014.145.094.172.206.232.56.295 1.315.41 1.262 1.31-.006.111.17.114.282.15.532.172.838.661 1.265.983.452.307.878.65 1.274 1.025.361.475.674.984.934 1.52.169-.898.934-1.058 1.351-1.582.376-.472.886-.82 1.232-1.342.21-.317.299-.75.673-.936.285-.156.523-.387.688-.667a2.89 2.89 0 0 0 .584-1.1c.613.018.507-.565.549-.836.07-.452.669-.378.642-.817-.029-.47.364-.506.641-.701.184-.13.163-.575.346-.676.412-.226-.112-.982.6-.964.185-.327.115-.786.516-1.002.276-1.266 1.36-2.093 1.772-3.278.067-.178.165-.344.288-.49.207-.273.798-.463.23-.932-.002-.002.041-.053.06-.083.716-1.07 1.068-2.317 1.683-3.442.32-.468.559-.986.707-1.534.117-.648.618-1.188.804-1.85.073-.259-.156-.59.264-.798.311-.153-.055-.647.192-.87.327-.297-.02-.755.26-.984.294-.242.018-.607.314-.865.232-.202.108-.623.061-.923-.057-.363.331-.524.269-.876-.013-.904.064-1.807.23-2.695.014-.621.63-1.243.008-1.866.479-.563.186-1.228.23-1.845.047-.687.046-1.377-.002-2.065-.026-.379.243-.748.119-1.06a2.917 2.917 0 0 1-.095-1.171c0-.476-.478-.884-.24-1.351.21-.414.003-.765-.014-1.144a3.46 3.46 0 0 1-.223-1.833 1.618 1.618 0 0 0-.263-1.574ZM52.142 41.43c-.056-.256.552-.404.145-.675-.158-.106-.538-.255-.631.189a1.816 1.816 0 0 0-1.316.39 2.571 2.571 0 0 1-1.565.617 1.664 1.664 0 0 0-1.19.563c-.502.72-1.435.867-1.894 1.592-.389-.037-.746.602-1.158.052-.821-.12-.627-.754-.666-1.286-.026-.36.081-.533.46-.469.136.023.263-.04.27-.16.037-.713.742-1.166.728-1.886a.71.71 0 0 1 .246-.511c.184-.216.61-.359.292-.77.508-.329-.105-.598-.057-.913.02-.127-.331-.176-.076-.45a.788.788 0 0 0-.013-.884.826.826 0 0 1-.743.232c-.055-.003-.106.13-.175.155-1.016.42-1.965.983-2.82 1.674-.423.307-1.035.478-1.254 1.014a1.195 1.195 0 0 1-.785.79c-.22.063-.205.202-.201.36.004.158.026.302-.18.381-.511.233-1.033.439-1.565.617-.24.063-.53-.136-.83-.155a.722.722 0 0 1-.497-1.147 9.33 9.33 0 0 0 1.293-1.509c1.093-.443 1.327-1.534 1.741-2.446.132-.292.47-.62.422-.764-.09-.32-.14-.65-.146-.983-.005-.062-.08-.119-.092-.136a9.06 9.06 0 0 0-1.94 1.201 9.736 9.736 0 0 0-2.912 2.589c-.2.356-.499.646-.86.835-.514.182.06 1.008-.663.947-.176.454-.38.896-.612 1.324-.283.412-.59.806-.92 1.181.392.41-.14.62-.195.932-.061.34-.401.58-.316.967.047.21-.068.357-.197.527a2.477 2.477 0 0 0-.525 1.601c.007.347-.075.691-.238.998a4.402 4.402 0 0 0-.499 1.982c.004.278.08.64-.061.815-.178.22-.178.5-.38.716-.15.158.02.618-.13.773-.32.331.209.411.12.707-.086.286-.373.48-.3.867.069.367.189.842-.1 1.153-.42.452.365.648.15 1.085-.125.255.007.634-.336.832-.154.088-.272.32-.166.398.52.378-.05 1.048.417 1.417-.524.358.296.807-.126 1.297-.28.326.024 1.023-.216 1.523.183.898.236 1.818.155 2.73.02.23-.431.38-.2.605.329.32.217.687.185 1.016.013.386.102.765.262 1.116.01.037.257 1.25.24 1.278-.254.42.085.843-.003 1.257-.094.443.613.23.467.494-.218.392.07.69.025 1.028a3.11 3.11 0 0 0 .117 1.452c.182.328.298.688.34 1.06-.053.544.373.974.263 1.48-.135.62.479.853.624 1.33.069.179.106.367.11.558.034.3.104.596.209.88.052.307.202.59.428.805.267.275-.095.726.26.985-.068.627.493.995.654 1.56.206.68.526 1.32.945 1.895.376.57.707 1.17.988 1.794.243.471.478.988 1.094 1.107.038.452.457.622.684.934.181.248.79.147.58.71.285.24.591.459.851.723.664.676 1.719.906 2.124 1.872.519.15.98.333 1.022 1.001.008.138.233.272.47.298.208.022.54.165.574.31.154.666.77.656 1.187.942.287.152.535.368.725.63.322.446.733.82 1.207 1.098.626.36 1.118.914 1.402 1.578a29.609 29.609 0 0 1 2.8 2.224c.38-.543.718-1.113 1.012-1.707.22-.668.796-1.055 1.185-1.585.131-.182.23-.386.293-.601.195-.428.512-.789.91-1.04a.765.765 0 0 0 .253-.258c.323-.774.934-1.372 1.274-2.146.245-.486.578-.922.982-1.286.204-.2.539-.202.483-.654-.029-.236.311-.357.577-.477.325-.146-.01-.6.186-.873a.534.534 0 0 1 .171-.17c.803-.408.984-1.277 1.435-1.943.098-.144.069-.541.096-.54.569.002.405-.782.986-.846.543-.06.266-.86.706-1.108.095-.054.25-.028.32-.097.167-.16-.271-.453.11-.61.032-.014.056-.277-.087-.306-.488-.1-.595-.665-1.114-.797a2.272 2.272 0 0 1-1.73-1.067c-.095-.197-.404-.168-.595-.325-.121-.1-.42-.107-.468-.286a.578.578 0 0 0-.764-.48c-.247.046-.345-.153-.496-.273a10.966 10.966 0 0 0-2.271-1.802 1.082 1.082 0 0 1-.428-.424c-.307-.445-.65-.864-1.025-1.254-.28-.322-.386-.767-.744-1.03.184-.74-.39-1.074-.805-1.488a.466.466 0 0 1-.17-.42c.041-.327.03-.593-.405-.693-.086-.02-.011-.53-.11-.772-.083-.198-.406-.126-.492-.512-.191-.864-.312-1.734-.445-2.604a1.327 1.327 0 0 0-.216-.77 1.63 1.63 0 0 1-.282-1.216c.035-.32.138-.758-.022-.95-.346-.416-.136-.846-.218-1.258-.053-.261.395-.465.027-.797a.809.809 0 0 1 0-.801c.356-.332-.018-.546-.04-.794.02-.663.104-1.323.253-1.969a2.971 2.971 0 0 1 1.196-2.161c.184-.156.464-.325.492-.519.225-.77.618-1.48 1.151-2.08.074-.116.125-.24.079-.326a5.427 5.427 0 0 1-.266-1.964c-.023-.16-.34-.52-.539-.343-.442.395-.921.164-1.377.212a.784.784 0 0 0-.626.266c-.467.593-1.073.348-1.642.22-.135-.03-.24-.199-.358-.304.372-.275-.205-.578-.033-.733.363-.326.446-.83.823-1.13a1.93 1.93 0 0 0 .842-1.081.655.655 0 0 1 .354-.577.953.953 0 0 0 .633-.942c.007-.268.108-.356.359-.33.155.015.343.04.374-.178.043-.303.282-.52.294-.87.007-.187.595-.295.44-.751.282-.18.189-.612.5-.763.371-.18.082-.762.347-.803.661-.1.318-.556.346-.83.04-.23.151-.442.317-.606a1.659 1.659 0 0 0 .435-1.277Zm112.845.487a2.046 2.046 0 0 0-.022-.84c-.148-.293.48-.377.095-.702a.642.642 0 0 1-.025-.772c.393-.314-.094-.447-.07-.688.065-.642.022-1.294.022-1.942.443-.298.17-.594.001-.893-.168-.296-.448-.594-.001-.892a12.807 12.807 0 0 0-.089-2.025c-.086-.336-.029-.807-.188-1.053-.294-.455.062-.791.088-1.153a7.429 7.429 0 0 0-.034-.775c-.006-.272-.205-.412-.26-.63-.064-.255.269-.345.253-.628-.039-.727.007-1.458-.022-2.186a1.645 1.645 0 0 0-.116-.926c-.115-.19.258-.531-.092-.865-.163-.156.374-.482.222-.846-.044-.104.005-.303-.054-.333-.341-.177.113-.4-.029-.52-.348-.292.051-.479.049-.686a3.644 3.644 0 0 0-.144-1.875 1.267 1.267 0 0 1-.063-.698 4.227 4.227 0 0 0-.493-2.635c0-.081.03-.18-.005-.24a3.504 3.504 0 0 1-.781-1.62c-.005-.14-.31-.16-.385.003-.279.61-.52 1.236-.775 1.857a3.32 3.32 0 0 1-.351 1.183 15.418 15.418 0 0 0-.862 3.743 1.118 1.118 0 0 1-1.497 1.147.549.549 0 0 1-.447-.481 1.74 1.74 0 0 1 .017-.833c.144-.294-.467-.391-.106-.704.071-.061-.084-.372.071-.603.215-.32-.265-.546-.224-.854.073-.543-.57-1.058-.165-1.545.278-.333-.189-.371-.084-.567-.125-.226-.046-.582-.138-.694a2.393 2.393 0 0 1-.381-.942c-.123-.404-.045-.997-.672-1.161-.092-.024.031-.558-.346-.169a9.44 9.44 0 0 0-1.868 2.722c.028.246-.435.391-.219.602.273.265.121.367-.057.527-.116.104-.309.268-.199.382.355.365-.183.68-.011 1.013-.396.162.068.529-.21.814-.08.16-.122.338-.122.517-.001.18.039.357.118.518.148.316.144.663.314.955.186.479.229 1.001.124 1.505-.007.333-.539.218-.671.534a.247.247 0 0 1-.283.173c-.021-.364-.302-.207-.486-.243-.15-.033-.439.073-.43-.084.033-.638-.352-1.209-.286-1.824a2.979 2.979 0 0 0-.5-1.74 6.963 6.963 0 0 0-2.096-3.791c-.073.339-.689.717-.107 1.224-.473.735-.116 1.553-.229 2.324.044.471-.135.971.089 1.413.205.465.227.99.061 1.47-.02.087-.102.108-.069.262.165.764.142.77-.535 1.078-.847.386-1.378.238-1.614-.625a17.58 17.58 0 0 0-.3-1.008 44.39 44.39 0 0 0-1.306-3.329c-.444-1.022-.331-2.322-1.429-3.04-.037-.025.018-.163-.008-.234a5.262 5.262 0 0 0-.969-1.824.557.557 0 0 0-.542-.48c-.065 0-.293.053-.104.186.37.262-.206.338-.084.537-.517.164-.1.626-.289.905a1.684 1.684 0 0 0-.442 1.032.565.565 0 0 1-.159.546c-.161.133.309.324-.022.53-.098.06.241.239.188.468-.077.333.134.716-.219 1.013a.468.468 0 0 0-.018.454c.442.453.205.997.218 1.491a13.5 13.5 0 0 0 .561 2.698c.087.373.456.695.427 1.155.069.956.279 1.896.624 2.79.21.742.326 1.507.348 2.278-.035.485-.03.972.017 1.456.042.37.063.742.064 1.114.014.284.135.876.184 1.178.041.254-.371.349-.147.582.243.253.099.419-.092.59.344.36.194.81.211 1.226.021.485-.15 1.05.045 1.439.233.464-.117.764-.071 1.16.046.397.23.884-.158 1.255.351.428.134.827-.047 1.238a.414.414 0 0 0 .001.354c.419.434.032.861-.036 1.26-.054.322-.364.567.009.919.113.107.051.477-.03.689-.08.208-.296.36-.435.55-.147.2.423.286.091.574-.119.103.168.38-.114.605a1.242 1.242 0 0 0-.225 1.155c.113.587-.533.992-.366 1.587-.742.813-.816.976-.851 1.697-.013.266.104.558-.163.785-.283.24.191.806-.29.902-.56.11-.047.714-.471.827-.077.486-.257.95-.528 1.361-.176.414-.684.69-.498 1.26.057.175-.169.25-.265.37-.147.184-.433.36-.434.54-.007.744-.649 1.195-.778 1.878-.124.666-.821 1.128-.711 1.896.007.053-.082.13-.14.18a5.916 5.916 0 0 0-1.325 1.758c-.223.351-.416.72-.577 1.104-.152.441-.177.996-.831 1.107-.234.04-.213.413-.36.558-.218.215-.119.446-.171.668-.055.238-.449.015-.497.385-.064.498-.754.623-.753 1.28.001.488-.586.79-.914 1.173-.245.31-.517.6-.812.864-.35.288-.373.85-.772 1.01-.755.303-1.104 1.022-1.695 1.483a.306.306 0 0 0 .063.569c.391.15.445.645.761.749.431.142.472.559.753.782.323.343.687.644 1.083.899.398.196.705.537.861.952.126.248.311.462.537.625.329.324.635.67.917 1.034.374.38.769.74 1.182 1.078.022.02.014.073.022.111.088.428.612.547.71.919a1.37 1.37 0 0 0 .747.879c.361.16.448.526.79.681a1.003 1.003 0 0 1 .671 1.134.353.353 0 0 0 .216.39c.606.255.823.88 1.254 1.301.551.538.91 1.272 1.464 1.805.661.634.776 1.769 1.874 2.002.216.046.236.385.362.561.44.613.641 1.421 1.396 1.787.031.148-.092.37.083.435.627.231.94.031 1.133-.678.548-.27.853-.913 1.54-.986a.484.484 0 0 0 .34-.303c.039-.558.547-.597.863-.84a5.931 5.931 0 0 0 1.025-1.01c.351-.44.804-.798 1.186-1.216.282-.308.74-.508.662-1.072-.016-.117.236-.364.39-.388.233-.037.469-.192.463-.31-.034-.662.644-.88.808-1.374.142-.488.443-.916.855-1.215.45-.31.282-1.033.917-1.2.396-.105.04-.6.339-.827.288-.218.68-.473.742-.772.09-.427.678-.556.555-.981-.152-.52.718-.26.503-.754.367-.342.632-.778.767-1.262.154-.492.486-.91.931-1.172-.117-.64.619-.896.667-1.418.06-.637.689-.97.753-1.505.052-.44.474-.262.518-.502.025-.282.031-.566.016-.849.003-.069.065-.197.09-.194.634.054.221-.596.504-.748.417-.222.363-.674.492-1.014.212-.563.454-1.109.709-1.65.273-.583.05-1.328.598-1.818-.004-1.091.493-2.1.525-3.186.01-.343-.139-.734.239-.992-.039-.763.713-1.434.255-2.255a.471.471 0 0 1 .047-.446c.385-.27-.308-.526.018-.774.324-.246.117-.6.16-.903.035-.237-.064-.515.025-.72a6.916 6.916 0 0 0 .469-2.964c-.005-.203-.086-.495.015-.591.311-.297.081-.794.445-1.04-.318-.32-.209-.726-.214-1.104.033-.728.026-1.457-.023-2.184-.099-.776.378-1.453.263-2.21 0-.364.013-.728-.004-1.091-.016-.343.07-.68-.209-1.017-.119-.144.149-.53-.005-.876a3.4 3.4 0 0 1-.07-1.064c-.003-.033-.13-.058-.199-.086ZM59.681 88.856c-.458.58-.904 1.169-1.38 1.733a.553.553 0 0 0-.154.619c.076.299-.52.248-.713.505-.07.091-.13.188-.184.289-.26.502-.413 1.096-1.09 1.238-.036.007-.09.141-.074.157.397.406-.199.548-.226.85-.038.424-.44.627-.67.936-.384.516-.944.951-.862 1.71.025.237-.172.192-.32.24a1.21 1.21 0 0 0-.586.319c-.174.232-.175.62-.377.799-.242.215-.522.29-.704.67-.204.427-.502.838-.74 1.275-.223.41-.88.596-.886 1.08-.007.634-.668.741-.804 1.268-.053.205-.47.381-.605.694-.133.306-.164.697-.66.717a.567.567 0 0 0-.375.406c-.007.413-.593.457-.508.893.105.537-.55.344-.66.677-.012.035-.057.06-.066.094a5.326 5.326 0 0 1-1.16 1.704c-.407.553-.886 1.063-1.282 1.633-.612.879-1.515 1.558-1.704 2.709-.016.098-.157.177-.243.262a23.672 23.672 0 0 0-2.651 3.526c-.281.403-.758.646-.94 1.066-.445 1.029-1.264 1.812-1.735 2.808-.144.234-.32.447-.523.632-.254.242-.43.554-.503.897-.098.572-.728.965-.783 1.611-.566-.059-.386.59-.747.782-.33.235-.623.517-.87.838-.166.171-.425.334-.462.534a3.03 3.03 0 0 1-1.275 1.893c-.537.397-.548 1.268-1.343 1.395-.041.007-.092.22-.069.319a.811.811 0 0 1-.546.963.913.913 0 0 0-.627.714c-.123.814-1.1 1.138-1.066 2-.3.092-.564.27-.762.513-.3.307.233.501.087.809-.11.234-.323.347-.456.54-.223.322.315.442.198.732-.026.063-.105.155-.153.151-.407-.037-.31.251-.333.479-.024.233.132.548-.08.685-.468.3-.242.846-.451 1.153-.486.713.015 1.123.382 1.496.188.191.575.291.715.551.223.414.706.102.934.42.119.166.352.075.51.25.517.574 1.32.514 1.98.782.402.164.892.049 1.36.238.44.177.97.043 1.48.24a3.195 3.195 0 0 0 1.564.02c.584-.095 1.035.32 1.606.285.328-.02.65-.265.935-.134.378.122.779.157 1.172.102 1.459.018 2.918.032 4.377 0 1.43.103 2.868.029 4.28-.219.416-.112.98.141 1.311-.054.503-.295.86.084 1.28.038.08-.009.185.032.24-.006.616-.429 1.311-.187 1.97-.233a9.731 9.731 0 0 0 1.735-.199c.466-.117.948-.503 1.462-.282.454.117.93.117 1.385.001a9.59 9.59 0 0 0 2.938-.255c2.609.175 5.194-.381 7.802-.246.364.019.73.003 1.095.003h1.094a7.93 7.93 0 0 1 1.213.014c.348.055.633-.23.943-.127.285.095.635-.431.849.104.65-.59 1.568.112 2.24-.462.093-.079.357-.041.557.079a1.846 1.846 0 0 0 1.607.069 3.247 3.247 0 0 1 1.026-.158c1.626-.122 3.247.063 4.892-.197 1.634-.258 3.342.064 4.998-.292.41-.088.815.047 1.263-.197a1.336 1.336 0 0 1 1.363.123c.076.059.27.089.316.041.412-.419.92-.181 1.376-.201.968.066 1.94.043 2.905-.067.619-.036 1.235-.109 1.846-.218a6.181 6.181 0 0 1 1.856-.217c1.148.095 2.305.021 3.433-.219a3.796 3.796 0 0 1 1.208-.022c.387-.004.77-.461 1.097-.218.413.308.695-.042 1.032-.044a8.866 8.866 0 0 0 3.304-.223 35.32 35.32 0 0 0 5.005-.25c.304-.02.616.112.922-.131.209-.166.409.221.705.154.321-.041.646-.046.969-.016.2.032.404.028.604-.011a2.484 2.484 0 0 1 2.119-.002.626.626 0 0 0 .57-.04c.317-.326.685-.156 1.025-.183a12.03 12.03 0 0 1 1.216-.005c.398.008.935-.123 1.164.083.471.423.698-.148 1.068-.11.808.068 1.62.073 2.429.015a9.82 9.82 0 0 0 2.467-.187 8.706 8.706 0 0 1 2.418-.047c.282-.001.665.108.826-.033a1.294 1.294 0 0 1 1.137-.188c.39.043.769-.017 1.137.003 2.289.128 4.546-.35 6.832-.289a8.697 8.697 0 0 0 3.546-.222c1.481.182 2.922-.299 4.398-.253 1.377.044 2.756.017 4.134.004.303-.003.623.112.911-.163a.622.622 0 0 1 .562-.06c.371.133.774.139 1.149.017a7.806 7.806 0 0 1 2.06-.018c.725.067 1.358-.325 2.09-.274 2.645.186 5.274-.4 7.922-.223a.997.997 0 0 0 .64-.23c.267-.171.408.346.743.238.184-.06.452.067.595-.025a1.162 1.162 0 0 1 1.398-.001c.129.083.354-.021.549-.106a6.316 6.316 0 0 0 1.017-.781c.278-.191.686-.211.658-.69a1.965 1.965 0 0 0-.224-1.006 9.21 9.21 0 0 0-1.086-1.971c-.53-.526-.404-1.501-1.264-1.773-.256-.712-.92-1.076-1.376-1.618a1.192 1.192 0 0 0-1.23-.552c-.597.137-.964-.436-1.501-.486.01-.522-.494-.739-.682-1.15-.351-.768-1.159-1.244-1.369-2.108-1.111-1.04-1.94-2.337-3.087-3.348a5.515 5.515 0 0 1-1.059-1.24 6.776 6.776 0 0 0-1.424-1.963c-.148-.117-.215-.374-.313-.461-.504-.45-.493-1.285-1.195-1.565-.145-.649-.88-.86-1.087-1.498a1.163 1.163 0 0 0-.815-.62c-.481-.141-.106-.774-.515-.999-.137-.075-.218-.297-.35-.324-.398-.081-.495-.373-.699-.667-.375-.538-.933-.939-.939-1.695-.001-.112-.239-.275-.432-.371a8.957 8.957 0 0 1-1.681-1.52c.036-.655-.494-.948-.859-1.347-.078-.085-.197-.149-.162-.297.128-.543-.241-.506-.571-.467-.35.04-.63-.206-.616-.424.028-.453-.278-.63-.495-.905a16.721 16.721 0 0 1-1.529-2.043c-.436-.774-1.295-1.238-1.502-2.174-.044-.2-.321-.489-.498-.495-.607-.02-.693-.569-.801-.885a2.933 2.933 0 0 0-.549-.996c-.841-1.005-1.638-2.048-2.438-3.086-.249-.324-.099-.69-.387-.952a3.293 3.293 0 0 1-1.148-1.59 1.088 1.088 0 0 0-.604-.548 2.432 2.432 0 0 1-1.225-1.345 2.063 2.063 0 0 0-.776-1.004 1.737 1.737 0 0 1-.624-.827c-.119-.288-.57-.24-.687-.67a1.929 1.929 0 0 0-.879-1.242c-.64-.3-.632-.933-.971-1.371-.073-.096-.16-.234-.257-.25-.724-.114-.815-.97-1.431-1.198-.122-.66-.841-.851-1.099-1.37a6.099 6.099 0 0 0-1.138-1.35 2.658 2.658 0 0 1-.494-.892c-.238-.61-.566-1.325-1.418-1.38-.239-.014-.18-.19-.25-.316a1.11 1.11 0 0 0-.478-.519 1.54 1.54 0 0 1-.96-1.055c-.054-.152-.033-.29-.26-.31-.355-.03-.246-.563-.701-.626a1.092 1.092 0 0 1-.713-.75c-.067-.522-.59-.282-.772-.64-.161-.4-.41-.758-.728-1.05-.32-.251-.895-.365-.781-.987.002-.011-.136-.041-.203-.075a3.941 3.941 0 0 1-1.945-2.028 1.357 1.357 0 0 0-.572-.604c-.561-.31-1.032-.586-1.161-1.343-.07-.416-.544-.815-.92-1.12a6.345 6.345 0 0 1-2.201-2.783.558.558 0 0 0-.241-.26c-.458-.189-.564-.61-.775-.998a6.562 6.562 0 0 0-1.355-1.874 33.883 33.883 0 0 0-3.855-3.61c-.257-.71-.947-1.056-1.369-1.624a5.995 5.995 0 0 0-1.45-1.446c-.088-.059-.195-.196-.182-.28.07-.445-.269-.64-.512-.887a6.54 6.54 0 0 0-1.616-1.378c.026-.566-.635-.561-.809-.981-.209-.505-.773-.668-1.185-.864-.307-.146-.125-.542-.483-.544-.368-.002-.482-.387-.727-.58a2.204 2.204 0 0 1-.593-.604 2.722 2.722 0 0 0-.794-.999c-.386-.26-.444-.798-.91-.974-.448-.17-.414-.726-.778-.998a3.497 3.497 0 0 1-1.014-1.033c-.206-.381-.341-.63-.828-.66-.437-.028-.543-.749-1.034-.693-.49.055-.546-.602-1.017-.508a1.093 1.093 0 0 1-.763-.216c-.266-.147-.51.223-.856.252a7.94 7.94 0 0 0-3.371 1.813.711.711 0 0 0-.247.381c-.145.384-.573.7-.453 1.137.164.592-.7.7-.51 1.264.035.101.008.222-.17.186-.158-.031-.044.028-.052-.097-.03-.5-.228-.314-.368-.093-.179.283-.268.623-.446.906-.186.297-.545.452-.666.821-.117.357-.476.527-.702.803.37.337.01.609-.129.837-.418.685-.936 1.31-1.336 2.005-.204.356-.687.512-.724.906-.043.47-.184.74-.662.812-.119.018-.106.095-.007.168.493.364-.235.59-.11.914-.478.418-.686 1.054-1.194 1.458-.201.159-.492.3-.482.645.018.625-.433.975-.817 1.363-.285.288-.573.573-.86.86.188.74-.471.95-.85 1.325a.663.663 0 0 0-.146.55c-.004.239.05.458-.34.486-.186.014-.43.278-.505.48-.093.256-.538.497-.135.838-.247.211-.57.247-.758.636a6.702 6.702 0 0 1-1.19 1.584 13.119 13.119 0 0 0-1.697 2.328 20.515 20.515 0 0 1-2.062 3.176 3.27 3.27 0 0 0-1.186 2.057.983.983 0 0 1-.229.501c-.417.416-.798.866-1.139 1.347-.319.473-.404 1.16-1.077 1.371-.071.023-.146.203-.13.296.045.289-.18.415-.293.616-.392.699-.966 1.264-1.324 2.001a6.646 6.646 0 0 1-1.777 2.309c-.113.091-.283.17-.266.373.051.578-.584.8-.682 1.298-.175.502-.437.97-.776 1.38-.172.036-.48-.11-.47.188a1.113 1.113 0 0 1-.425.983c-.405.155-.427.568-.66.7-.51.292-.255.89-.65 1.213-.287.235-.727.44-.702.9.03.562-.655.362-.737.763-.013.12-.014.24-.004.36Zm13.796-52.424c.131.706-.046 1.153.165 1.572a6.988 6.988 0 0 0 1.884 2.87c.305.266.595.55.868.848.203.175.42.33.65.466a9.525 9.525 0 0 0 4.374 1.182c.526.033 1.053.034 1.579.001.258-.009.428.428.613.234.475-.497 1.074-.061 1.585-.304.458-.286.99-.43 1.53-.41.203-.381.85-.078.89-.388.081-.648.683-.605 1.008-.885.227-.26.486-.49.771-.686.371-.188.227-.67.416-.995a4.85 4.85 0 0 1 .267-.615 1.715 1.715 0 0 0 .219-1.468 1.086 1.086 0 0 1 .263-1.17c.074-.077.365-.14.147-.331-.188-.167-.113-.444-.332-.6-.308-.22.164-.366.092-.675a10.959 10.959 0 0 0-.826-1.974c-.229-.51-.2-1.162-.76-1.508-.016-.547-.6-.512-.862-.83a5.112 5.112 0 0 0-1.688-1.471c-.646-.306-1.21-.743-1.877-1.037a4.218 4.218 0 0 0-2.004-.448c-.242.014-.486.002-.729.002a11.298 11.298 0 0 0-2.18.034 5.536 5.536 0 0 0-1.598.813.976.976 0 0 1-.435.132c-.108.01-.303.078-.301.115.021.547-.489.537-.773.758-.316.247-.236.89-.844.845.028.484-.67.6-.578 1.092.085.445-.221.641-.446.916-.192.236-.566.344-.538.748.041.59-.36 1.105-.254 1.724.098.579-.422 1.107-.296 1.443Zm29.345 4.024c.73 0 1.458-.07 2.173-.211a5.06 5.06 0 0 0 2.827-1.769c.393-.316.653-.768.727-1.267.004-.491.72-.836.266-1.405-.019-.023.068-.187.097-.184.473.042.374-.295.382-.56a7.192 7.192 0 0 1 .047-1.32 3.125 3.125 0 0 0-.016-2.137c-.057-.228-.126-.59-.011-.696.305-.28-.009-.454-.018-.671-.011-.283.092-.617-.025-.84a8.39 8.39 0 0 1-1.021-2.254c-.067-.345-.677-.16-.698-.673-.006-.166-.592-.158-.618-.433-.045-.48-.496-.56-.712-.611a1.288 1.288 0 0 1-.813-.403c-.212-.267-.58-.062-.859-.312-.171-.155-.473-.257-.637-.467-.264-.338-.528.395-.766-.024-.681-.019-1.362-.029-2.043-.059-.298-.013-.551.247-.538.38.061.614-.286.678-.717.588-.54-.114-.982.225-1.482.247a1.787 1.787 0 0 0-1.672 1.372c-.108.37-.305.707-.574.983a2.876 2.876 0 0 0-.936 2.045.695.695 0 0 1-.082.454c-.11.164-.62.23-.207.614a.761.761 0 0 1-.273.545c-.43.18.362.504-.107.622a12.354 12.354 0 0 0-.542 4.394c.008.114-.005.279.062.333.411.334.43 1.01.795 1.218.356.205.574.65 1.059.665.184.04.356.124.5.247a6.538 6.538 0 0 0 2.196.864c.072.012.138.058.21.078 1.301.42 2.659.637 4.026.647Zm58.642 140.784a18.6 18.6 0 0 0-2.519.12l.01.086a.991.991 0 0 0 .799.048c.352-.133.485.613.82.166.207-.276.548-.009.89-.42Zm-5.436.073.002.202c.393 0 .787.014 1.179-.004.392-.018.804.081 1.165-.198h-2.346ZM92.79 39.893a.664.664 0 0 0 .573.068c.22-.029.666.214.59-.283-.06-.396-.457-.157-.697-.18-.241-.023-.37.186-.466.395Zm60.612 141.513c.678.267.976-.105 1.402-.254-.535-.328-.835.103-1.402.254Z"/><path fill="#C6C7F8" d="M107.592 140.657c.308-.105.602-.466.945-.136.279.268.341-.167.579-.126.393.069.916.173 1.187-.017.397-.281.625.056.917.065.605.018 1.102-.392 1.727-.291a3.948 3.948 0 0 0 1.69-.009 3.514 3.514 0 0 1 2.604.025c.214.099.319-.25.483-.186.445.172.838-.152 1.283-.071.443.045.89.05 1.334.017.486 0 .973.015 1.459-.005.374-.016.792.202 1.064.115a4.264 4.264 0 0 1 1.044-.103c.403-.031.81-.007 1.216-.007 1.094 0 2.188.01 3.281-.007.302-.005.632.129.905-.171.137-.151.375-.084.563-.034a2.86 2.86 0 0 0 2.133 0 1.07 1.07 0 0 1 .352-.029c1.68.153 3.324-.399 5.005-.249.389.067.789-.016 1.12-.232.269-.193.534.333.91.02.192-.159.631.011.947-.039.298-.047.446.466.725.202.281-.265.47-.237.683.038.818-.502 1.716-.097 2.567-.229.325.325.923.465.757 1.122.392.325-.321.708.091 1.108.271.263.167.682-.084 1.069-.145.223-.215.519-.487.578a.955.955 0 0 0-.55.423 9.824 9.824 0 0 1-2.163 1.532c-.052.039-.158.005-.239.005.002-.984.355-1.929.266-2.934a3.104 3.104 0 0 0-.449-1.522c-.31-.472-.86-.587-1.16-.148a1.76 1.76 0 0 0-.367 1.184c.082.397.074.807-.023 1.2-.141.347-.094.765-.381 1.057-.047.048-.05.139-.075.21-.145.41.379.768.191 1.085a.818.818 0 0 0-.01.945c.26.549-.253 1.07-.339 1.627-.081.524-.275 1.037-.309 1.562-.027.405.48.813.014 1.239.408.307.166.547-.097.753a.603.603 0 0 0-.155.762c.283.425-.129.769-.026 1.149.065.242-.131.358-.272.492-.186.177-.342.35-.084.587.213.198-.131.247-.104.341.134.473-.553.252-.509.622.031.264.32.427.25.751-.115.525.183 1.108-.24 1.605a.473.473 0 0 0 .023.455c.148.176.227.28.002.443-.312.226-.359.426-.067.773.197.234-.161.565-.255.834-.151.355-.218.74-.193 1.125.08.642-.325 1.187-.274 1.843a1.768 1.768 0 0 0 1.529 1.899c.742.16 1.488.298 2.229.462.487.108 1.002.052 1.407.426a.608.608 0 0 0 .676.068 1.6 1.6 0 0 1 1.631.024c.385.171.799.267 1.22.285.028-.001.057.129.085.198-.029.197.139.283.252.362a1.752 1.752 0 0 1 .721 1.827l-1.255.486c-.402.155-.457.465-.461.859a.79.79 0 0 0 .474.85 3.66 3.66 0 0 0 1.644.244c.429-.037.863-.007 1.429-.007-.49.394-.951.466-1.303.781a.846.846 0 0 0-.256.972.906.906 0 0 0 .875.681c.283-.014.567-.014.85.002a.184.184 0 0 1 .158.069.19.19 0 0 1 .034.17l-.73 1.702c-.526-.124-.947.304-1.48.263-.449-.035-.962-.185-1.356.224-.823.008-1.643.09-2.452.245a5.006 5.006 0 0 0-1.569.031c-.506.163-.925-.07-1.389-.057a36.232 36.232 0 0 1-4.76.27.786.786 0 0 0-.335.066 4.069 4.069 0 0 1-1.793.176.667.667 0 0 0-.36.006 2.827 2.827 0 0 1-1.726.222c-.536-.046-1.119.248-1.621-.198-.062-.056-.173.238-.366.213a1.656 1.656 0 0 0-.998.232c-.324.168-.531-.307-.866-.235-.266.057-.562-.119-.806.11-.056.052-.131.135-.186.127-.427-.059-.91.189-1.279-.126-.441-.376-.693.435-1.07.13a1.951 1.951 0 0 0-1.832-.19 8.24 8.24 0 0 1-2.101.187 4.829 4.829 0 0 1-1.612-.2 4.647 4.647 0 0 0-2.076-.285.703.703 0 0 1-.463-.042 1.438 1.438 0 0 0-1.009-.374l-1.159-.074c-.305-.401-.742-.172-1.118-.235a3.423 3.423 0 0 0-1.704-.187 2.853 2.853 0 0 0-.325-1.731 1.528 1.528 0 0 1-.013-1.237 1.697 1.697 0 0 0-.009-1.469c-.195-.381.014-.86-.336-1.205a.368.368 0 0 1 .06-.442c.343-.297.093-.687.17-1.024.218.016.312-.181.232-.284-.345-.441-.199-.941-.232-1.419.04 0 .112.01.116-.001a3.38 3.38 0 0 0-.359-2.674c-.009-.245.23-.308.346-.462.071-.095.207-.198.134-.301-.458-.647-.109-1.392-.281-2.068-.011-.043-.13-.059-.199-.088-.045-.228.107-.491-.088-.69a.518.518 0 0 1-.184-.359.51.51 0 0 1 .134-.382c.106-.137.209-.278.105-.414a.881.881 0 0 1-.009-1.17.496.496 0 0 0 .031-.456c-.473-.62-.143-1.318-.227-1.972-.099-.773.196-1.588-.248-2.326.225-.256.077-.498.042-.775a1.73 1.73 0 0 1 .097-.706c.176-.464.271-1.087.006-1.349-.383-.377.319-.73-.129-.969a.649.649 0 0 0 .197-.86c-.177-.313.059-.653-.194-.945-.095-.111-.433-.402-.034-.625-.276-.213-.151-.386-.072-.684a3.344 3.344 0 0 0-.212-1.435 7.276 7.276 0 0 1-.187-1.125c-.006-.121.05-.31-.009-.354-.64-.485-.457-1.273-.723-1.892-.113-.262-.268-.475-.608-.457-.283.015-.566.003-.85.003a.192.192 0 0 1 .032-.164.186.186 0 0 1 .149-.075.588.588 0 0 0 .549-.491Z"/><path fill="#1C1C1C" d="M16.391 76.35c.133.306-.467.46-.203.726.36.362-.243.573-.06.925.15.288-.135.725.247.989-.228.33.384.564.097.92-.157.193.117.238.197.331.163.193.346.358.081.591-.126.111-.088.197.035.235.108.033.323 0 .306.108-.128.789.5 1.266.796 1.86.165.33.527.521.475 1.012-.031.305.529.541.297.94-.11.189.037.202.092.261.248.266.512.517.767.777a.747.747 0 0 1 .29.49c.08.95.476 1.37 1.41 2.186.65.568.918 1.424 1.496 2.05.233.252.072.758.634.83.38.048.268.65.606.815.284.138.59.203.48.646-.022.092.152.286.278.353a6.86 6.86 0 0 1 1.928 1.843c.318.382.713.691 1.161.907.55.35 1.067.747 1.548 1.187.199.18.358.397.47.64a.956.956 0 0 1 .066 1.088 1.104 1.104 0 0 1-1.303.361c-.34-.242-.524.164-.677.063a6.06 6.06 0 0 0-.765-.508c-.234-.109-.364-.362-.674-.434-.466-.107-.255-.966-.925-.931-.207-.413-.776-.4-.97-.897-.105-.269-.513-.447-.817-.603-.302-.156-.253-.512-.527-.71-.356-.335-.692-.69-1.004-1.066-.35-.329-.703-.645-1.03-1.003-.234-.257-.07-.552-.243-.757-.125-.148-.388-.05-.47-.403-.06-.264-.732-.254-.681-.78.043-.453-.542-.54-.557-.995-.005-.133-.198-.311-.177-.523.011-.12.052-.311-.006-.354-.668-.49-.677-1.38-1.18-1.936a3.625 3.625 0 0 1-.666-1.191c-.127-.324-.087-.76-.577-.842-.015-.003.026-.178-.014-.226-.472-.55-.247-1.374-.697-1.891-.456-.525-.258-1.282-.75-1.76.162-.763-.362-1.44-.26-2.21.08-.426.015-.868-.184-1.254-.13-.24.188-.695.245-1.084.091-.287.16-.58.205-.877.002-.153.61-.544.775-.526.197.021.44.372.435.627ZM171.787 11.834c.938-.309 1.384.29 1.69.86a16.881 16.881 0 0 0 1.676 2.598c.466.682.794 1.448.967 2.256.154.548.877.917.541 1.607.251.465.427.966.525 1.485.291.714.445 1.475.454 2.246.001.5-.138 1.034.235 1.482.02.024-.013.087.005.118.189.334-.505.508-.168.837.249.244.146.521.161.787.018.323.004.648.004.973 0 .364-.017.73.005 1.094.021.353-.153.76.095 1.047.256.296-.454.646.102.857-.434.389.035 1.01-.352 1.397-.192.191.343.338-.017.533-.222.12.057.476-.179.645-.204.147-.132.36-.138.551-.008.243-.013.487.001.73-.017.19-.082.373-.189.531a3.97 3.97 0 0 0-.528 1.72.93.93 0 0 1-.28.614c-.282.403-.5.847-.647 1.316a1.87 1.87 0 0 1-1.136 1.078c-.538.27-.871-.005-1.13-.606a1.181 1.181 0 0 1 .017-1.142c.094-.164.287-.263.247-.509a.846.846 0 0 1 .572-1.088c.204-.073.233-.309.041-.487-.097-.09-.101-.14-.013-.263a5.23 5.23 0 0 0 .9-2.68 3.744 3.744 0 0 0-.039-2.116.402.402 0 0 1 .001-.354c.403-.453.23-.992.221-1.488-.01-.617.195-1.273-.224-1.848a.287.287 0 0 1-.001-.238 12.33 12.33 0 0 0 .324-2.42l-.085-1.049a6.813 6.813 0 0 1-.509-2.472c-.046-.832-.469-1.617-.465-2.474-.62-.526-.671-1.345-1.02-2.01-.557-1.062-1.03-2.168-1.568-3.24-.14-.28-.043-.547-.096-.878ZM22.088 105.393c-.343.077-.569-.103-.824-.335a5.787 5.787 0 0 0-1.213-.868c-.552-.286-1.119-.513-1.311-1.185-.02-.068-.103-.125-.168-.171-.317-.224-.954-.024-.953-.652.001-.496-.423-.641-.646-.95-.252-.35-.72-.521-.825-.993-1.007-.68-1.162-2.033-2.158-2.727a1.121 1.121 0 0 1-.482-.872c.044-.527-.309-.772-.506-1.144a5.493 5.493 0 0 1-.986-2.5c-.001-.246-.21-.334-.347-.46a.453.453 0 0 1-.127-.543c.396-.589.169-1.234.225-1.85.025-.28-.028-.57.012-.847a.444.444 0 0 1 .773-.249c.131.145.524.25.327.49-.232.283.157.327.1.455-.362.805.303 1.483.264 2.25a.93.93 0 0 0 .234.502 9.864 9.864 0 0 1 1.184 2.179c.126.319.522.18.49.37-.078.475.44.27.504.51.058.219-.029.44.179.66.981 1.034 1.57 2.432 2.91 3.135.046.766.82.926 1.198 1.42.333.434.959.592 1.164 1.178.103.297.472.374.67.4.622.081.921.549 1.348.877a.94.94 0 0 1 .292 1.079 1.218 1.218 0 0 1-1.328.841ZM106.161 21.002c-.566 0-1.137.043-1.698-.008a60.334 60.334 0 0 1-3.685-.47c-.191-.029-.244-.186-.383-.252a25.174 25.174 0 0 1-3.345-1.615 2.938 2.938 0 0 1-.971-.816 7.885 7.885 0 0 0-1.227-1.429 1.415 1.415 0 0 1-.15-1.8 1.12 1.12 0 0 1 1.274.01 47.85 47.85 0 0 1 1.631 1.63 10.397 10.397 0 0 0 2.277 1.557c.711.337 1.458.592 2.227.761.338-.262.619.412 1.032.02.296-.28.642.356.966.21.923-.419 1.907-.042 2.811-.261a9.598 9.598 0 0 1 2.214-.21c.273-.024.547.044.776.195.175.12.536.22.537.376.002.41.343.697.309 1.098a.603.603 0 0 1-.429.51 6.22 6.22 0 0 1-1.981.488c-.727.027-1.456.006-2.185.006ZM86.499 14.436a1.49 1.49 0 0 1 1.26.475 1.463 1.463 0 0 1-.026 1.736c-.557.601-.897 1.4-1.479 1.922-.914.817-1.526 1.961-2.686 2.512a1.161 1.161 0 0 0-.345.338c-.364.46-.864.794-1.43.95a5.95 5.95 0 0 0-1.46.852 11.247 11.247 0 0 1-3.912 1.402c-.343.068-.581.37-.991.294a1.106 1.106 0 0 0-1.017.168c-.28.239-.533-.189-.802-.289-.142-.052-.167-.554.055-.6.493-.103.824-.514 1.368-.54a4.058 4.058 0 0 0 2.429-.857c.866.023 1.203-.872 1.971-1.115a6.507 6.507 0 0 0 1.883-1.297c.322-.334.621-.69.893-1.066a22.538 22.538 0 0 0 2.052-2.559c.283-.319.458-.72.5-1.145.024-.484 1.165-1.167 1.737-1.181ZM180.039 38.934c.134-.664.662-.973 1.043-1.403a5.587 5.587 0 0 0 1.191-1.645c.215-.565.524-1.09.915-1.552a2.38 2.38 0 0 0 .652-1.19c.17-.616.39-1.217.659-1.797.209-.83.34-1.677.391-2.53a4.846 4.846 0 0 1 .383-1.956 1.355 1.355 0 0 1 .65 1.273 6.56 6.56 0 0 0 .194 2.455 3.678 3.678 0 0 1-.332 2.27c-.107.337-.066.674-.195 1.006a10.22 10.22 0 0 1-1.248 2.383 11.52 11.52 0 0 1-1.412 1.737 3.087 3.087 0 0 1-2.891.949Z"/><path fill="#C6C7F8" d="M52.386 51.16a10.252 10.252 0 0 0-2.006-.97c-.246-.124-.266-.288-.092-.45.286-.264.49-.626.882-.77.109.372.437.565.693.802.659.613.671.6.523 1.387ZM44.116 35.351c-.003.334-.258.226-.434.241-.26.023-.557-.097-.575.379-.008.197-.354.123-.535.098-.2-.027-.155-.234-.159-.388a2.924 2.924 0 0 0-.231-1.604c-.047-.075.079-.212.232-.185.2.455.482.87.833 1.221.269.296.564.223.87.238ZM141.64 27.326a1.617 1.617 0 0 1 .264 1.572 3.46 3.46 0 0 0 .223 1.832.55.55 0 0 1-.474-.456 4.556 4.556 0 0 1-.004-1.088c.037-.34-.32-.515-.268-.872a1.77 1.77 0 0 1 .259-.988ZM34.875 35.838c-.018.808-.668.826-1.216.972.223-.553.734-.744 1.216-.972ZM140.181 159.141v-.926c-.001-.166.027-.306.243-.29.466.077.205.435.231.659.037.313-.192.476-.474.557ZM149.909 91.044c.232-.541.84-.612 1.216-.972v.243c-.22.551-.716.643-1.216.73Z"/><path fill="#C6C7F8" d="M151.126 90.315v-.243c-.037-.535.339-.76.729-.973 0 .075.031.172-.005.223-.233.337-.481.663-.724.993ZM167.177 57.483c-.05-.091-.095-.185-.152-.271-.145-.22-.182-.4.152-.459.333.245.333.485 0 .73ZM143.585 15.166c.441.538.77 1.158.97 1.824.026.07-.029.21.008.233 1.097.719.985 2.019 1.429 3.041.473 1.09.92 2.2 1.305 3.33.116.339.208.669.301 1.007.236.863.767 1.011 1.613.625.677-.309.701-.314.536-1.078-.033-.154.048-.175.069-.261a2.016 2.016 0 0 0-.061-1.471c-.225-.442-.045-.942-.09-1.413.915-.23.913-.227 2.078.237.117.023.237.025.354.006.344.514.519 1.122.501 1.74-.066.615.319 1.186.285 1.824-.008.157.281.051.43.084.059.331-.139.703.15.997.072.073.181.189.245.173.139-.036.126-.268.085-.292-.39-.227.007-.427.007-.635a.248.248 0 0 0 .283-.173c.133-.316.664-.2.671-.534a2.658 2.658 0 0 0-.124-1.505c-.17-.292-.166-.639-.314-.954a1.164 1.164 0 0 1-.118-.519c0-.18.042-.356.122-.517.277-.285-.186-.651.209-.814-.172-.333.367-.648.012-1.013-.11-.114.083-.277.199-.382.178-.16.33-.262.057-.527-.216-.21.247-.356.219-.601.465-.02.932-.029 1.396-.064a3.151 3.151 0 0 1 1.04.069c.28.2.627.286.969.238-.106.196.362.234.084.567-.405.488.237 1.002.165 1.545-.041.308.439.534.224.855-.155.23 0 .54-.071.603-.361.312.25.41.106.703a1.74 1.74 0 0 0-.017.833.548.548 0 0 0 .447.481 1.12 1.12 0 0 0 1.497-1.147c.13-1.279.42-2.536.862-3.743.19-.369.309-.77.351-1.183a.814.814 0 0 0 .626-.229c.273-.198.392.353.727.24.195-.035.395-.038.592-.011.447.801.62 1.727.493 2.636-.045.233-.023.475.064.697.211.602.26 1.248.144 1.875.002.208-.397.395-.049.686.141.12-.312.343.029.52.059.03.01.23.053.333.153.364-.384.69-.221.846.35.334-.024.674.091.865.128.291.168.613.116.927.03.728-.017 1.459.023 2.186.015.282-.317.372-.253.628.055.217.254.358.26.629.024.257.036.516.034.775-.026.362-.382.698-.088 1.153.159.246.101.718.188 1.054.082.671.112 1.348.089 2.025-.447.297-.168.595 0 .892.169.298.443.595 0 .892 0 .648.042 1.3-.022 1.942-.024.241.463.374.07.688a.634.634 0 0 0 .025.772c.384.325-.244.41-.096.703.066.275.073.56.023.84a4.78 4.78 0 0 1-.36 1.658c-.069.253-.165.395.053.592a1.787 1.787 0 0 1 .553 1.575c-.014.163.005.327.24.309.116.757-.362 1.433-.262 2.21.048.726.056 1.456.022 2.183.005.379-.103.785.215 1.104-.364.246-.134.744-.445 1.04-.101.097-.02.389-.015.591a6.917 6.917 0 0 1-.47 2.965c-.088.205.01.483-.024.72-.044.302.163.657-.16.903-.327.247.367.504-.018.774a.46.46 0 0 0-.08.217.46.46 0 0 0 .032.228c.459.822-.293 1.493-.254 2.255-.378.258-.23.65-.24.993-.031 1.086-.529 2.094-.524 3.185-.549.49-.325 1.235-.599 1.818a23.535 23.535 0 0 0-.709 1.65c-.129.34-.074.792-.491 1.015-.284.151.13.802-.504.747-.026-.002-.088.126-.09.195.014.283.009.566-.016.848-.044.24-.466.062-.518.502-.064.535-.694.868-.753 1.505-.049.523-.785.778-.667 1.418-.445.262-.777.68-.932 1.173-.134.483-.4.92-.767 1.261.216.495-.654.235-.503.755.124.424-.465.553-.554.98-.063.3-.454.555-.742.773-.3.226.057.722-.34.827-.635.167-.467.889-.916 1.2a2.3 2.3 0 0 0-.856 1.215c-.163.494-.842.712-.808 1.374.006.118-.229.272-.463.31-.154.023-.405.27-.389.388.077.564-.38.763-.662 1.072-.382.418-.835.775-1.186 1.215a5.97 5.97 0 0 1-1.025 1.01c-.316.244-.825.283-.863.84a.474.474 0 0 1-.341.304c-.687.072-.991.715-1.539.985-.446-.124-.786.284-1.216.244-.755-.366-.956-1.174-1.396-1.787-.126-.176-.146-.516-.362-.561-1.099-.234-1.214-1.369-1.874-2.003-.554-.532-.914-1.267-1.464-1.804-.432-.421-.648-1.046-1.254-1.301a.347.347 0 0 1-.216-.39 1 1 0 0 0-.672-1.134c-.341-.156-.429-.522-.789-.681a1.35 1.35 0 0 1-.747-.88c-.098-.371-.622-.49-.711-.918-.007-.038.001-.091-.022-.111a14.803 14.803 0 0 1-1.181-1.078c-.282-.365-.589-.71-.918-1.035a1.755 1.755 0 0 1-.537-.624 1.744 1.744 0 0 0-.86-.953 5.758 5.758 0 0 1-1.084-.898c-.28-.224-.321-.64-.752-.782-.316-.105-.371-.6-.762-.75a.308.308 0 0 1-.063-.569c.592-.46.941-1.18 1.696-1.482.399-.16.422-.723.771-1.01.295-.265.567-.553.813-.864.327-.384.914-.685.914-1.173-.001-.657.688-.782.752-1.28.048-.37.443-.148.498-.385.051-.222-.047-.453.17-.669.148-.145.126-.517.361-.557.654-.112.679-.666.831-1.108.161-.383.354-.752.577-1.103a5.912 5.912 0 0 1 1.324-1.758c.059-.05.148-.128.14-.18-.11-.768.587-1.23.712-1.896.128-.683.77-1.135.777-1.878.002-.181.287-.357.434-.541.096-.12.322-.194.265-.37-.185-.57.322-.846.498-1.259.271-.411.451-.875.528-1.362.424-.112-.088-.716.472-.827.481-.095.007-.66.29-.902.267-.226.149-.518.162-.784.035-.722.109-.884.851-1.697-.167-.595.479-1 .366-1.587a1.25 1.25 0 0 1 .225-1.154c.282-.227-.005-.503.114-.606.332-.289-.237-.374-.09-.575.138-.19.354-.342.434-.55.082-.211.143-.582.03-.689-.372-.352-.063-.597-.008-.918.068-.4.455-.826.036-1.26a.401.401 0 0 1-.002-.355c.181-.41.398-.81.048-1.237.388-.372.204-.858.157-1.256-.046-.396.304-.696.072-1.16-.195-.388-.025-.953-.045-1.439-.017-.415.132-.865-.212-1.225.192-.172.336-.337.092-.59-.223-.234.188-.328.147-.582-.049-.302-.17-.895-.184-1.178 0-.372-.021-.744-.063-1.114a8.532 8.532 0 0 1-.017-1.456 9.394 9.394 0 0 0-.348-2.279 9.688 9.688 0 0 1-.625-2.79c.029-.46-.34-.781-.427-1.154a13.498 13.498 0 0 1-.56-2.698c-.014-.494.223-1.038-.219-1.492a.467.467 0 0 1 .018-.454c.353-.296.142-.68.22-1.013.053-.229-.287-.407-.189-.468.331-.206-.139-.397.022-.53a.56.56 0 0 0 .159-.546c.025-.384.181-.749.442-1.032.19-.279-.228-.74.289-.905.24-.093.616.225.73-.243Zm12.638 6.193c-.408-.292-.182-.721-.232-1.09-.053-.394-.383-.273-.54-.222-.446.144.084.229.05.359-.111.422.214.703.341 1.046.012.034.145.047.213.03.063-.014.113-.08.168-.123ZM52.142 41.431a1.656 1.656 0 0 1-.435 1.277 1.122 1.122 0 0 0-.317.607c-.028.273.315.73-.346.83-.265.04.024.622-.347.802-.311.152-.218.584-.5.763.154.456-.433.564-.44.752-.012.35-.251.566-.294.87-.031.218-.22.193-.374.177-.252-.025-.352.063-.359.33a.953.953 0 0 1-.633.943.655.655 0 0 0-.354.576 1.931 1.931 0 0 1-.842 1.082c-.378.3-.46.803-.823 1.13-.172.154.405.457.033.733.119.105.223.274.358.304.568.127 1.175.373 1.642-.22a.784.784 0 0 1 .626-.267c.455-.047.935.184 1.377-.211.2-.178.516.182.54.342a5.429 5.429 0 0 0 .264 1.964c.047.086-.004.21-.078.327-.533.6-.926 1.31-1.15 2.08-.029.193-.309.362-.493.518A2.969 2.969 0 0 0 48 59.302c-.15.646-.234 1.305-.253 1.968.022.248.396.462.04.795a.808.808 0 0 0 0 .8c.368.333-.08.536-.028.797.083.412-.127.843.22 1.26.159.191.056.628.02.948a1.63 1.63 0 0 0 .283 1.216c.15.229.225.498.216.77.132.87.253 1.74.445 2.604.086.386.41.314.491.512.1.243.024.752.111.772.434.1.446.367.405.694a.467.467 0 0 0 .17.42c.414.413.989.748.805 1.487.358.264.464.709.744 1.03.375.39.717.81 1.025 1.255.1.179.248.326.427.424a10.97 10.97 0 0 1 2.271 1.802c.152.12.25.319.497.273a.578.578 0 0 1 .764.48c.047.179.346.186.467.285.192.158.501.128.596.325a2.27 2.27 0 0 0 1.73 1.067c.519.132.625.698 1.114.797.143.03.12.293.088.306-.382.158.056.45-.11.61-.072.07-.226.043-.321.097-.44.249-.163 1.049-.706 1.109-.581.064-.418.847-.986.845-.028 0 .002.397-.096.54-.451.666-.632 1.536-1.435 1.943a.533.533 0 0 0-.172.17c-.194.273.14.727-.185.874-.266.12-.606.24-.577.476.056.452-.279.454-.483.654-.405.365-.738.8-.982 1.287-.34.774-.951 1.371-1.274 2.146a.765.765 0 0 1-.254.258c-.398.25-.714.612-.91 1.04a1.967 1.967 0 0 1-.292.6c-.389.53-.964.918-1.185 1.586a13.035 13.035 0 0 1-1.013 1.706 29.609 29.609 0 0 0-2.8-2.223 3.324 3.324 0 0 0-1.401-1.579 3.965 3.965 0 0 1-1.207-1.097 2.122 2.122 0 0 0-.725-.63c-.418-.286-1.033-.277-1.187-.942-.034-.146-.366-.288-.574-.31-.238-.026-.462-.16-.47-.299-.042-.667-.504-.85-1.022-1-.405-.966-1.46-1.197-2.124-1.873-.26-.264-.566-.483-.851-.722.21-.563-.399-.463-.58-.71-.227-.312-.646-.483-.684-.934-.616-.12-.851-.636-1.094-1.107a12.824 12.824 0 0 0-.989-1.794 6.337 6.337 0 0 1-.944-1.896c-.16-.565-.722-.932-.654-1.56-.355-.258.007-.71-.26-.984a1.449 1.449 0 0 1-.428-.806 3.672 3.672 0 0 1-.208-.88 1.672 1.672 0 0 0-.111-.557c-.146-.478-.76-.711-.625-1.33.11-.506-.315-.937-.262-1.48a2.838 2.838 0 0 0-.34-1.06 3.108 3.108 0 0 1-.117-1.452c.044-.338-.244-.636-.026-1.029.147-.263-.56-.05-.466-.494.087-.413-.251-.836.004-1.257.016-.027-.23-1.24-.241-1.277a2.941 2.941 0 0 1-.262-1.117c.032-.329.144-.696-.185-1.015-.232-.225.22-.375.2-.605a9.505 9.505 0 0 0-.155-2.73c.24-.5-.063-1.197.216-1.523.422-.49-.398-.94.126-1.297-.466-.37.102-1.04-.417-1.418-.106-.077.012-.31.165-.397.344-.198.212-.577.337-.833.215-.436-.57-.632-.15-1.085.289-.31.169-.786.1-1.153-.074-.386.214-.58.3-.867.089-.295-.44-.375-.12-.707.149-.155-.02-.615.13-.773.202-.215.202-.496.38-.716.14-.175.064-.536.061-.814.009-.69.18-1.37.5-1.982.162-.307.244-.65.237-.998a2.476 2.476 0 0 1 .525-1.601c.129-.17.244-.317.197-.528-.085-.387.255-.627.316-.966.055-.312.587-.523.195-.932.33-.375.636-.77.92-1.181.23-.428.436-.87.612-1.324.722.06.149-.765.662-.947.362-.19.661-.48.861-.836a9.738 9.738 0 0 1 2.912-2.588 9.056 9.056 0 0 1 1.94-1.201c.012.017.087.074.091.135.008.333.057.663.147.983.048.146-.29.473-.422.764-.414.913-.648 2.003-1.741 2.447a9.316 9.316 0 0 1-1.293 1.508.723.723 0 0 0 .497 1.148c.3.018.59.217.83.154a15.962 15.962 0 0 0 1.564-.616c.207-.08.185-.224.18-.38-.003-.16-.019-.299.202-.362a1.194 1.194 0 0 0 .785-.79c.22-.535.83-.706 1.254-1.013a11.438 11.438 0 0 1 2.82-1.675c.069-.024.12-.157.175-.154a.827.827 0 0 0 .743-.233.788.788 0 0 1 .013.884c-.255.275.095.324.076.451-.049.315.565.584.056.913.318.411-.107.553-.291.77a.709.709 0 0 0-.246.51c.014.72-.691 1.174-.73 1.886-.005.121-.132.184-.268.16-.38-.064-.486.11-.46.47.039.532-.155 1.165.666 1.285.411.551.77-.089 1.157-.052.46-.724 1.393-.871 1.895-1.592a1.666 1.666 0 0 1 1.19-.562 2.571 2.571 0 0 0 1.565-.617c.37-.297.843-.437 1.316-.39-.074.397.088.559.486.485ZM90.568 142.846a1.282 1.282 0 0 0-.976 1.451c.023.281.005.567.003.85-.001.157-.031.313.183.377.518.154.754.4.315.911a.532.532 0 0 0-.002.472c.295.698.364 1.47.196 2.209-.051.403.59.637.136 1.064-.409.385.2.693.15 1.071-.027.199.079.468-.02.596-.42.552-.162 1.013.15 1.453a.684.684 0 0 1 .1.564 6.82 6.82 0 0 0 .298 2.084 4.53 4.53 0 0 0 .42 1.882c.123.212.028.556.018.84-.014.378.103.784-.216 1.104.222.306.389.649.493 1.013.151.44.224.904.213 1.37a9.306 9.306 0 0 0 .236 3.062c.074.202.353.431.006.648.107.535-.223 1.122.195 1.623.043.051.073.183.042.216-.58.627.017 1.142.181 1.678.075.246.14.585.047.679-.34.349.117.628.013.911-.17.466.518.777.16 1.332-.143.223.011.763.326 1.073a.254.254 0 0 1-.077.322c-.26.201-.21.422.033.579a.723.723 0 0 1 .262.955c-.205.321-.006.63-.173.953a2.604 2.604 0 0 0-.033 1.197.646.646 0 0 1-.334.661.646.646 0 0 1-.25.073 2.998 2.998 0 0 1-1.24.239c-.28-.047-.556.191-.75.195-.538.013-1.08.417-1.621.044-.925.56-2.023-.058-2.978.447-.286.151-.715.017-1.075.044-.315.024-.671-.135-.936.076-.237.19-.352.159-.607.011a1.415 1.415 0 0 0-1.268-.04 2.46 2.46 0 0 1-1.143.186 5.747 5.747 0 0 1-.85.003c-1.759-.096-3.485.388-5.251.27-.53-.036-1.08.471-1.62-.025a1.93 1.93 0 0 1-1.358.236 3.565 3.565 0 0 0-1.08.162c-.402.09-.785.036-1.172.089a8.047 8.047 0 0 0-2.225.203c-.67.273-1.488-.086-2.242.161-.275.091-.608-.199-.944-.121-.028-.069-.053-.195-.085-.197a8.777 8.777 0 0 0-1.307-.035c-.447.042-.771-.403-1.225-.254l-1.763-.487h-.241c.165-.412.641-.315.905-.55.256-.231.567-.392.904-.465a1.672 1.672 0 0 0 1.12-.894c-.065-.337-.38-.438-.514-.671-.215-.376-.446-.148-.732-.121-.798.075-1.608.026-2.413.026-.07-.411-.699-.46-.685-.619.04-.462-.451-.753-.29-1.209.118-.332-.113-.578-.24-.847l2.344-.486a.758.758 0 0 0 .609-.826.754.754 0 0 0-.132-.348 1.012 1.012 0 0 0-.989-.543c-.483.037-.969.042-1.453.014a7.076 7.076 0 0 0-1.09.012c-.386.062-.614-.37-.992-.255-.358-.44-.224-.963-.243-1.459a.189.189 0 0 1 .105-.224.188.188 0 0 1 .087-.015c.343-.026.68-.095 1.005-.206.419-.134.847-.462 1.343-.284.463.166.767-.383 1.239-.258.23.029.463-.019.663-.137 1.03-.451 2.19-.531 3.209-1.047a.873.873 0 0 1 .356-.018c.324-.001.648.007.971-.002.27-.008.432-.368.75-.241.363 0 .811.131 1.068-.034.276-.14.58-.215.89-.218.34-.06.707.262.927.116.336-.225.733.08 1.04-.262-.349-.045-.175-.468-.38-.531-.259-.08-.425-.12-.388-.443.076-.669-.386-1.277-.24-1.959.04-.185-.083-.293-.203-.4a.873.873 0 0 1-.152-1.162c.214-.473.07-.439-.253-.997-.234-.402-.715-.707-.63-1.322.054-.393-.273-.62-.706-.571-.364-.021-.207-.302-.244-.486.068-.02.133-.047.194-.08a2.71 2.71 0 0 0-.68-1.623 2.026 2.026 0 0 0-.159-.946c-.166-.364.078-.771-.276-1.118-.251-.246.11-.776-.196-1.12.282-.813-.486-1.402-.465-2.162.002-.063-.123-.136-.113-.19.155-.843-.274-1.625-.252-2.454.035-.403.03-.81-.014-1.213a5.8 5.8 0 0 0-.389-1.051.67.67 0 0 1-.078-.209c-.006-.689.003-1.378-.006-2.067-.008-.659-.489-1.266-.137-2.003a6.767 6.767 0 0 1 2.688-.312 7.635 7.635 0 0 0 3.064-.229.287.287 0 0 1 .237.001 1.699 1.699 0 0 0 1.752.006 1.7 1.7 0 0 1 .603-.011c1.419 0 2.838-.025 4.256.008.953.023 1.849-.367 2.82-.271.924.13 1.862.12 2.783-.029.601-.127 1.183.109 1.79-.161.55-.246 1.262.152 1.854-.218.572.554 1.261-.278 1.878.163.17.122.407-.29.737-.237.404.037.81.042 1.214.015-.017.223.18.177.288.256.316.228.82.223.927.717Zm-13.04 24.331c0 .335-.35.498-.348.84a.514.514 0 0 0 .272.49c.259.138.44-.141.657-.219.13-.046.065-.266-.064-.394-.19-.19-.166-.52-.516-.717Zm-2.946-16.909a.74.74 0 0 0 .042-.904 3.052 3.052 0 0 1-.182-1.01c-.636.768.12 1.221.14 1.914ZM63.33 83.748a1.368 1.368 0 0 1-.139 1.962c.046.616-.722.923-.596 1.57-.521.429-.05 1.074-.331 1.606a3.217 3.217 0 0 0-2.583-.03c-.01-.12-.01-.242.004-.362.081-.4.767-.2.736-.763-.025-.46.416-.664.703-.9.395-.322.14-.92.65-1.212.233-.133.255-.545.66-.7a1.112 1.112 0 0 0 .424-.983c-.01-.299.298-.153.471-.188ZM107.592 174.219a.841.841 0 0 1-.194-.939.841.841 0 0 1 .194-.277v1.216Z"/><path fill="#1C1C1C" d="M87.892 55.78a3.39 3.39 0 0 1 2.563-.958c.47.069.765-.368 1.241-.276.43.084.9-.046 1.332.03 1.094.117 2.162.41 3.162.867.252.097.482.24.68.424a5.622 5.622 0 0 0 1.718 1.125c.746.425 1.417.97 1.987 1.612.258.31.569.576.854.864.384.387.834.742.808 1.365-.01.248.182.34.311.48.347.373.822.665.682 1.308-.022.1.168.245.262.368.255.288.416.646.462 1.027.055.722.36 1.43.413 2.114.052.68.408 1.359.106 2.12a1.597 1.597 0 0 0 .142 1.492.755.755 0 0 1-.081.883c-.07.082-.071.105-.047.177.22.551.253 1.158.095 1.73l.069 1.102c.008.078.05.179.017.23-.403.627.081 1.242.032 1.87-.03.368-.391.615-.267.99.086.263.469.505.033.787.333.269-.16.535-.023.748.183.283-.456.386-.089.698a.437.437 0 0 1 .116.328.444.444 0 0 1-.152.312c-.247.243-.074.536-.132.799-.107.488-.443.993-.212 1.464.144.296-.03.455-.009.662.02.21-.457.282-.095.57.272.215-.129.386-.161.59a.635.635 0 0 0 .192.652c.123.104.006.267-.086.41-.127.2-.324.568-.253.645.312.338-.337.432-.129.694-.322.167-.1.564-.272.73-.269.26.075.547-.152.85-.158.213-.05.684-.287.96a1.16 1.16 0 0 0-.226.996c.063.387-.302.598-.287.997.019.482-.29.948-.223 1.48a1.206 1.206 0 0 1-.472 1.012.61.61 0 0 0-.253.507 4.227 4.227 0 0 1-.287 1.5c-.131.291-.583.522-.205.928-.188.224-.551.351-.313.788.051.095-.384.257-.404.537a1.12 1.12 0 0 0-.486.973c-.407.693-1.02 1.294-.973 2.188-.49.64-.47.744-1.295.89-.594.106-.973.545-1.553.671-.57.124-1.04.302-1.492-.185-.027-.03-.057-.083-.085-.082a1.252 1.252 0 0 1-1.251-.751c-.257-.507-.903-.596-1.266-1.024-.212-.251-.47-.46-.35-.824.132-.393-.288-.647-.235-.987a1.436 1.436 0 0 0-.255-.87.34.34 0 0 0-.254-.357.563.563 0 0 1-.475-.745c.03-.173-.13-.286-.155-.408a5.735 5.735 0 0 0-1.548-2.624 3.194 3.194 0 0 0-.479-2.35c-.06-.067-.015-.23.1-.313.104-.075.159-.187.01-.247a1.03 1.03 0 0 0-.36-.008c.099-.582-.023-1.18-.342-1.677-.305-.38.028-.95-.388-1.294.022-1.132-.528-2.172-.517-3.315.003-.335-.282-.673.03-1.01-.007-.181.024-.352-.136-.516-.205-.209.265-.302.138-.532-.056-.102-.106-.195-.245-.168a.605.605 0 0 1 .232-.62c-.397-.351-.328-.928-.612-1.309a.76.76 0 0 1-.152-.734 2.693 2.693 0 0 0-.297-1.42c-.145-.332-.375-.825-.25-.976.394-.477-.453-.693-.137-1.076a12.784 12.784 0 0 1-.225-3.762c.008-.297-.318-.574-.118-.8.317-.356-.138-.47-.143-.71-.002-.08.032-.182-.006-.237-.258-.381.502-.593.166-.953-.298-.32-.092-.685-.16-1.022a.699.699 0 0 0 0-.973v-.243a1.433 1.433 0 0 1 .06-.44.997.997 0 0 0-.06-1.263c-.12-.31.208-.47.243-.73.049-.374-.154-.802.229-1.108-.567-.468.041-.645.224-.933.038-.059.059-.197.028-.221-.398-.308.157-.602.005-.899-.118-.752.429-1.43.243-2.189.538-.136.506-.557.487-.973.035-.258.362-.42.243-.73a6.849 6.849 0 0 0 1.703-1.702Zm7.645 44.03c.267-.18.068-.458.182-.672.252-.46.478-.934.678-1.42.15-.375.193-.802.687-.913.296-.52.556-1.06.777-1.617a1.04 1.04 0 0 1 .42-1.046 1.75 1.75 0 0 0 .566-1.468c-.005-.337-.164-.734.212-1.001-.075-.722.494-1.31.477-1.976-.019-.74.684-1.362.281-2.133-.016-.03.095-.115.127-.183.193-.329.32-.691.374-1.068a9.21 9.21 0 0 1 .258-1.23c.106-.528-.055-1.087.317-1.611.335-.764.467-1.6.383-2.43 0-.232.025-.463.076-.69.144-.808.186-1.635.267-2.455-.359-.256.224-.5.045-.659-.33-.29.088-.391.122-.568.057-.291-.271-.407-.167-.71a2.188 2.188 0 0 0-.063-1.809 1.068 1.068 0 0 1 .041-1.031c.129-.198.184-.436.155-.67.007-1.175.003-2.35.003-3.524 0-.195.038-.39-.158-.546-.175-.138.237-.268-.004-.536-.216-.242-.532-.686-.09-1.096a.353.353 0 0 0 0-.348c-.441-.446-.038-1.055-.263-1.471a8.158 8.158 0 0 1-.425-1.526c-.1-.308-.12-.5-.448-.675-.174-.093-.251-.573-.271-.818a1.052 1.052 0 0 0-.618-.946c-.592-.213-.788-.703-1.088-1.136-.082-.119.006-.342-.181-.396a3.863 3.863 0 0 1-1.386-.99c-.822-.707-1.901-.971-2.715-1.675-.55.032-1.056-.502-1.583-.235a5.53 5.53 0 0 1-1.242.239 3.759 3.759 0 0 0-2.036 1.212c-.246.315-.197.818-.615 1.08-.63.393.022.83-.01 1.248-.002.04.017.092-.002.12a2.944 2.944 0 0 0-.535 1.602c-.617.371-.456.984-.422 1.52.039.614-.249 1.278.222 1.84-.488.608-.151 1.314-.222 1.97-.037.347.181.746.078 1.053a6.17 6.17 0 0 0-.092.931c-.052.264.132.572-.135.794-.43.358.24.494.151.832-.221.846.292 1.68.107 2.549a1.13 1.13 0 0 0 .1.72c.146.3-.143.743.177 1.013.328.278-.36.513.018.772.317.218-.374.516.032.754-.043.67.435 1.264.28 1.95a.507.507 0 0 0 .234.511.572.572 0 0 1 .077.917c-.124.139-.081.272.035.415.289.354.303.875.692 1.17.152.115.194.203.018.35a.448.448 0 0 0-.06.549.921.921 0 0 1 .197 1.009c-.083.413.273.633.279.997.007.498-.198 1.058.235 1.475.462.444.034 1.086.387 1.544.268.347-.025.77.164 1.147.439.872.426 1.922 1.045 2.724a.494.494 0 0 1 .094.444c-.097.386.243.63.288.99.04.32.182.645.223.995.044.375.544.501.65.818.094.284.371.485.32.849a1.275 1.275 0 0 0 .573 1.205c.312.23.311.633.593.856-.376.42-.22.65.272.759-.13.714.561.903.842 1.356ZM107.564 118.526c.259.632-.289 1.166-.234 1.82.089 1.066.093 1.107-.247 1.623-.183.279-.026.547-.172.83-.111.277-.208.56-.288.847a3.57 3.57 0 0 1-2.021 2.433c-.897.517-1.913.666-2.826 1.092-.292.136-.289-.145-.462-.14-.566.019-1.133.025-1.699.003a10.686 10.686 0 0 1-3.69-.757 5.07 5.07 0 0 0-2.017-.712c-.119.001-.25-.178-.358-.291-.678-.709-1.574-1.143-2.284-1.806-.215-.201-.275.349-.425.058-.066-.128.029-.341-.039-.467a8.229 8.229 0 0 0-1.21-1.612c-.046-.05-.198-.074-.195-.086.209-.941-.995-1.411-.782-2.357.05-.229-.21-.326-.347-.455a.49.49 0 0 1-.12-.551c.245-.889.398-1.8.457-2.72.054-.292.113-.403.401-.441.075-.01.105-.264.177-.394.17-.424.39-.827.653-1.201.327-.375.635-.782.97-1.164a5.994 5.994 0 0 1 1.104-.856c.345-.248.78-.387 1.013-.772.16-.264.499-.169.69-.415.18-.23.344.303.568.127a1.552 1.552 0 0 1 1.272-.118c.396.052.692-.286 1.156-.07.495.231 1.146-.08 1.71.269.478.296 1.137.119 1.611.499.997-.296 1.591.697 2.473.771.169.706.95.644 1.368 1.076.427.44.972.78 1.427 1.218.549.529.741 1.413 1.609 1.623.1.362.238.721.37 1.061.31.631.444 1.334.387 2.035Zm-3.377 4.378c0-.122-.052-.297.008-.356a2.134 2.134 0 0 0 .479-1.751 1.136 1.136 0 0 1 .008-.482c.311-.796.316-1.68.013-2.48-.094-.371-.092-.707-.555-.768-.229-.031-.267-.278-.186-.349.603-.528-.03-.547-.269-.782-.339-.333-.832-.432-1.12-.843a3.58 3.58 0 0 0-2.021-1.255 7.869 7.869 0 0 1-1.505-.583.539.539 0 0 1-.087-.073c-.3.397-.59-.146-.895-.009-.348.156-.508-.328-.873-.256a5.095 5.095 0 0 1-1.09.014 3.774 3.774 0 0 1-.83-.053 2.77 2.77 0 0 0-2.647.559c-.117.101-.332.175-.372.238-.355.558-.978.976-.952 1.746a2.066 2.066 0 0 1-.167.777c-.074.455-.067.92.019 1.373.109.66.258 1.313.447 1.955.072.517.21 1.254.966 1.431.128.031.17.099.207.235a1.459 1.459 0 0 0 .825.982c.172.1.303.257.368.445.058.163.07.291.282.287.278-.039.56-.027.835.036.193.074.165.396.495.515.435.1.85.273 1.227.513.553.504 1.244.355 1.818.636.704-.339 1.38.628 2.089.043.767.559 1.372-.03 2.024-.286.584.233.859-.361 1.303-.513.318-.109.1-.546.155-.83a.643.643 0 0 0 .001-.116Z"/><path fill="#C6C7F8" d="M88.379 93.233a5.734 5.734 0 0 1 1.548 2.623c.024.123.185.236.155.41a.562.562 0 0 0 .475.744.34.34 0 0 1 .254.358c-.08.005-.159.004-.238-.002-.228-.033-.501.111-.676-.08-.144-.155-.317-.41-.282-.581.138-.685-.35-.994-.726-1.38a3.774 3.774 0 0 0-.51-.5c-.281-.194-.091-.312-.026-.527.059-.352.067-.71.026-1.065ZM87.65 90.315a1.03 1.03 0 0 1 .36.008c.15.06.095.172-.009.247-.115.083-.16.246-.1.313.46.691.63 1.534.479 2.35a.596.596 0 0 1-.478-.453 2.599 2.599 0 0 1-.011-.478c-.035-.364-.538-.645-.375-.956.19-.363.067-.695.134-1.031ZM85.218 61.374c.152.297-.403.59-.005.899.03.024.01.162-.028.221-.183.288-.791.465-.224.933-.384.306-.18.733-.23 1.108-.068-.028-.196-.054-.197-.084-.023-.837-.06-1.674-.035-2.51a.57.57 0 0 1 .719-.567ZM87.893 55.78a6.849 6.849 0 0 1-1.703 1.703c.072-.338-.2-.784.178-1.006.479-.28.847-.844 1.525-.697ZM98.593 100.529c-.046-.894.566-1.496.973-2.189h.243a2.536 2.536 0 0 1-1.216 2.189ZM84.488 65.265a.998.998 0 0 1 .061 1.263 1.437 1.437 0 0 0-.061.44.61.61 0 0 1-.127-.937c.186-.267.081-.514.127-.766Z"/><path fill="#C6C7F8" d="M99.81 98.34h-.243a1.116 1.116 0 0 1 .486-.972c.147-.028.271.099.231.176-.141.273-.093.668-.474.796Z"/><path fill="#1C1C1C" d="M86.19 81.803c.14-.028.19.066.246.167.126.23-.343.324-.138.533.16.164.129.335.136.516-.283-.081-.512-.244-.475-.556.027-.225-.234-.583.232-.66Z"/><path fill="#C6C7F8" d="M84.488 67.21a.699.699 0 0 1 0 .973c-.147-.03-.332.081-.431-.084-.023-.037.092-.165.153-.244.147-.192-.18-.588.278-.644Z"/><path fill="#1C1C1C" d="M85.947 58.212c.02.415.052.837-.486.973-.02-.415-.052-.837.486-.973ZM88.125 34.467l-.603-.565c-.127.08-.163.275-.109.31.386.244.078.8.48 1.022-.325.509.053 1.179-.449 1.678a7.882 7.882 0 0 1-3.74 2.113 7.272 7.272 0 0 1-2.208.203 6.16 6.16 0 0 1-1.566-.303 2.621 2.621 0 0 1-1.507-1.769c-.149-.383-.47-.77-.041-1.269.247-.287-.31-.678-.22-1.09.033-.154-.333-.177-.108-.455.316-.392-.094-.968.198-1.362.193-.352.504-.627.877-.776.363-.087.444-.597.878-.52.361-.67 1.125-.58 1.653-.644.543-.066 1.145-.496 1.741-.084.046.032.179-.212.372-.233a4.254 4.254 0 0 1 2.84 1.047c.126.084.314.268.29.35-.162.53.329.529.56.724.11.092.314.085.397.187.078.095-.257.11-.14.337.259.308.402.697.405 1.099ZM106.111 32.14a1.994 1.994 0 0 1-.719 1.896c-.351.337-.503.81-.97 1.114a5.526 5.526 0 0 0-.993 1.09c-.427.509-1.121.453-1.611.814-.577-.51-1.358-.06-2.004-.46a4.22 4.22 0 0 1-1.46-1.115c-.236-.246-.581-.047-.844-.327a7.72 7.72 0 0 1-1.42-1.732 3.016 3.016 0 0 1-.27-1.475 3.444 3.444 0 0 1 1.795-2.456c.878-.34 1.778-.62 2.694-.839.69.279 1.458-.045 2.121.239.251.102.522.147.793.132a3.91 3.91 0 0 1 1.524.437 1.341 1.341 0 0 1 .936 1.063c.12.54.58 1.002.428 1.618Z"/><path fill="#FF4747" d="M95.537 99.81c-.28-.452-.972-.641-.842-1.356-.491-.109-.648-.338-.272-.758-.282-.224-.282-.626-.593-.856a1.275 1.275 0 0 1-.574-1.205c.052-.364-.225-.565-.32-.85-.105-.316-.605-.442-.649-.817-.041-.35-.182-.675-.223-.995-.045-.36-.385-.604-.288-.99a.494.494 0 0 0-.094-.445c-.62-.8-.606-1.851-1.045-2.723-.19-.378.103-.8-.164-1.147-.353-.459.074-1.1-.387-1.544-.433-.417-.228-.977-.236-1.475-.005-.364-.361-.584-.278-.997a.922.922 0 0 0-.198-1.01.447.447 0 0 1 .06-.548c.177-.147.134-.235-.017-.35-.39-.296-.403-.816-.692-1.17-.116-.143-.16-.276-.035-.415a.573.573 0 0 0-.077-.917.508.508 0 0 1-.234-.511c.155-.686-.323-1.28-.28-1.95-.407-.238.285-.536-.032-.754-.378-.26.31-.494-.019-.772-.32-.27-.03-.713-.176-1.013a1.131 1.131 0 0 1-.1-.72c.185-.87-.329-1.703-.107-2.55.088-.337-.582-.473-.152-.831.268-.222.084-.53.136-.794a6.17 6.17 0 0 1 .092-.932c.103-.306-.115-.706-.078-1.052.07-.656-.266-1.362.222-1.97-.471-.563-.184-1.226-.223-1.84-.033-.536-.195-1.149.423-1.52a2.944 2.944 0 0 1 .535-1.602c.018-.028 0-.08.002-.12.032-.418-.62-.855.01-1.249.417-.261.37-.764.615-1.08a3.758 3.758 0 0 1 2.035-1.211 5.531 5.531 0 0 0 1.243-.24c.526-.267 1.033.267 1.583.236.813.703 1.893.968 2.715 1.675.382.429.856.767 1.386.99.187.054.098.277.18.396.3.433.497.923 1.089 1.136a1.055 1.055 0 0 1 .618.946c.02.245.097.725.271.818.328.174.348.367.448.675.092.52.234 1.032.425 1.526.225.416-.178 1.025.263 1.471a.353.353 0 0 1 0 .347c-.442.41-.126.855.09 1.096.24.269-.171.399.004.537.195.155.157.35.157.546.001 1.174.005 2.35-.002 3.524.029.234-.026.472-.155.67a1.06 1.06 0 0 0-.153.51c-.008.18.031.36.112.521a2.187 2.187 0 0 1 .063 1.809c-.104.303.224.418.167.71-.034.177-.453.277-.122.568.179.158-.404.403-.045.66-.081.82-.123 1.646-.268 2.455-.05.226-.075.457-.075.688a4.838 4.838 0 0 1-.383 2.43c-.372.524-.211 1.084-.317 1.612-.114.403-.2.814-.258 1.23-.054.376-.181.74-.374 1.067-.032.069-.143.154-.127.184.403.77-.3 1.394-.281 2.133.017.666-.552 1.254-.477 1.976-.376.266-.217.664-.212 1.001a1.748 1.748 0 0 1-.566 1.467 1.04 1.04 0 0 0-.42 1.047 12.969 12.969 0 0 1-.778 1.617c-.493.111-.537.538-.687.913-.2.485-.426.96-.677 1.42-.114.214.086.492-.182.673ZM102.728 124.363c-.652.256-1.257.845-2.024.286-.708.585-1.385-.382-2.088-.043-.575-.281-1.266-.132-1.819-.636a3.915 3.915 0 0 0-1.226-.513c-.33-.119-.303-.441-.496-.515a2.3 2.3 0 0 0-.835-.036c-.213.004-.224-.124-.282-.287a.832.832 0 0 0-.368-.445 1.459 1.459 0 0 1-.825-.982c-.036-.136-.079-.204-.207-.235-.755-.177-.894-.914-.966-1.431a16.444 16.444 0 0 1-.447-1.955 3.977 3.977 0 0 1-.02-1.373c.106-.246.163-.51.168-.778-.025-.769.597-1.187.952-1.745.04-.063.255-.137.372-.238a2.769 2.769 0 0 1 2.648-.559c.273.048.552.066.829.052a5.03 5.03 0 0 0 1.09-.013c.365-.072.525.412.873.256.305-.137.595.406.895.008a.545.545 0 0 0 .087.074c.48.245.985.44 1.505.583a3.58 3.58 0 0 1 2.021 1.255c.289.411.781.51 1.12.843.239.235.872.254.269.782-.081.071-.043.318.186.348.463.062.461.398.555.769.303.8.298 1.684-.013 2.48-.037.158-.04.323-.008.482a2.128 2.128 0 0 1-.479 1.751c-.06.059-.008.234-.008.356a4.997 4.997 0 0 0-1.459 1.459Z"/></svg>