<svg xmlns="http://www.w3.org/2000/svg" width="32" height="32" fill="none" class="h-5 w-5"><path fill="currentColor" fill-rule="evenodd" d="M18.59 27.41S18 26.83 18 26v-6h-4v6s0 .83-.59 1.41c0 0-.58.59-1.41.59H6s-.83 0-1.41-.59c0 0-.59-.58-.59-1.41V14.44s0-.43.17-.8c0 0 .17-.38.47-.67l10.01-9.1s.57-.52 1.35-.52c0 0 .78 0 1.35.52l10 9.09s.31.3.48.67c0 0 .16.38.17.8V26s0 .83-.59 1.41c0 0-.58.59-1.41.59h-6s-.83 0-1.41-.59ZM20 26h6V14.44L16 5.35 6 14.43v.01H6V26h6v-6s0-.83.59-1.41c0 0 .58-.59 1.41-.59h4s.83 0 1.41.59c0 0 .59.58.59 1.41v6Z" clip-rule="evenodd"/></svg>