<svg xmlns="http://www.w3.org/2000/svg" width="32" height="32" fill="none" class="w-5 h-5"><path fill="currentColor" fill-opacity=".1" d="M27.09 19.08A11.49 11.49 0 0 1 12.93 4.9a11.5 11.5 0 1 0 14.16 14.17Z"/><path fill="currentColor" fill-rule="evenodd" d="M28.05 19.34s-.9 3.22-3.27 5.55c0 0-2.37 2.34-5.6 3.2 0 0-3.22.84-6.44-.03 0 0-3.21-.87-5.57-3.23 0 0-2.36-2.36-3.23-5.57 0 0-.87-3.22-.02-6.45 0 0 .85-3.22 3.19-5.6 0 0 2.34-2.37 5.55-3.26a1 1 0 0 1 1.23 1.23s-.77 2.74-.05 5.49c0 0 .72 2.75 2.73 4.76 0 0 2.01 2.01 4.76 2.73 0 0 2.75.72 5.49-.05a1 1 0 0 1 .52 0h.02a1 1 0 0 1 .7 1.22v.01Zm-4.67 4.13s1.38-1.36 2.16-3.06c0 0-2.35.3-4.72-.32 0 0-3.27-.85-5.66-3.25 0 0-2.4-2.39-3.25-5.66 0 0-.62-2.37-.32-4.72 0 0-1.7.79-3.06 2.16 0 0-1.96 2-2.68 4.7 0 0-.7 2.71.02 5.41 0 0 .73 2.7 2.71 4.69 0 0 1.98 1.98 4.69 2.7 0 0 2.7.74 5.4.03 0 0 2.72-.71 4.7-2.68Z" clip-rule="evenodd"/></svg>