<svg xmlns="http://www.w3.org/2000/svg" width="32" height="32" fill="none" class="w-4 h-4 mr-1"><path fill="currentColor" fill-rule="evenodd" d="M16 3s2.64 0 5.06 1.02c0 0 2.33.99 4.13 2.79 0 0 1.8 1.8 2.79 4.13 0 0 1.02 2.42 1.02 5.06 0 0 0 2.64-1.02 5.06 0 0-.99 2.33-2.79 4.13 0 0-1.8 1.8-4.13 2.79 0 0-2.42 1.02-5.06 1.02 0 0-2.64 0-5.06-1.02 0 0-2.33-.99-4.13-2.79 0 0-1.8-1.8-2.79-4.13 0 0-1.02-2.42-1.02-5.06 0 0 0-2.64 1.02-5.06 0 0 .99-2.33 2.79-4.13 0 0 1.8-1.8 4.13-2.79 0 0 2.42-1.02 5.06-1.02Zm0 2s-2.24 0-4.28.86c0 0-1.98.84-3.5 2.36 0 0-1.52 1.52-2.36 3.5 0 0-.86 2.04-.86 4.28 0 0 0 2.24.86 4.28 0 0 .84 1.98 2.36 3.5 0 0 1.52 1.52 3.5 2.36 0 0 2.04.86 4.28.86 0 0 2.24 0 4.28-.86 0 0 1.98-.84 3.5-2.36 0 0 1.52-1.52 2.36-3.5 0 0 .86-2.04.86-4.28 0 0 0-2.24-.86-4.28 0 0-.84-1.98-2.36-3.5 0 0-1.52-1.52-3.5-2.36 0 0-2.04-.86-4.28-.86Z" clip-rule="evenodd"/><path fill="currentColor" d="M13 13.5a1.5 1.5 0 1 1-3 0 1.5 1.5 0 0 1 3 0ZM19 14.5h3a1 1 0 1 0 0-2h-3a1 1 0 1 0 0 2ZM11.66 18.5a1 1 0 0 0-1.72 1c.94 1.62 2.56 2.56 2.56 2.56 1.63.93 3.5.93 3.5.93 1.87 0 3.5-.93 3.5-.93 1.62-.94 2.56-2.56 2.56-2.56a1 1 0 0 0-.86-1.5h-.02a1 1 0 0 0-.84.5c-.68 1.16-1.84 1.83-1.84 1.83-1.16.66-2.5.66-2.5.66-1.34 0-2.5-.66-2.5-.66-1.16-.67-1.84-1.83-1.84-1.83Z"/></svg>