<svg xmlns="http://www.w3.org/2000/svg" width="216" height="66" fill="none" class="mx-auto"><path fill="#F7F9FB" d="M34 1.77C34 .8 33.24 0 32.28 0s-1.74.8-1.74 1.77v10.2c0 .52-.61.78-.97.42l-5.1-5.22c-.69-.7-1.79-.7-2.46 0a1.8 1.8 0 0 0 0 2.5l7.53 7.7c.64.65 1 1.54 1 2.46v9.08c0 .45-.47.73-.85.5l-7.73-4.55a3.48 3.48 0 0 1-1.6-2.11L17.6 12.24a1.73 1.73 0 0 0-2.13-1.25 1.78 1.78 0 0 0-1.23 2.17l1.87 7.12c.14.5-.4.91-.83.65l-8.64-5.08c-.83-.5-1.89-.2-2.37.65a1.8 1.8 0 0 0 .64 2.42L13.55 24c.44.26.36.93-.13 1.06l-7 1.92a1.78 1.78 0 0 0-1.23 2.17c.25.94 1.2 1.5 2.13 1.25l10.31-2.82c.87-.24 1.8-.11 2.6.35l7.72 4.55c.38.22.38.78 0 1l-7.74 4.57c-.79.46-1.72.59-2.6.35l-10.3-2.82c-.92-.25-1.87.3-2.12 1.25s.3 1.92 1.23 2.17l6.98 1.91c.49.14.58.8.14 1.07L4.9 47.07a1.8 1.8 0 0 0-.63 2.43 1.72 1.72 0 0 0 2.37.64l8.64-5.09c.44-.26.97.15.84.65l-1.88 7.14c-.24.95.3 1.92 1.23 2.17.93.26 1.88-.3 2.13-1.25l2.76-10.52c.24-.9.8-1.66 1.6-2.12l7.72-4.55c.38-.22.85.05.85.5v9.12c0 .93-.36 1.82-1 2.47L22 56.36a1.8 1.8 0 0 0 0 2.5c.67.69 1.77.69 2.45 0l5.11-5.22c.36-.36.97-.1.97.41v10.18c0 .98.78 1.77 1.74 1.77s1.74-.8 1.74-1.77V54.04c0-.52.61-.77.97-.4l5.12 5.22c.68.69 1.78.69 2.46 0a1.8 1.8 0 0 0 0-2.5L35 48.64c-.64-.66-1-1.54-1-2.47v-9.11c0-.45.47-.73.85-.5l7.71 4.54a3.48 3.48 0 0 1 1.6 2.11l2.76 10.53c.25.94 1.2 1.5 2.13 1.25a1.78 1.78 0 0 0 1.22-2.17l-1.87-7.14c-.13-.5.4-.91.83-.65l8.67 5.1c.83.5 1.9.2 2.37-.64a1.8 1.8 0 0 0-.63-2.43l-8.66-5.1c-.44-.26-.35-.93.14-1.06L58.1 39a1.78 1.78 0 0 0 1.23-2.17 1.73 1.73 0 0 0-2.13-1.25l-10.3 2.81c-.87.24-1.8.12-2.59-.35L36.6 33.5a.59.59 0 0 1 0-1.01l7.7-4.54a3.36 3.36 0 0 1 2.6-.35l10.3 2.82c.93.26 1.89-.3 2.14-1.25.24-.94-.3-1.92-1.23-2.17l-7-1.91c-.49-.14-.58-.8-.14-1.07l8.67-5.1a1.8 1.8 0 0 0 .64-2.42 1.72 1.72 0 0 0-2.37-.65l-8.66 5.1c-.44.26-.97-.16-.84-.66l1.87-7.12c.25-.94-.3-1.92-1.22-2.17-.93-.25-1.88.3-2.13 1.25l-2.76 10.51c-.24.9-.8 1.66-1.6 2.12l-7.7 4.54a.57.57 0 0 1-.86-.5v-9.07c0-.93.36-1.82 1-2.47l7.55-7.7a1.8 1.8 0 0 0 0-2.5c-.68-.7-1.78-.7-2.46 0l-5.12 5.22c-.36.36-.97.1-.97-.41V1.77ZM134.07 48.23V30.46c0-4.2-3.34-7.61-7.45-7.61a7.53 7.53 0 0 0-7.45 7.61v17.77h-4.96V30.46c0-7 5.56-12.7 12.41-12.7 6.86 0 12.41 5.7 12.41 12.7v17.77h-4.96Z"/><path fill="#F7F9FB" fill-rule="evenodd" d="M161.38 43.15c5.49 0 9.93-4.54 9.93-10.15 0-5.6-4.44-10.15-9.93-10.15-5.48 0-9.93 4.54-9.93 10.15 0 5.6 4.45 10.15 9.93 10.15Zm0 5.08c8.23 0 14.9-6.82 14.9-15.23s-6.67-15.23-14.9-15.23-14.9 6.82-14.9 15.23 6.67 15.23 14.9 15.23Z" clip-rule="evenodd"/><path fill="#F7F9FB" d="m181.24 17.77 4.68 26.28c.97 5.45 8.09 5.62 9.29.23l2.77-14.98c.1-.55.83-.54.91.01l2.34 14.74a4.69 4.69 0 0 0 9.29.1L216 17.77h-4.82l-4.82 25.28c-.1.55-.82.54-.91 0l-4.38-25.28h-4.85l-5.13 25.36c-.11.54-.82.52-.91-.02l-4.14-25.34h-4.8ZM95.33 48.23c3.49 0 6.26-.74 8.33-2.29a7.54 7.54 0 0 0 3.1-6.44c0-2.41-.84-4.2-2.45-5.5a23.97 23.97 0 0 0-6.66-3.41 60.96 60.96 0 0 1-4.71-2.05c-1.23-.62-1.87-1.55-1.87-2.78 0-1.12.45-1.99 1.42-2.54.97-.56 2.26-.8 3.87-.8 1.23 0 2.46.18 3.62.55 1.1.37 2.26.87 3.48 1.55l2-4.21a17.29 17.29 0 0 0-9.1-2.54c-3.23 0-5.81.68-7.81 2.1a6.66 6.66 0 0 0-2.9 5.95c.06 2.35.9 4.15 2.57 5.38a24.28 24.28 0 0 0 6.6 3.35 32.9 32.9 0 0 1 4.64 2.04 3.32 3.32 0 0 1 1.81 3.1 3.2 3.2 0 0 1-1.55 2.84c-1.1.69-2.58 1-4.59 1-1.35 0-2.77-.25-4.2-.69a17.67 17.67 0 0 1-4.51-2.16l-2 4.4c1.6.98 3.35 1.73 5.1 2.28 1.74.56 3.68.87 5.8.87Z"/></svg>